<mxfile host="app.diagrams.net" modified="2021-03-05T02:48:43.912Z" agent="5.0 (Windows)" etag="a1-t0OznP-n8Jf_GEuL4" version="14.4.4" type="github">
  <diagram id="BHP3nF4R962l0nsyFi1U" name="Page-1">
    <mxGraphModel dx="3417" dy="4627" grid="1" gridSize="10" guides="1" tooltips="1" connect="1" arrows="1" fold="1" page="1" pageScale="1" pageWidth="850" pageHeight="1100" math="0" shadow="0">
      <root>
        <mxCell id="0" />
        <mxCell id="1" parent="0" />
        <mxCell id="e7U4q7C3OgtxsN5pp7k--63" value="" style="rounded=1;whiteSpace=wrap;html=1;fillColor=#FF0000;" vertex="1" parent="1">
          <mxGeometry x="1018.45" y="-1350.9" width="324.94" height="530" as="geometry" />
        </mxCell>
        <mxCell id="e7U4q7C3OgtxsN5pp7k--18" value="" style="rounded=1;whiteSpace=wrap;html=1;fillColor=#FF0000;" vertex="1" parent="1">
          <mxGeometry x="1018.45" y="-820.9" width="324.94" height="530" as="geometry" />
        </mxCell>
        <mxCell id="e7U4q7C3OgtxsN5pp7k--22" style="edgeStyle=orthogonalEdgeStyle;rounded=0;orthogonalLoop=1;jettySize=auto;html=1;" edge="1" parent="1" source="e7U4q7C3OgtxsN5pp7k--19" target="e7U4q7C3OgtxsN5pp7k--21">
          <mxGeometry relative="1" as="geometry" />
        </mxCell>
        <mxCell id="e7U4q7C3OgtxsN5pp7k--19" value="&lt;div&gt;&lt;font style=&quot;font-size: 18px&quot;&gt;&lt;b&gt;Addition functionality shelved due to time constraint&lt;/b&gt;&lt;/font&gt;&lt;/div&gt;" style="text;html=1;strokeColor=none;fillColor=none;align=center;verticalAlign=middle;whiteSpace=wrap;rounded=0;" vertex="1" parent="1">
          <mxGeometry x="-250.00000000000003" y="-239.9999999999999" width="460" height="20" as="geometry" />
        </mxCell>
        <mxCell id="e7U4q7C3OgtxsN5pp7k--21" value="" style="rounded=1;whiteSpace=wrap;html=1;fillColor=#FF0000;" vertex="1" parent="1">
          <mxGeometry x="-182.14" y="-816.8199999999999" width="324.94" height="530" as="geometry" />
        </mxCell>
        <mxCell id="e7U4q7C3OgtxsN5pp7k--15" value="" style="rounded=1;whiteSpace=wrap;html=1;fillColor=#FF0000;" vertex="1" parent="1">
          <mxGeometry x="1018.45" y="-820.9" width="324.94" height="530" as="geometry" />
        </mxCell>
        <mxCell id="e7U4q7C3OgtxsN5pp7k--10" value="&lt;div&gt;&lt;font style=&quot;font-size: 18px&quot;&gt;&lt;b&gt;Signup functionality shelved due to time constraint&lt;/b&gt;&lt;/font&gt;&lt;/div&gt;" style="text;html=1;strokeColor=none;fillColor=none;align=center;verticalAlign=middle;whiteSpace=wrap;rounded=0;" vertex="1" parent="1">
          <mxGeometry x="554.5" y="-1980" width="450.5" height="20" as="geometry" />
        </mxCell>
        <mxCell id="e7U4q7C3OgtxsN5pp7k--11" style="edgeStyle=orthogonalEdgeStyle;rounded=0;orthogonalLoop=1;jettySize=auto;html=1;entryX=0.5;entryY=0;entryDx=0;entryDy=0;" edge="1" source="e7U4q7C3OgtxsN5pp7k--10" target="e7U4q7C3OgtxsN5pp7k--12" parent="1">
          <mxGeometry relative="1" as="geometry" />
        </mxCell>
        <mxCell id="e7U4q7C3OgtxsN5pp7k--12" value="" style="rounded=1;whiteSpace=wrap;html=1;fillColor=#FF0000;" vertex="1" parent="1">
          <mxGeometry x="617.2" y="-1910" width="324.94" height="530" as="geometry" />
        </mxCell>
        <mxCell id="e7U4q7C3OgtxsN5pp7k--4" value="" style="rounded=1;whiteSpace=wrap;html=1;fillColor=#FF0000;" vertex="1" parent="1">
          <mxGeometry x="-182.14" y="-1900" width="324.94" height="530" as="geometry" />
        </mxCell>
        <mxCell id="dHE7tIidJEhlcoBUh_R6-86" value="" style="rounded=1;whiteSpace=wrap;html=1;" parent="1" vertex="1">
          <mxGeometry x="240.99" y="-1880" width="280" height="484.18" as="geometry" />
        </mxCell>
        <mxCell id="dHE7tIidJEhlcoBUh_R6-87" value="" style="ellipse;whiteSpace=wrap;html=1;" parent="1" vertex="1">
          <mxGeometry x="362.9373684210527" y="-1447.0557377049179" width="36.10526315789473" height="39.18688524590165" as="geometry" />
        </mxCell>
        <mxCell id="dHE7tIidJEhlcoBUh_R6-88" value="" style="rounded=0;whiteSpace=wrap;html=1;" parent="1" vertex="1">
          <mxGeometry x="259.6542105263158" y="-1861.1777049180328" width="242.66421052631577" height="406.09573770491806" as="geometry" />
        </mxCell>
        <mxCell id="dHE7tIidJEhlcoBUh_R6-146" style="edgeStyle=orthogonalEdgeStyle;rounded=0;orthogonalLoop=1;jettySize=auto;html=1;entryX=1;entryY=0.5;entryDx=0;entryDy=0;" parent="1" source="dHE7tIidJEhlcoBUh_R6-93" target="dHE7tIidJEhlcoBUh_R6-115" edge="1">
          <mxGeometry relative="1" as="geometry">
            <Array as="points">
              <mxPoint x="181" y="-1483.82" />
              <mxPoint x="181" y="-1635.82" />
            </Array>
          </mxGeometry>
        </mxCell>
        <mxCell id="dHE7tIidJEhlcoBUh_R6-93" value="Login" style="rounded=1;fillColor=#0057D8;strokeColor=none;html=1;fontColor=#ffffff;align=center;verticalAlign=middle;fontStyle=0;fontSize=12" parent="1" vertex="1">
          <mxGeometry x="274.99" y="-1500" width="86" height="33" as="geometry" />
        </mxCell>
        <mxCell id="dHE7tIidJEhlcoBUh_R6-179" style="edgeStyle=orthogonalEdgeStyle;rounded=0;orthogonalLoop=1;jettySize=auto;html=1;exitX=1;exitY=0.5;exitDx=0;exitDy=0;" parent="1" source="dHE7tIidJEhlcoBUh_R6-94" edge="1">
          <mxGeometry relative="1" as="geometry">
            <Array as="points">
              <mxPoint x="581" y="-1483" />
              <mxPoint x="581" y="-1640" />
              <mxPoint x="640" y="-1640" />
              <mxPoint x="640" y="-1638" />
            </Array>
            <mxPoint x="630" y="-1638" as="targetPoint" />
          </mxGeometry>
        </mxCell>
        <mxCell id="dHE7tIidJEhlcoBUh_R6-94" value="Signup" style="rounded=1;fillColor=#0057D8;strokeColor=none;html=1;fontColor=#ffffff;align=center;verticalAlign=middle;fontStyle=0;fontSize=12" parent="1" vertex="1">
          <mxGeometry x="399.03999999999996" y="-1500" width="86" height="33" as="geometry" />
        </mxCell>
        <mxCell id="dHE7tIidJEhlcoBUh_R6-101" value="&lt;h1 align=&quot;center&quot;&gt;&lt;font style=&quot;font-size: 14px&quot;&gt;My Health Passport Canada&lt;/font&gt;&lt;br&gt;&lt;/h1&gt;&lt;p align=&quot;center&quot;&gt;Welcome to the Canada Digital Health Passport.&lt;/p&gt;&lt;p align=&quot;center&quot;&gt;Please select your province to log in.&lt;br&gt;&lt;/p&gt;" style="text;html=1;strokeColor=none;fillColor=none;spacing=5;spacingTop=-20;whiteSpace=wrap;overflow=hidden;rounded=0;" parent="1" vertex="1">
          <mxGeometry x="279.03999999999996" y="-1860" width="206" height="130" as="geometry" />
        </mxCell>
        <mxCell id="dHE7tIidJEhlcoBUh_R6-107" value="" style="dashed=0;align=center;fontSize=12;shape=rect;fillColor=#ffffff;strokeColor=#cccccc;shadow=1;" parent="1" vertex="1">
          <mxGeometry x="299.99" y="-1725" width="166" height="205" as="geometry" />
        </mxCell>
        <mxCell id="dHE7tIidJEhlcoBUh_R6-108" value="Province" style="shape=rect;fontColor=#000000;verticalAlign=middle;spacingLeft=13;fontSize=14;strokeColor=#cccccc;align=left;resizeWidth=1;" parent="dHE7tIidJEhlcoBUh_R6-107" vertex="1">
          <mxGeometry width="166" height="40" relative="1" as="geometry" />
        </mxCell>
        <mxCell id="dHE7tIidJEhlcoBUh_R6-109" value="" style="dashed=0;html=1;shape=mxgraph.gmdl.triangle;fillColor=#cccccc;strokeColor=none;" parent="dHE7tIidJEhlcoBUh_R6-108" vertex="1">
          <mxGeometry x="1" y="0.5" width="10" height="5" relative="1" as="geometry">
            <mxPoint x="-25" y="-2.5" as="offset" />
          </mxGeometry>
        </mxCell>
        <mxCell id="dHE7tIidJEhlcoBUh_R6-110" value="Ontario" style="shape=rect;align=left;fontColor=#000000;verticalAlign=middle;spacingLeft=13;fontSize=14;fillColor=#eeeeee;strokeColor=none;resizeWidth=1;" parent="dHE7tIidJEhlcoBUh_R6-107" vertex="1">
          <mxGeometry width="166" height="30" relative="1" as="geometry">
            <mxPoint y="50" as="offset" />
          </mxGeometry>
        </mxCell>
        <mxCell id="dHE7tIidJEhlcoBUh_R6-111" value="Prince Edward Island" style="text;fontColor=#000000;verticalAlign=middle;spacingLeft=13;fontSize=14;resizeWidth=1;" parent="dHE7tIidJEhlcoBUh_R6-107" vertex="1">
          <mxGeometry width="166" height="30" relative="1" as="geometry">
            <mxPoint y="80" as="offset" />
          </mxGeometry>
        </mxCell>
        <mxCell id="dHE7tIidJEhlcoBUh_R6-112" value="Quebec" style="text;fontColor=#000000;verticalAlign=middle;spacingLeft=13;fontSize=14;resizeWidth=1;" parent="dHE7tIidJEhlcoBUh_R6-107" vertex="1">
          <mxGeometry width="166" height="30" relative="1" as="geometry">
            <mxPoint y="110" as="offset" />
          </mxGeometry>
        </mxCell>
        <mxCell id="dHE7tIidJEhlcoBUh_R6-113" value="Saskatchewan" style="text;fontColor=#000000;verticalAlign=middle;spacingLeft=13;fontSize=14;resizeWidth=1;" parent="dHE7tIidJEhlcoBUh_R6-107" vertex="1">
          <mxGeometry width="166" height="30" relative="1" as="geometry">
            <mxPoint y="145" as="offset" />
          </mxGeometry>
        </mxCell>
        <mxCell id="dHE7tIidJEhlcoBUh_R6-114" value="Yukon" style="text;fontColor=#000000;verticalAlign=middle;spacingLeft=13;fontSize=14;resizeWidth=1;" parent="dHE7tIidJEhlcoBUh_R6-107" vertex="1">
          <mxGeometry width="166" height="30" relative="1" as="geometry">
            <mxPoint y="175" as="offset" />
          </mxGeometry>
        </mxCell>
        <mxCell id="dHE7tIidJEhlcoBUh_R6-115" value="" style="rounded=1;whiteSpace=wrap;html=1;" parent="1" vertex="1">
          <mxGeometry x="-160" y="-1875.82" width="280" height="480" as="geometry" />
        </mxCell>
        <mxCell id="dHE7tIidJEhlcoBUh_R6-116" value="" style="ellipse;whiteSpace=wrap;html=1;" parent="1" vertex="1">
          <mxGeometry x="-38.052631578947285" y="-1442.8757377049178" width="36.10526315789473" height="39.18688524590165" as="geometry" />
        </mxCell>
        <mxCell id="dHE7tIidJEhlcoBUh_R6-117" value="" style="rounded=0;whiteSpace=wrap;html=1;" parent="1" vertex="1">
          <mxGeometry x="-141.3357894736842" y="-1856.9977049180327" width="242.66421052631577" height="406.09573770491806" as="geometry" />
        </mxCell>
        <mxCell id="dHE7tIidJEhlcoBUh_R6-148" value="OHIP Number" style="strokeWidth=1;shadow=0;dashed=0;align=center;html=1;shape=mxgraph.mockup.text.textBox;fontColor=#666666;align=left;fontSize=17;spacingLeft=4;spacingTop=-3;strokeColor=#666666;mainText=" parent="1" vertex="1">
          <mxGeometry x="-95" y="-1745.82" width="150" height="30" as="geometry" />
        </mxCell>
        <mxCell id="dHE7tIidJEhlcoBUh_R6-155" value="Ontario Login" style="rounded=0;whiteSpace=wrap;html=1;" parent="1" vertex="1">
          <mxGeometry x="-140.67000000000002" y="-1857" width="241.34" height="24" as="geometry" />
        </mxCell>
        <mxCell id="dHE7tIidJEhlcoBUh_R6-157" value="E-Mail Address" style="strokeWidth=1;shadow=0;dashed=0;align=center;html=1;shape=mxgraph.mockup.text.textBox;fontColor=#666666;align=left;fontSize=17;spacingLeft=4;spacingTop=-3;strokeColor=#666666;mainText=" parent="1" vertex="1">
          <mxGeometry x="-95" y="-1655.82" width="150" height="30" as="geometry" />
        </mxCell>
        <mxCell id="dHE7tIidJEhlcoBUh_R6-158" value="Password" style="strokeWidth=1;shadow=0;dashed=0;align=center;html=1;shape=mxgraph.mockup.text.textBox;fontColor=#666666;align=left;fontSize=17;spacingLeft=4;spacingTop=-3;strokeColor=#666666;mainText=" parent="1" vertex="1">
          <mxGeometry x="-93" y="-1565.82" width="150" height="30" as="geometry" />
        </mxCell>
        <mxCell id="dHE7tIidJEhlcoBUh_R6-159" value="Login" style="rounded=1;fillColor=#0057D8;strokeColor=none;html=1;fontColor=#ffffff;align=center;verticalAlign=middle;fontStyle=0;fontSize=12" parent="1" vertex="1">
          <mxGeometry x="-61" y="-1505.82" width="86" height="33" as="geometry" />
        </mxCell>
        <mxCell id="dHE7tIidJEhlcoBUh_R6-129" value="" style="rounded=1;whiteSpace=wrap;html=1;" parent="1" vertex="1">
          <mxGeometry x="641" y="-1880" width="280" height="484.18" as="geometry" />
        </mxCell>
        <mxCell id="dHE7tIidJEhlcoBUh_R6-130" value="" style="ellipse;whiteSpace=wrap;html=1;" parent="1" vertex="1">
          <mxGeometry x="762.9473684210527" y="-1447.0557377049179" width="36.10526315789473" height="39.18688524590165" as="geometry" />
        </mxCell>
        <mxCell id="dHE7tIidJEhlcoBUh_R6-131" value="" style="rounded=0;whiteSpace=wrap;html=1;" parent="1" vertex="1">
          <mxGeometry x="659.6642105263159" y="-1861.1777049180328" width="242.66421052631577" height="406.09573770491806" as="geometry" />
        </mxCell>
        <mxCell id="dHE7tIidJEhlcoBUh_R6-167" value="Ontario Signup" style="rounded=0;whiteSpace=wrap;html=1;" parent="1" vertex="1">
          <mxGeometry x="660.3299999999999" y="-1861.1800000000003" width="241.34" height="24" as="geometry" />
        </mxCell>
        <mxCell id="dHE7tIidJEhlcoBUh_R6-163" value="Login" style="rounded=1;fillColor=#0057D8;strokeColor=none;html=1;fontColor=#ffffff;align=center;verticalAlign=middle;fontStyle=0;fontSize=12" parent="1" vertex="1">
          <mxGeometry x="738" y="-1490" width="86" height="33" as="geometry" />
        </mxCell>
        <mxCell id="dHE7tIidJEhlcoBUh_R6-170" value="Confirm Password" style="strokeWidth=1;shadow=0;dashed=0;align=center;html=1;shape=mxgraph.mockup.text.textBox;fontColor=#666666;align=left;fontSize=17;spacingLeft=4;spacingTop=-3;strokeColor=#666666;mainText=" parent="1" vertex="1">
          <mxGeometry x="706" y="-1530" width="150" height="30" as="geometry" />
        </mxCell>
        <mxCell id="dHE7tIidJEhlcoBUh_R6-169" value="Password" style="strokeWidth=1;shadow=0;dashed=0;align=center;html=1;shape=mxgraph.mockup.text.textBox;fontColor=#666666;align=left;fontSize=17;spacingLeft=4;spacingTop=-3;strokeColor=#666666;mainText=" parent="1" vertex="1">
          <mxGeometry x="706" y="-1570" width="150" height="30" as="geometry" />
        </mxCell>
        <mxCell id="dHE7tIidJEhlcoBUh_R6-166" value="OHIP Number" style="strokeWidth=1;shadow=0;dashed=0;align=center;html=1;shape=mxgraph.mockup.text.textBox;fontColor=#666666;align=left;fontSize=17;spacingLeft=4;spacingTop=-3;strokeColor=#666666;mainText=" parent="1" vertex="1">
          <mxGeometry x="704" y="-1820" width="150" height="30" as="geometry" />
        </mxCell>
        <mxCell id="dHE7tIidJEhlcoBUh_R6-172" value="OHIP Version Code" style="strokeWidth=1;shadow=0;dashed=0;align=center;html=1;shape=mxgraph.mockup.text.textBox;fontColor=#666666;align=left;fontSize=16;spacingLeft=4;spacingTop=-3;strokeColor=#666666;mainText=" parent="1" vertex="1">
          <mxGeometry x="704" y="-1780" width="150" height="30" as="geometry" />
        </mxCell>
        <mxCell id="dHE7tIidJEhlcoBUh_R6-164" value="Date of Birth" style="strokeWidth=1;shadow=0;dashed=0;align=center;html=1;shape=mxgraph.mockup.text.textBox;fontColor=#666666;align=left;fontSize=17;spacingLeft=4;spacingTop=-3;strokeColor=#666666;mainText=" parent="1" vertex="1">
          <mxGeometry x="706" y="-1673.13" width="150" height="30" as="geometry" />
        </mxCell>
        <mxCell id="dHE7tIidJEhlcoBUh_R6-171" value="Full Name" style="strokeWidth=1;shadow=0;dashed=0;align=center;html=1;shape=mxgraph.mockup.text.textBox;fontColor=#666666;align=left;fontSize=17;spacingLeft=4;spacingTop=-3;strokeColor=#666666;mainText=" parent="1" vertex="1">
          <mxGeometry x="706" y="-1713.13" width="150" height="30" as="geometry" />
        </mxCell>
        <mxCell id="dHE7tIidJEhlcoBUh_R6-165" value="E-Mail Address" style="strokeWidth=1;shadow=0;dashed=0;align=center;html=1;shape=mxgraph.mockup.text.textBox;fontColor=#666666;align=left;fontSize=17;spacingLeft=4;spacingTop=-3;strokeColor=#666666;mainText=" parent="1" vertex="1">
          <mxGeometry x="706" y="-1610" width="150" height="30" as="geometry" />
        </mxCell>
        <mxCell id="dHE7tIidJEhlcoBUh_R6-4" value="" style="rounded=1;whiteSpace=wrap;html=1;" parent="1" vertex="1">
          <mxGeometry x="241" y="-1315.82" width="280" height="480" as="geometry" />
        </mxCell>
        <mxCell id="dHE7tIidJEhlcoBUh_R6-5" value="" style="ellipse;whiteSpace=wrap;html=1;" parent="1" vertex="1">
          <mxGeometry x="362.9473684210527" y="-882.8757377049179" width="36.10526315789473" height="39.18688524590165" as="geometry" />
        </mxCell>
        <mxCell id="dHE7tIidJEhlcoBUh_R6-6" value="" style="rounded=0;whiteSpace=wrap;html=1;" parent="1" vertex="1">
          <mxGeometry x="259.6642105263158" y="-1296.9977049180327" width="242.66421052631577" height="406.09573770491806" as="geometry" />
        </mxCell>
        <mxCell id="dHE7tIidJEhlcoBUh_R6-25" value="" style="html=1;verticalLabelPosition=bottom;align=center;labelBackgroundColor=#ffffff;verticalAlign=top;strokeWidth=2;strokeColor=#0080F0;shadow=0;dashed=0;shape=mxgraph.ios7.icons.user;" parent="1" vertex="1">
          <mxGeometry x="281" y="-1275.82" width="80" height="80" as="geometry" />
        </mxCell>
        <mxCell id="dHE7tIidJEhlcoBUh_R6-26" value="&lt;div align=&quot;left&quot;&gt;&lt;font style=&quot;font-size: 18px&quot;&gt;Anita&lt;/font&gt;&lt;/div&gt;&lt;div align=&quot;left&quot;&gt;&lt;font size=&quot;3&quot;&gt;Jean&lt;/font&gt;&lt;/div&gt;&lt;div align=&quot;left&quot;&gt;&lt;font size=&quot;3&quot;&gt;Walker&lt;br&gt;&lt;/font&gt;&lt;/div&gt;" style="text;html=1;strokeColor=none;fillColor=none;align=left;verticalAlign=middle;whiteSpace=wrap;rounded=0;" parent="1" vertex="1">
          <mxGeometry x="401" y="-1275.82" width="78.05" height="80" as="geometry" />
        </mxCell>
        <mxCell id="dHE7tIidJEhlcoBUh_R6-31" value="5584-486-674" style="text;html=1;strokeColor=none;fillColor=none;align=left;verticalAlign=middle;whiteSpace=wrap;rounded=0;" parent="1" vertex="1">
          <mxGeometry x="401" y="-1139.82" width="90" height="20" as="geometry" />
        </mxCell>
        <mxCell id="dHE7tIidJEhlcoBUh_R6-32" value="&lt;div align=&quot;left&quot;&gt;DOB:&lt;/div&gt;" style="text;html=1;strokeColor=none;fillColor=none;align=left;verticalAlign=middle;whiteSpace=wrap;rounded=0;" parent="1" vertex="1">
          <mxGeometry x="303" y="-1185.82" width="30" height="20" as="geometry" />
        </mxCell>
        <mxCell id="dHE7tIidJEhlcoBUh_R6-180" style="edgeStyle=orthogonalEdgeStyle;rounded=0;orthogonalLoop=1;jettySize=auto;html=1;" parent="1" source="dHE7tIidJEhlcoBUh_R6-33" target="dHE7tIidJEhlcoBUh_R6-17" edge="1">
          <mxGeometry relative="1" as="geometry">
            <Array as="points">
              <mxPoint x="181" y="-1051.82" />
              <mxPoint x="181" y="-1075.82" />
            </Array>
          </mxGeometry>
        </mxCell>
        <mxCell id="dHE7tIidJEhlcoBUh_R6-33" value="Vaccines" style="rounded=1;fillColor=#0057D8;strokeColor=none;html=1;fontColor=#ffffff;align=center;verticalAlign=middle;fontStyle=0;fontSize=12" parent="1" vertex="1">
          <mxGeometry x="275" y="-1068.82" width="86" height="33" as="geometry" />
        </mxCell>
        <mxCell id="dHE7tIidJEhlcoBUh_R6-181" style="edgeStyle=orthogonalEdgeStyle;rounded=0;orthogonalLoop=1;jettySize=auto;html=1;" parent="1" source="dHE7tIidJEhlcoBUh_R6-34" edge="1">
          <mxGeometry relative="1" as="geometry">
            <Array as="points">
              <mxPoint x="581" y="-1051.82" />
              <mxPoint x="581" y="-1075.82" />
            </Array>
            <mxPoint x="641" y="-1075.82" as="targetPoint" />
          </mxGeometry>
        </mxCell>
        <mxCell id="dHE7tIidJEhlcoBUh_R6-34" value="Tests" style="rounded=1;fillColor=#0057D8;strokeColor=none;html=1;fontColor=#ffffff;align=center;verticalAlign=middle;fontStyle=0;fontSize=12" parent="1" vertex="1">
          <mxGeometry x="396.95000000000005" y="-1068.82" width="86" height="33" as="geometry" />
        </mxCell>
        <mxCell id="dHE7tIidJEhlcoBUh_R6-35" value="&lt;div align=&quot;left&quot;&gt;OHIP Version Code:&lt;/div&gt;" style="text;html=1;strokeColor=none;fillColor=none;align=left;verticalAlign=middle;whiteSpace=wrap;rounded=0;" parent="1" vertex="1">
          <mxGeometry x="281" y="-1119.82" width="120" height="20" as="geometry" />
        </mxCell>
        <mxCell id="dHE7tIidJEhlcoBUh_R6-36" value="YM" style="text;html=1;strokeColor=none;fillColor=none;align=left;verticalAlign=middle;whiteSpace=wrap;rounded=0;" parent="1" vertex="1">
          <mxGeometry x="401" y="-1119.82" width="20" height="20" as="geometry" />
        </mxCell>
        <mxCell id="dHE7tIidJEhlcoBUh_R6-37" value="&lt;div align=&quot;left&quot;&gt;OHIP Number:&lt;br&gt;&lt;/div&gt;" style="text;html=1;strokeColor=none;fillColor=none;align=left;verticalAlign=middle;whiteSpace=wrap;rounded=0;" parent="1" vertex="1">
          <mxGeometry x="281" y="-1139.82" width="90" height="20" as="geometry" />
        </mxCell>
        <mxCell id="dHE7tIidJEhlcoBUh_R6-52" value="&lt;font style=&quot;font-size: 10px&quot;&gt; December 15 1981&lt;/font&gt;" style="text;html=1;strokeColor=none;fillColor=none;align=left;verticalAlign=middle;whiteSpace=wrap;rounded=0;" parent="1" vertex="1">
          <mxGeometry x="341" y="-1185.82" width="100" height="20" as="geometry" />
        </mxCell>
        <mxCell id="dHE7tIidJEhlcoBUh_R6-54" value="" style="shape=image;verticalLabelPosition=bottom;labelBackgroundColor=#ffffff;verticalAlign=top;aspect=fixed;imageAspect=0;image=data:image/png,iVBORw0KGgoAAAANSUhEUgAAA68AAAOuCAYAAADoxCFMAAAABGdBTUEAALGPC/xhBQAAACBjSFJNAAB6JgAAgIQAAPoAAACA6AAAdTAAAOpgAAA6mAAAF3CculE8AAAACXBIWXMAAA7EAAAOxAGVKw4bAAAAAmJLR0QA/4ePzL8AAAAHdElNRQfkBQgJAzE5dzzdAAAAJXRFWHRkYXRlOmNyZWF0ZQAyMDIwLTA1LTA4VDA5OjAzOjQ5KzAwOjAwPHWOxQAAACV0RVh0ZGF0ZTptb2RpZnkAMjAyMC0wNS0wOFQwOTowMzo0OSswMDowME0oNnkAADnzSURBVHhe7dp/kJ1lfcf9awlZENhgMEmRpIOAggngRoEERzeKklhGinVjp00ADaAGalVqpTCYQN3gSDJqQWsT7LgEyyaOhDAiI7pSlITRhIAk6Ab8gT8mBGRB6SZAsglxn3PSa/o8z8z99319Z+7Xa+aa5tN/es19zp49b7odf/zjH8ceeeSRBJQ1ceLEdOaZZ+bVTE8//XQaGhrKq4x3vetdady4cXnV78knn0y/+c1v8qpfZ2dnesc73pEXpTz00ENpZGQkr2Z65zvfmcaPH59X8xw4cCDdf//9eTVTV1dXOvvss/Mq4+GHH04vvPBCXkApZ5xxRjrmmGNSGhwcHGttx3EKn56enrGm6+/vr3w2dZ5WMOTblLFkyZLKe9V1Jk2alG9CSbNmzap8fZp0hoeH89NopvZnUdVzadLp7u7OT6Oc9u/mqrs5jlPvaTdr2yGtAQAAAKGJVwAAAMITrwAAAIQnXgEAAAhPvAIAABCeeAUAACA88QoAAEB44hUAAIDwxCsAAADhiVcAAADCE68AAACEJ14BAAAIT7wCAAAQnngFAAAgPPEKAABAeOIVAACA8MQrAAAA4YlXAAAAwhOvAAAAhCdeAQAACE+8AgAAEJ54BQAAIDzxCgAAQHjiFQAAgPDEKwAAAOGJVwAAAMITrwAAAIQnXgEAAAhPvAIAABCeeAUAACA88QoAAEB4HYODg2Pz5s3Ls4y77747nXTSSXlBGVdeeWX6wQ9+kFf9enp60oYNG/JqpltvvTVdeumleZVxyimnpEMOKfff9RYsWJDmz5+fV/0OPfTQdPLJJ+dVxr/8y7+ke+65J6/6velNb0rf/OY38ypj9uzZ6aGHHsqrfu9973vTihUr8iqj/bM4bty4vOq3atWq9OUvfzmv+h1xxBHpG9/4Rl5lLFmyJN1111151a+7uztt3bo1rzLmzJmTNm7cmFf95s6dm2666aa8oIwnn3wyXXDBBXmV0WrWgz8P7X+MtXbRMzQ0NAal9fb2Vr4/6zqteM03aa7+/v7KZ9Ok09fXl59Gc7UCvvLZ1HVmzZqVb1JO+w5Vd6vrtF+Dpmv/LFY9m7pOV1dXvkk5ixYtqrxbXacVr/km5bR/N1fdra7T/m4CpbVbrer9WedpN2ubPxsGAAAgPPEKAABAeOIVAACA8MQrAAAA4YlXAAAAwhOvAAAAhCdeAQAACE+8AgAAEJ54BQAAIDzxCgAAQHjiFQAAgPDEKwAAAOGJVwAAAMITrwAAAIQnXgEAAAhPvAIAABCeeAUAACA88QoAAEB44hUAAIDwxCsAAADhiVcAAADCE68AAACEJ14BAAAIT7wCAAAQnngFAAAgPPEKAABAeOIVAACA8MQrAAAA4YlXAAAAwhOvAAAAhNcxODg4Nm/evDzLGBoaSjNmzMirftu3b08bNmzIixKOOuqodNFFF+VVxvz589P69evzql9PT0/j34c/+clP0m233ZZXGf39/Wn//v151a+vry8tXbo0r2ZauHBhWrt2bV71mzVrVtq8eXNeZSxfvjz99re/zat+EydOTMcff3xezfTss8+mZ555Jq/6jRs3Lp1++ul5lfGNb3zj4OdyKd3d3Wnr1q15lTFnzpy0cePGvOrX29ub7rzzzrzKuP3229OLL76YFyW034elW+nUU0/Nq4xWs6a5c+ce/MdYaxc9rXgdK2nlypWV93LqO1OnTs2vRjmtXxCVd6vrtOI134SSurq6Kl+fuk4rXvNNmmvBggWVz6au04rXfJPmGhgYqHw2TTpLlizJT6OMkZGRyns16bTiNT+Nctq/m6vuVtdpfzcprf0drepuTn2n3SoltVut6l51nnaztvmzYQAAAMITrwAAAIQnXgEAAAhPvAIAABCeeAUAACA88QoAAEB44hUAAIDwxCsAAADhiVcAAADCE68AAACEJ14BAAAIT7wCAAAQnngFAAAgPPEKAABAeOIVAACA8MQrAAAA4YlXAAAAwhOvAAAAhCdeAQAACE+8AgAAEJ54BQAAIDzxCgAAQHjiFQAAgPDEKwAAAOGJVwAAAMITrwAAAIQnXgEAAAhPvAIAABCeeAUAACA88QoAAEB44hUAAIDwxCvwf2bNmpUOO+ywYuejH/1ovkk5zz//fNq7d2+xc+211+abUMqWLVsq359NOvfee2/l+7POM2nSpPyKNNOECRMqn0uTTvtnEeD/S7wC/2ffvn1Fz/79+/NNyuns7Kz8Ml/XGTduXL4JpYyNjVW+P5t0Dhw4UPn+rPOQKp9Lk8748ePzkwD4X+IVAACA8MQrAAAA4YlXAAAAwhOvAAAAhCdeAQAACE+8AgAAEJ54BQAAIDzxCgAAQHjiFQAAgPDEKwAAAOGJVwAAAMITrwAAAIQnXgEAAAhPvAIAABCeeAUAACA88QoAAEB44hUAAIDwxCsAAADhiVcAAADCE68AAACEJ14BAAAIT7wCAAAQnngFAAAgPPEKAABAeOIVAACA8MQrAAAA4YlXAAAAwhOvAAAAhCdeAQAACE+8AgAAEF7H4ODg2Lx58/IsY2hoKM2YMSOv+q1atSpdccUVeVHC1KlT01NPPZVXGfPnz0/r16/Pq349PT1pw4YNeZVx2223pWeffTav+p1++unpvPPOy6uZWp/J6b777surfkcddVS67rrr8ipj4cKFae3atXk10z/+4z+mv/zLv8yrfqOjo2n37t15lfGa17wmdXR05FW/PXv2pJdeeimv+h1++OGpr68vL0qZM2dO2rhxY1716+3tTXfeeWdeZUybNi3t3LkzL0pYuXJluvzyy/Oq3/bt29Opp56aVxnt70dz5849+I+x1i56WvE6VlLrDVF5L6e+04rX/GqU0/oFUXm3uk4rXvNNaLIlS5ZUvj/qOpMmTco3KWfBggWVd2vS2bRpU34aZQwMDFTeq84zPDycb1NGKxwr71XX6erqyjehpPbv5qrXp67T/m5SWvs7WtXdnPpOu1VKarda1b3qPO1mbfNnwwAAAIQnXgEAAAhPvAIAABCeeAUAACA88QoAAEB44hUAAIDwxCsAAADhiVcAAADCE68AAACEJ14BAAAIT7wCAAAQnngFAAAgPPEKAABAeOIVAACA8MQrAAAA4YlXAAAAwhOvAAAAhCdeAQAACE+8AgAAEJ54BQAAIDzxCgAAQHjiFQAAgPDEKwAAAOGJVwAAAMITrwAAAIQnXgEAAAhPvAIAABCeeAUAACA88QoAAEB44hUAAIDwOgYHB8fmzZuXZxlDQ0NpxowZedXv9ttvT9dcc01elPDa1742bdmyJa8y5s+fn9avX59X/Xp6etKGDRvyKmN4eDjt27cvr2aaOnVq6ujoyKt+X/jCF9JNN92UV/0mTpyY7r333rzKuP7669P3v//9vOrX/hl47rnn8ipj06ZNafbs2XnVb82aNenCCy/Mq4xt27alY445Jq/63XzzzQd/Hkvp6upKu3btyotS5syZkzZu3JhX/Xp7e9Odd96ZVxlnnXVWeuaZZ/KihBtvvDFddNFFedVv+/bt6dRTT82rjFazprlz5x78x1hrFz2teB2D0lq/ICrfn3WdVrzmm5TT3d1debcmnZGRkfw0mml4eLjyudR5BgYG8m3KaIVj5b3qPO07lNR+Daru5dR3WvGaXw1Kav9urnp96jrt7yZQWrvVqt6fdZ52s7b5s2EAAADCE68AAACEJ14BAAAIT7wCAAAQnngFAAAgPPEKAABAeOIVAACA8MQrAAAA4YlXAAAAwhOvAAAAhCdeAQAACE+8AgAAEJ54BQAAIDzxCgAAQHjiFQAAgPDEKwAAAOGJVwAAAMITrwAAAIQnXgEAAAhPvAIAABCeeAUAACA88QoAAEB44hUAAIDwxCsAAADhiVcAAADCE68AAACEJ14BAAAIT7wCAAAQnngFAAAgPPEKAABAeOIVAACA8DoGBwfH5s2bl2cZc+fOTV1dXXlBGZs2bUpPP/10XvXr6elJGzZsyKuMmTNnpm3btuVVv3POOSd97GMfy6uMO+64I+3fvz+v+i1YsCB94AMfyKt+zz33XJoyZUpeZQwMDKSFCxfmVb/Nmzens88+O68y2p9Hs2fPzqt+a9asSRdeeGFeZfT396cJEybkVb9169alb37zm3nVr/29aNeuXXmV8dWvfjXdf//9edXvhBNOSF/4whfyKmPOnDlp48aNedXvuOOOK/55BLt3704/+MEP8iqj1awHm7H9j7HWdhyn8GnF61hp3d3dlXer6yxatCjfpJzWF8bKu9V1+vr68k3KGB4errxXnacVr/k2ZbTCsfJedZ72HUpqvwZV96rztN+LJbV/FqvuVddpfxaV1v5MrrpbXaf9O6m09u/mqrs5jlPvaTdrmz8bBgAAIDzxCgAAQHjiFQAAgPDEKwAAAOGJVwAAAMITrwAAAIQnXgEAAAhPvAIAABCeeAUAACA88QoAAEB44hUAAIDwxCsAAADhiVcAAADCE68AAACEJ14BAAAIT7wCAAAQnngFAAAgPPEKAABAeOIVAACA8MQrAAAA4YlXAAAAwhOvAAAAhCdeAQAACE+8AgAAEJ54BQAAIDzxCgAAQHjiFQAAgPDEKwAAAOGJVwAAAMITrwAAAITXsWXLlrFPfepTeQKldHd3p6985St5lTFz5sy0bdu2vOp33nnnpWuuuSavMm644Ya0d+/evOr34Q9/OH3wgx/Mq37PPfdcmjJlSl5lLF26NJ177rl51e/xxx9Pl19+eV5lrFq1Kk2fPj2v+j322GPpW9/6Vl5lXHvttemII47Iq34/+tGP0n333ZdX/Q4//PC0ZMmSvMq48cYb07333ptX/dq/F7du3ZpXGR//+MeL/l4E/teXvvSldOaZZ6aOsZb8vwMarnS8RjAyMpImTJiQV/NEiFfKW7BgQVqzZk1eZUyePDk9//zzedWvHY7Lli3Lq367du1KRx99dF7NFCFegVj82TAAAADhiVcAAADCE68AAACEJ14BAAAIT7wCAAAQnngFAAAgPPEKAABAeOIVAACA8MQrAAAA4YlXAAAAwhOvAAAAhCdeAQAACE+8AgAAEJ54BQAAIDzxCgAAQHjiFQAAgPDEKwAAAOGJVwAAAMITrwAAAIQnXgEAAAhPvAIAABCeeAUAACA88QoAAEB44hUAAIDwxCsAAADhiVcAAADCE68AAACEJ14BAAAIT7wCAAAQnngFAAAgPPEKAABAeB1jLfnfxcyfPz89+eSTeTXTli1b0vjx4/OihE9/+tPpvvvuy6t+Z5xxRvr617+eVxm/+MUv0p49e/Kq3913352uv/76vMo4/fTT0yGHlPvveh/72MfSRz7ykbzqd+DAgfSzn/0srzKuvfbadO+99+bVTP/1X/+VTjvttLzqt2nTprRq1aq8yvj5z39+8P1YypIlS9KyZcvyqt+f//zn9Nhjj+VVRvvzuP25XEp3d3faunVrXmVcdtll6ZFHHsmrmQYHB9OUKVPyqt9tt92W/u3f/i2v+nV2dqaHHnooL4prx2tp06dPbwd0o8/evXvz06CU3t7eytemrtPT05Nv0lz9/f2Vz6ZJp6+vLz+N5lqwYEHls2nSacVjfhplDAwMVN6rSacVr/lpNNeiRYsqn01dpxWv+SbltH83V92tSWfHjh35aZSxfPnyynvVdVrxmm9CBP5sGAAAgPDEKwAAAOGJVwAAAMITrwAAAIQnXgEAAAhPvAIAABCeeAUAACA88QoAAEB44hUAAIDwxCsAAADhiVcAAADCE68AAACEJ14BAAAIT7wCAAAQnngFAAAgPPEKAABAeOIVAACA8MQrAAAA4YlXAAAAwhOvAAAAhCdeAQAACE+8AgAAEJ54BQAAIDzxCgAAQHjiFQAAgPDEKwAAAOGJVwAAAMITrwAAAIQnXgEAAAhPvAIAABBex1hL/ncxM2bMSI8//nhezbR379502GGH5VW/hx9+OP3sZz/Lq5na78Hnnnsur/qdcsop6ZprrsmrjLvvvjv98Y9/zKt+Dz74YOrv78+rmfr6+tLSpUvzqt/o6Ghas2ZNXmU88cQTaXh4OK/6Pf/88+mee+7Jq4xNmzal2bNn51W/zZs3p1WrVuVVxtq1aw++H0tZsmRJWrZsWV7NdMkll6TVq1fnVb/u7u60devWvMqYM2dO2rhxY17NtGPHjjRt2rS86rdixYp09dVX51W/zs7Oop9FbT/5yU8O/m5ssve85z3puOOOS6kdr6VNnz69HdCNPq14zU+jjKuuuqryXk0669aty0+juVpfFCqfjVPfacVrfjXKaEVj5b3qPAMDA/k2ZbTCsfJedZ72HZpu0qRJlc+mrtOK13yT5lq0aFHls6nrtH8nldbT01N5tyadVrzmp1HG8uXLK+9V12nFa75JOYsXL668W5PO4ODgwWfhz4YBAAAIT7wCAAAQnngFAAAgPPEKAABAeOIVAACA8MQrAAAA4YlXAAAAwhOvAAAAhCdeAQAACE+8AgAAEJ54BQAAIDzxCgAAQHjiFQAAgPDEKwAAAOGJVwAAAMITrwAAAIQnXgEAAAhPvAIAABCeeAUAACA88QoAAEB44hUAAIDwxCsAAADhiVcAAADCE68AAACEJ14BAAAIT7wCAAAQnngFAAAgPPEKAABAeOIVAACA8MQrAAAA4YlXAAAAwusYa8n/Luall15KBw4cyKuZTjrppDQ6OppX/T7zmc+kK664Iq9m+uhHP5q++93v5lW/t73tbenee+/Nq4yZM2embdu25UUJfX19aenSpXnVr/0rYffu3XmVccQRR6RDDz00r/q1fx+1fy+VdOSRR6Zx48blVb877rgjXXbZZXmV8dhjj6Vjjjkmr/oddthhB0+TXXLJJWn16tV51a+7uztt3bo1rzJefvnl9Morr+RVv7vvvjtdfPHFeZWxY8eONG3atLzqt2/fvrR379686tf+v3/iiSfmVcaNN96YLrroorzq94tf/CLNmjUrrzIGBwfT3LlzD35RIYDOzs72f0QodpYvX55v0ly9vb2Vz6au09PTk29STuuLQuXdnPpOK17zqwHlDAwMVL4/6zzDw8P5NpSyaNGiytemrtP+ndR069atq3w2dZ5WvObbNFMrnCufS51n5cqV+TZlDA0NVd6rztOK14N38WfDAAAAhCdeAQAACE+8AgAAEJ54BQAAIDzxCgAAQHjiFQAAgPDEKwAAAOGJVwAAAMITrwAAAIQnXgEAAAhPvAIAABCeeAUAACA88QoAAEB44hUAAIDwxCsAAADhiVcAAADCE68AAACEJ14BAAAIT7wCAAAQnngFAAAgPPEKAABAeOIVAACA8MQrAAAA4YlXAAAAwhOvAAAAhCdeAQAACE+8AgAAEJ54BQAAIDzxCgAAQHjiFQAAgPA6fv3rX4+tXr06zzI+8YlPpMmTJ+fVTJ///OfTK6+8klf9zj333PTWt741r2Zat25devzxx/Oq39jYWNq/f39eZfznf/5nevbZZ/Oq35vf/Ob0/ve/P68yPve5z6XR0dG86tfX15eWLl2aF031ta99Le3YsSOv+o0bN+7gKemf//mf0xFHHJFX87Q/h2644Ya8yvjOd76Ttm3bllf9/uIv/iJ95CMfyauZnnjiiYPfT0r65Cc/mbq6uvJqno6OjjR+/Pi8ynjve9+b3vKWt+RVv+effz6tXLkyrzIuuuiidMIJJ6SOwcHBsXnz5uX/dRlDQ0NpxowZeUEzbdiwIb3jHe/Iq5kWLVqUbr311rzKmDBhQtq9e3de9ROvtM2ePTs99NBDedVvwYIFac2aNXlRwq5du9LRRx+dF1BKZ2dn0f+ozf+fPxsGAAAgPPEKAABAeOIVAACA8MQrAAAA4YlXAAAAwhOvAAAAhCdeAQAACE+8AgAAEJ54BQAAIDzxCgAAQHjiFQAAgPDEKwAAAOGJVwAAAMITrwAAAIQnXgEAAAhPvAIAABCeeAUAACA88QoAAEB44hUAAIDwxCsAAADhiVcAAADCE68AAACEJ14BAAAIT7wCAAAQnngFAAAgPPEKAABAeOIVAACA8MQrAAAA4YlXAAAAwhOvAAAAhNcxODg4Nm/evDzLePDBB9PJJ5+cFzTTI488ki6++OK8ynjhhRfSgQMH8qrfggUL0s0335xXGSeeeGJ68cUX86pfX19fWrp0aV401V/91V8d/Ewo5fzzz08rVqzIq4xJkyaljo6OvJqn/Tl0wgkn5FXG7t270+joaF401THHHJMOOaTc/79rz5496aWXXsqrfp2dncV/DtqfB+3nUMqhhx6aJk6cmFdh7Xht/Q/HcQqfnp6esdK6u7sr7+bUd1rxml8NKGdgYKDy/VnnGR4ezrehlEWLFlW+Nk6zzo4dO/I7oozly5dX3quu04rXfJNyFi9eXHm3us706dPzTcrzZ8MAAACEJ14BAAAIT7wCAAAQnngFAAAgPPEKAABAeOIVAACA8MQrAAAA4YlXAAAAwhOvAAAAhCdeAQAACE+8AgAAEJ54BQAAIDzxCgAAQHjiFQAAgPDEKwAAAOGJVwAAAMITrwAAAIQnXgEAAAhPvAIAABCeeAUAACA88QoAAEB44hUAAIDwxCsAAADhiVcAAADCE68AAACEJ14BAAAIT7wCAAAQnngFAAAgPPEKAABAeOIVAACA8MQrAAAA4XUMDg6OzZs3L89meve7350uvfTSvMr40Ic+lF555ZW8KOHKK69MZ511Vl71+9Of/pR+/OMf51XGnDlz0oQJE/Kq34YNG9Itt9ySVzP19fWlpUuX5kUJTz75ZPHXYNmyZemkk07Kq35r1qxJF154YV5lDA8Pp8mTJ+dVv7vuuivdcccdeTXTzJkz07Rp0/JqpvbP4hNPPJFX/drfS9rfT0p6//vfn171qlflVb8VK1akq6++Oq/6dXZ2ptHR0bzK2LJlS/rVr36VV/1efPHF9KMf/SivMq699tp02mmnpdSO19Zu9Fm8ePFYaa0fjMq7OfWddevW5VejjAceeKDyXnWeRx99NN+mjP7+/sp7Nem04jU/DUrZtGlT5WtT52nfoaSBgYHKe9V5WvGab1NG+2ex6l5NOu3P5Kbr6empfDZ1nd7e3nyT5lq+fHnls6nrtL+jN93Q0FDls6nztJu1zZ8NAwAAEJ54BQAAIDzxCgAAQHjiFQAAgPDEKwAAAOGJVwAAAMITrwAAAIQnXgEAAAhPvAIAABCeeAUAACA88QoAAEB44hUAAIDwxCsAAADhiVcAAADCE68AAACEJ14BAAAIT7wCAAAQnngFAAAgPPEKAABAeOIVAACA8MQrAAAA4YlXAAAAwhOvAAAAhCdeAQAACE+8AgAAEJ54BQAAIDzxCgAAQHjiFQAAgPDEKwAAAOGJVwAAAMLr2Lx589jHP/7xPJupt7c3XX311XmV0dPTk/bt25cXJVx22WWpu7s7r/o9+eST6eabb86rjNtvvz294Q1vyKt+99xzT1q2bFlezbR48eJ06aWX5tVM7Z+F559/Pq/6/f73v09f/OIX8yqjv78/nXrqqXnVb3BwMC1dujSvMj7/+c+nI488Mq/6tV+Dr33ta3k105IlS9L555+fV/3ar/9pp52WVxmXX355evTRR/Oq38yZM4v/Tnjzm9+cOjs786rfihUrin5PHz9+fNq4cWNeZZxwwglpypQpedVv+/btRX8ntbV/L82dOzd1jLXk/x002vz589P69evzql/7P2Bs2LAhL2iuhQsXprVr1+ZVv1mzZqXNmzfnRSmTJ08u+h8xKK/9H5S3bt2aVzPdeeed6QMf+EBeZezYsSNNmzYtr/qVjtcIVq5cefA/pJQSKV792TAAAADhiVcAAADCE68AAACEJ14BAAAIT7wCAAAQnngFAAAgPPEKAABAeOIVAACA8MQrAAAA4YlXAAAAwhOvAAAAhCdeAQAACE+8AgAAEJ54BQAAIDzxCgAAQHjiFQAAgPDEKwAAAOGJVwAAAMITrwAAAIQnXgEAAAhPvAIAABCeeAUAACA88QoAAEB44hUAAIDwxCsAAADhiVcAAADCE68AAACEJ14BAAAIT7wCAAAQnngFAAAgPPEKAABAeB1jLfnfFNTT05P27duXFyVcdtllqbu7O6/6TZgwIU2fPj2vMi6++OL0y1/+Mq9m+uEPf5iOOOKIvOr3ta99LX3961/Pq34TJ05M3/ve9/IqY+HChWnt2rV51e/II49Mp556al5l9Pf3F79DaT/96U/T/v3786pf+zVo/zxSTvuz+LTTTsurmWbOnJkuvfTSvMq47rrr0v/8z//kVb9nnnkm7dixI6/6jR8/Pm3cuDGvMk444YQ0ZcqUvOq3Z8+e9Nhjj+VVRvs7cvu7sngN4rDDDhOvha1bty7Nnz8/r2Zq/5Lctm1bXs00MjJy8MOxlKVLl6Ybbrghr/pNmjQpPffcc3mVUTpeI9i0aVOaPXt2XpSwbNmyg1/aoaTe3t5055135lXGtGnT0s6dO/Nqns7OzjQ6OpoXpfmzYQAAAMITrwAAAIQnXgEAAAhPvAIAABCeeAUAACA88QoAAEB44hUAAIDwxCsAAADhiVcAAADCE68AAACEJ14BAAAIT7wCAAAQnngFAAAgPPEKAABAeOIVAACA8MQrAAAA4YlXAAAAwhOvAAAAhCdeAQAACE+8AgAAEJ54BQAAIDzxCgAAQHjiFQAAgPDEKwAAAOGJVwAAAMITrwAAAIQnXgEAAAhPvAIAABCeeAUAACA88QoAAEB4Hc8888zY/fffn2czveENb0hnnXVWXmV86EMfSvv378+LEs4888x07LHH5lW/KVOmpHPPPTevMq699tr0u9/9Lq/6/eY3v0mbN2/Oq4yRkZE0YcKEvOq3dOnSdMMNN+RVv0mTJqXnnnsurzIWLlyY1q5dm1cz9fX1pZNOOikvSrjrrrvSunXr8qrfoYcemv72b/82rzLan8ftz+VSXv3qV6fzzjsvrzLuu+++op+J7e+nV155ZV5l/Pd//3fas2dPXs0zfvz4dNttt+VVxpYtW9KvfvWrvJrpXe961/9+Tx8cHBxr7UafxYsXj0Fvb2/l+6Ou09PTk2/SXP39/ZXPps7Titd8mzKWLFlSea+6Tite803KWbBgQeXdHKdJp6urK/9ElLNo0aLKu9V1uru7803Kaf9urrpbk86OHTvy06CUdqtUvTZNOu1mbfNnwwAAAIQnXgEAAAhPvAIAABCeeAUAACA88QoAAEB44hUAAIDwxCsAAADhiVcAAADCE68AAACEJ14BAAAIT7wCAAAQnngFAAAgPPEKAABAeOIVAACA8MQrAAAA4YlXAAAAwhOvAAAAhCdeAQAACE+8AgAAEJ54BQAAIDzxCgAAQHjiFQAAgPDEKwAAAOGJVwAAAMITrwAAAIQnXgEAAAhPvAIAABCeeAUAACA88QoAAEB44hUAAIDwxCsAAADhdQwODo7NmzcvzzIefPDBdPLJJ+dVv29961vpX//1X/MqY+fOnamzszOv+vX19aWvfOUredXvuOOOS9u2bcurjF27dqXR0dG86vfII4+kiy++OK8yfvjDH6bTTjstr/q1n3/7dShp1qxZ6cUXX8yrfi+//PLBU0pHR0d6zWtek1cZu3fvLvqz+Ja3vCV973vfy6uZ1q9fny6//PK8ynj88ceLvhe/9KUvpRtvvDGv+nV1dRX/PGz/LO7duzev+j3xxBOpt7c3rzJGRkbS/v3786rf+eefn/r7+/Mqo/1zeMgh5f7/Xf/+7/+ePvvZz+ZVv8MOOyw99dRTeZXR/l6yZ8+evOr3y1/+Mr397W/Pq4xWs6a5c+ce/MdYaxc9Q0NDYyWtXLmy8l51ntYvh3ybMq666qrKe9V1pk6dmm/SXA888EDls6nzPProo/k2zdX6wlj5bJzmnFmzZuV3Q3MNDAxUPps6z/DwcL5NGX19fZX3quu0P4uarv07qerZNOm04j0/jeZavnx55bOp63R2duabNFe71aqeTZ2n3axt/mwYAACA8MQrAAAA4YlXAAAAwhOvAAAAhCdeAQAACE+8AgAAEJ54BQAAIDzxCgAAQHjiFQAAgPDEKwAAAOGJVwAAAMITrwAAAIQnXgEAAAhPvAIAABCeeAUAACA88QoAAEB44hUAAIDwxCsAAADhiVcAAADCE68AAACEJ14BAAAIT7wCAAAQnngFAAAgPPEKAABAeOIVAACA8MQrAAAA4YlXAAAAwhOvAAAAhCdeAQAACE+8AgAAEF7Hr3/967HVq1fnWcYnPvGJNHny5Lzqt2rVqnTFFVfkVcb111+fxo0bl1f9BgcH04MPPphX/SZMmJA+/elP59VMY2Njaf/+/XmVMX78+NTR0ZFXM7Vfg/ZrUcoDDzyQNm7cmBclTJs2LX30ox/Nq4zLLrssHXfccXnVb82aNenCCy/Mq4zh4eGi3w3aP4v33XdfXvVrfxa3P5NLuuCCC1J3d3de9fvDH/6QvvrVr+bVTKeeemr6+7//+7zKuPnmm9OuXbvyql/7+2n7e2op7e/n7e/pJb33ve9Nb3nLW/Kq3/bt2w++F0tqvwfmzp178Atz461cubL9TdVxip6enp78jiyn9SWl8m5NOiMjI/lplLFkyZLKeznNOps2bcrviDIGBgYq71XnacVrvk0ztT+Lqp5Lnae/vz/fhiabOnVq5fvDqe+0W6WkoaGhynvVeVrxevAu/mwYAACA8MQrAAAA4YlXAAAAwhOvAAAAhCdeAQAACE+8AgAAEJ54BQAAIDzxCgAAQHjiFQAAgPDEKwAAAOGJVwAAAMITrwAAAIQnXgEAAAhPvAIAABCeeAUAACA88QoAAEB44hUAAIDwxCsAAADhiVcAAADCE68AAACEJ14BAAAIT7wCAAAQnngFAAAgPPEKAABAeOIVAACA8MQrAAAA4YlXAAAAwhOvAAAAhCdeAQAACE+8AgAAEF7HK6+8MvbSSy/l2Uz9/f3pn/7pn/Iqo6urK/+rmcbGxtKLL76YVxmvetWr0qGHHppX/c4+++y0bt26vMp4z3vek4aGhvKq3/79+9PevXvzKuOpp54q+vP4uc99Lq1YsSKvZir9s3jgwIH08ssv51XG/fffn84444y86nfHHXekD3/4w3mVMTw8nCZPnpxX/fbt21f082j37t1p2rRpeZXxH//xH+nCCy/MixLGjx9/8DOxpOnTp6edO3fmVb/2z+Lo6GheZZT+nn7jjTemiy66KK/6/epXv0rnnHNOXmV8+9vf/t87DA4OjrW2U/i0fkG2+q25duzYUflc6jytcMy3KeOBBx6ovFed59FHH823KaO/v7/yXk6zzsDAQH5HlLFp06bKezn1nla85lekjL6+vsp7OU6dp7e3N78jm2v58uWVz6au09nZmW9SzuLFiyvvVteZPn16vkl5/mwYAACA8MQrAAAA4YlXAAAAwhOvAAAAhCdeAQAACE+8AgAAEJ54BQAAIDzxCgAAQHjiFQAAgPDEKwAAAOGJVwAAAMITrwAAAIQnXgEAAAhPvAIAABCeeAUAACA88QoAAEB44hUAAIDwxCsAAADhiVcAAADCE68AAACEJ14BAAAIT7wCAAAQnngFAAAgPPEKAABAeOIVAACA8MQrAAAA4YlXAAAAwhOvAAAAhCdeAQAACE+8AgAAEJ54BQAAILyOnTt3jn3/+9/Ps5l+9KMfpW984xt5lbF379502GGH5VW/O+64I333u9/Nq34vv/xy+ta3vpVXGeecc046/vjj86rfs88+m+699968yrjgggvSMccck1f9jj322HTyySfnVcY//MM/HPx5LOX9739/+uu//uu86rd79+70yU9+Mq8y5syZk0488cS86jdhwoQ0c+bMvJpp8+bN6ZZbbsmrjOHh4TR58uS86rdt27b005/+NK/6tT+H2p9HNFv7e0n7+0mT/fznP08PP/xwXvXr7OxMo6OjeZVx+eWXF/1Mnj59etq+fXtehY0xtnLlyrH2oyh5Wr+k8m3KuOqqqyrv5Th1nkWLFuV3ZDldXV2Vd6vr9PX15ZuU0QqGyns16cyaNSs/jeYaGBiofDZ1nvZ7sclGRkYqn4vjOPWeVrzmn8pyFi9eXHm3uk4rXvNNyvNnwwAAAIQnXgEAAAhPvAIAABCeeAUAACA88QoAAEB44hUAAIDwxCsAAADhiVcAAADCE68AAACEJ14BAAAIT7wCAAAQnngFAAAgPPEKAABAeOIVAACA8MQrAAAA4YlXAAAAwhOvAAAAhCdeAQAACE+8AgAAEJ54BQAAIDzxCgAAQHjiFQAAgPDEKwAAAOGJVwAAAMITrwAAAIQnXgEAAAhPvAIAABCeeAUAACA88QoAAEB44hUAAIDwOsZa8r8ba926demGG27Iq4wtW7ak8ePH51W/m266Ka1evTovmuoXv/hF2rt3b171u+CCC9JnP/vZvMq44oor0p49e/Kq38c+9rH0kY98JK/6vfDCC+mcc87Jq5lOOumktHTp0rya6d57703XXnttXmXcf//9aeLEiXnV79hjjz14SnnppZfS2972trzK2LFjR/rTn/6UV/0OP/zwdMopp+RFKdu3b0/79+/Pq3k6OzvT6OhoXmVcfvnl6ZZbbsmrfieeeGK688478yrj9a9/fTrqqKPEK/D/mjlzZtq2bVtezTQyMpImTJiQF020efPmdPbZZ+dFUy1ZsiQtW7Ysr2a65JJLiv6H7e7u7rR169a8KGXatGlp586deTWPeI1hcHAwzZ07158NAwAAEJ94BQAAIDzxCgAAQHjiFQAAgPDEKwAAAOGJVwAAAMITrwAAAIQnXgEAAAhPvAIAABCeeAUAACA88QoAAEB44hUAAIDwxCsAAADhiVcAAADCE68AAACEJ14BAAAIT7wCAAAQnngFAAAgPPEKAABAeOIVAACA8MQrAAAA4YlXAAAAwhOvAAAAhCdeAQAACE+8AgAAEJ54BQAAIDzxCgAAQHjiFQAAgPDEKwAAAOGJVwAAAMITrwAAAITXsWXLlrFPfepTeQKldHd3p6985St5lfHTn/40vfjii3k10w033JD27t2bF020e/futHXr1rya6dxzz01Lly7Nq5mOP/74g6fJLrnkkrR69eq86tf+vVj6Z/HjH/942rZtW171e8c73pGWLVuWVxnTpk1LO3fuzKt5Ojo60tvf/va8ynjf+96XzjrrrLzq9/vf/z598IMfzKuMwcHBNHfu3IP/GGttx3EKn56enjHK6+rqqnx9HKdJZ8GCBfkngiZbtGhR5fujrtOK13yTctq/m6vuVtfp7e3NNyln6tSplXdz6jsrV67Mr0YZQ0NDlfeq87Sbtc2fDQMAABCeeAUAACA88QoAAEB44hUAAIDwxCsAAADhiVcAAADCE68AAACEJ14BAAAIT7wCAAAQnngFAAAgPPEKAABAeOIVAACA8MQrAAAA4YlXAAAAwhOvAAAAhCdeAQAACE+8AgAAEJ54BQAAIDzxCgAAQHjiFQAAgPDEKwAAAOGJVwAAAMITrwAAAIQnXgEAAAhPvAIAABCeeAUAACA88QoAAEB44hUAAIDwxCsAAADhiVcAAADC6xgcHBybN29enmXMnTs3dXV15QVlbNq0KT399NN51a+npydt2LAhr2b6/e9/nx5++OG8yrj44ovTnj178qrfjBkz0hvf+Ma8mmnLli1px44dedVv4sSJ6ZxzzsmrjB/+8IfphRdeyKt+CxYsSGvWrMmrjHvuuSeNjo7mVb/p06cf/Hks5ZVXXknf/va38yrjq1/96sH3Yind3d1p69ateZWxdOnStH379rzq99a3vjV9+tOfzquMadOmpZ07d+bVPIccckj6m7/5m7zKmDVrVnr961+fV/127dp18DO5pOuvvz696U1vSqkdr61d9AwNDY1Bab29vZXvz7pOK17zTZqrv7+/8tk06fT19eWn0VytcKp8NnWd1peEfJNy2neoultdp/0alDZp0qTKu9V1lixZkm9SxsjISOW9mnRa8ZqfBiVNnTq18vVpyuns7MxPopzFixdX3q2uM3369HyT8vzZMAAAAOGJVwAAAMITrwAAAIQnXgEAAAhPvAIAABCeeAUAACA88QoAAEB44hUAAIDwxCsAAADhiVcAAADCE68AAACEJ14BAAAIT7wCAAAQnngFAAAgPPEKAABAeOIVAACA8MQrAAAA4YlXAAAAwhOvAAAAhCdeAQAACE+8AgAAEJ54BQAAIDzxCgAAQHjiFQAAgPDEKwAAAOGJVwAAAMITrwAAAIQnXgEAAAhPvAIAABCeeAUAACA88QoAAEB4HYODg2Pz5s3Ls4yhoaE0Y8aMvOp3++23p2uuuSYvSnjta1+btmzZklcZ8+fPT+vXr8+rfj09PWnDhg15NdOtt96aLr300ryaacKECamrqyuv+r3mNa9J27Zty6uMhQsXprVr1+ZVv87OzjR58uS8yujv7y/6e/GII45IxxxzTF5ltF+D559/Pq/6LVmyJC1btiyv+u3atSsdffTReTXT+PHj05QpU/KilD/84Q/pwIEDedXviiuuSNdee21e9evo6EhTp07Nq4zLL7883XLLLXnVb/r06Wn79u15FdaO19b/KHpa8TpW0sqVKyvv5dR3Wh8K+dUop7e3t/JudZ1WvOabNFfrC3vls3HqO5MmTcqvRjkLFiyovFuTzqZNm/LTaK72e7Hq2dR1WvGab1LGyMhI5b0cp2nnqquuyj8VzbV48eLKZ1PXacVrvkl5/mwYAACA8MQrAAAA4YlXAAAAwhOvAAAAhCdeAQAACE+8AgAAEJ54BQAAIDzxCgAAQHjiFQAAgPDEKwAAAOGJVwAAAMITrwAAAIQnXgEAAAhPvAIAABCeeAUAACA88QoAAEB44hUAAIDwxCsAAADhiVcAAADCE68AAACEJ14BAAAIT7wCAAAQnngFAAAgPPEKAABAeOIVAACA8MQrAAAA4YlXAAAAwhOvAAAAhCdeAQAACE+8AgAAEF7H4ODg2Lx58/IsY2hoKM2YMSOv+q1atSpdccUVeVHC1KlT01NPPZVXGfPnz0/r16/Pq349PT1pw4YNeTXTrbfemi699NK8yvjkJz+ZOjs782qeo446Kl133XV5lbFw4cK0du3avJpp06ZNafbs2Xk10+TJk9Pzzz+fV/2WLFmSli1bllf9du3alY4++ui8yjjvvPPSaaedllf9hoeH02233ZZXGQsWLEjTpk3Lq36//OUv07e//e28mumqq65KK1asyKt+Bw4cSF/84hfzKuOuu+46+HuhlOnTp6ft27fnVVg7Xlv/o+hpxetYSStXrqy8l1PfacVrfjXK6e3trbxbXacVr/kmzdXf31/5bOo8IyMj+TaU0vqyWPnaNOm0vqTkp9FckyZNqnw2dZ1WvOablNH+LKq6V52n/Zlc0qOPPlp5rzrPAw88kG9Txrp16yrv1aTTitf8NMrYu3dv5b2adFrxmp9Gef5sGAAAgPDEKwAAAOGJVwAAAMITrwAAAIQnXgEAAAhPvAIAABCeeAUAACA88QoAAEB44hUAAIDwxCsAAADhiVcAAADCE68AAACEJ14BAAAIT7wCAAAQnngFAAAgPPEKAABAeOIVAACA8MQrAAAA4YlXAAAAwhOvAAAAhCdeAQAACE+8AgAAEJ54BQAAIDzxCgAAQHjiFQAAgPDEKwAAAOGJVwAAAMITrwAAAIQnXgEAAAhPvAIAABCeeAX+z/79+9Po6GixMzY2ljo7O4uejo6O/DSaq+q1qfP8+c9/zjdprtI/i6+88kq+SXMdOHCg8tnUdfbt21f5GVXnaX8mV92trtP+OQDKK/1Z0D7tOxw0ODjY/lfRMzQ01LpPOStXrqy8l1PfmTp1an41yunt7a28W12np6cn36Sc7u7uyrvVdRYtWpRvQinDw8OVr43TrLNgwYL8jihn0qRJlXdryunq6spPopz2Z3LV3Zp0Hnjggfw0yli3bl3lvZp0rrrqqvw0yti7d2/lvZx6T7tZ2/x/XgEAAAhPvAIAABCeeAUAACA88QoAAEB44hUAAIDwxCsAAADhiVcAAADCE68AAACEJ14BAAAIT7wCAAAQnngFAAAgPPEKAABAeOIVAACA8MQrAAAA4YlXAAAAwhOvAAAAhCdeAQAACE+8AgAAEJ54BQAAIDzxCgAAQHjiFQAAgPDEKwAAAOGJVwAAAMITrwAAAIQnXgEAAAhPvAIAABCeeAUAACA88QoAAEB44hUAAIDwxCsAAADhiVcAAADC6xgcHBybN29enmUMDQ2lGTNm5FW/7du3pw0bNuRFCUcddVS66KKL8ipj/vz5af369XnVr6enp/j7cObMmWnbtm151e+UU05J73znO/Mq46abbkqHH354Xs3z3HPPpSlTpuRVxqWXXprOOuusvOr3u9/9Li1fvjyvMq6++ur0ute9Lq/6veENb0jvfve78yrjtttuS3v27Mmrft/97nfTd77znbzq19XVlXbt2pVXGZdccklavXp1XvWbNm1a+sxnPpNXGe973/vSa1/72rzq99vf/jZ9//vfz6uZhoeH09NPP51X/Q455JD0pje9KS9KOf/88w9+JohXyMRr+XiNYGRkJE2YMCGv5okQrwMDA2nhwoV51W/z5s3p7LPPzquMTZs2pdmzZ+dFCcuWLUvXXXddXvUTryl1d3enrVu35kVTrVix4uB/0Culs7MzjY6O5kVp/mwYAACA8MQrAAAA4YlXAAAAwhOvAAAAhCdeAQAACE+8AgAAEJ54BQAAIDzxCgAAQHjiFQAAgPDEKwAAAOGJVwAAAMITrwAAAIQnXgEAAAhPvAIAABCeeAUAACA88QoAAEB44hUAAIDwxCsAAADhiVcAAADCE68AAACEJ14BAAAIT7wCAAAQnngFAAAgPPEKAABAeOIVAACA8MQrAAAA4YlXAAAAwhOvAAAAhCdeAQAACE+8AgAAEF7H4ODg2Lx58/Is4+67704nnXRSXlDGlVdemX7wgx/kVb+enp60YcOGvMqYP39+evzxx/Oq38jISHr66afzKuOhhx5KRx55ZF7N88ILL6S3v/3teZUxMDCQFi5cmFf9fvazn6W/+7u/y6uMG2+8Mb3+9a/Pq5lOOeWUNG7cuLzqt2rVqvTlL385r/odddRRBz+PSrrkkkvS6tWr86rfG9/4xnTnnXfmVcbrXve6dMQRR+RVv927d6cdO3bk1Uz9/f3pi1/8Yl716+zsTKOjo3k10759+9Kvf/3rvMo4/vjj//f7WTteW9txnMKnFa9jTdf6BVX5bJxmnVa85ndEc82aNavy2TTpDA8P56dBKYsWLap8bZp0Hnjggfw0yli3bl3lvZz6Tite86vRXENDQ5XPps7TbtY2fzYMAABAeOIVAACA8MQrAAAA4YlXAAAAwhOvAAAAhCdeAQAACE+8AgAAEJ54BQAAIDzxCgAAQHjiFQAAgPDEKwAAAOGJVwAAAMITrwAAAIQnXgEAAAhPvAIAABCeeAUAACA88QoAAEB44hUAAIDwxCsAAADhiVcAAADCE68AAACEJ14BAAAIT7wCAAAQnngFAAAgPPEKAABAeOIVAACA8MQrAAAA4YlXAAAAwhOvAAAAhCdeAQAACE+8AgAAEF7HH//4x7FHHnkkT6CUiRMnpjPPPDOvZnr66afT0NBQXjTV6aefno499ti8mumhhx5KIyMjeTXTO9/5zjR+/Pi8KGH79u1p586deTXTWWedlV796lfnVb/h4eG0bdu2vCjhkEMOSe9+97vzaqaXXnop/fjHP86rjDPOOCMdc8wx6f8BWeiSmU9o2j4AAAAASUVORK5CYII=;" parent="1" vertex="1">
          <mxGeometry x="325.94000000000005" y="-1024.82" width="110.11" height="110" as="geometry" />
        </mxCell>
        <mxCell id="dHE7tIidJEhlcoBUh_R6-64" value="&lt;font face=&quot;Verdana&quot;&gt;My Master Profile Code&lt;/font&gt;" style="text;html=1;strokeColor=none;fillColor=none;align=center;verticalAlign=middle;whiteSpace=wrap;rounded=0;fontStyle=1" parent="1" vertex="1">
          <mxGeometry x="302" y="-913.9" width="162" height="20" as="geometry" />
        </mxCell>
        <mxCell id="dHE7tIidJEhlcoBUh_R6-17" value="" style="rounded=1;whiteSpace=wrap;html=1;" parent="1" vertex="1">
          <mxGeometry x="-160.34" y="-1315.82" width="280" height="480" as="geometry" />
        </mxCell>
        <mxCell id="dHE7tIidJEhlcoBUh_R6-18" value="" style="ellipse;whiteSpace=wrap;html=1;" parent="1" vertex="1">
          <mxGeometry x="-38.392631578947345" y="-882.8757377049179" width="36.10526315789473" height="39.18688524590165" as="geometry" />
        </mxCell>
        <mxCell id="dHE7tIidJEhlcoBUh_R6-19" value="" style="rounded=0;whiteSpace=wrap;html=1;" parent="1" vertex="1">
          <mxGeometry x="-141.6757894736842" y="-1296.9977049180327" width="242.66421052631577" height="406.09573770491806" as="geometry" />
        </mxCell>
        <mxCell id="dHE7tIidJEhlcoBUh_R6-62" value="Vaccines" style="rounded=0;whiteSpace=wrap;html=1;" parent="1" vertex="1">
          <mxGeometry x="-140.67999999999998" y="-1296" width="241.34" height="24" as="geometry" />
        </mxCell>
        <mxCell id="dHE7tIidJEhlcoBUh_R6-63" value="" style="shape=image;verticalLabelPosition=bottom;labelBackgroundColor=#ffffff;verticalAlign=top;aspect=fixed;imageAspect=0;image=data:image/png,iVBORw0KGgoAAAANSUhEUgAAA68AAAOuCAYAAADoxCFMAAAABGdBTUEAALGPC/xhBQAAACBjSFJNAAB6JgAAgIQAAPoAAACA6AAAdTAAAOpgAAA6mAAAF3CculE8AAAACXBIWXMAAA7EAAAOxAGVKw4bAAAAAmJLR0QA/4ePzL8AAAAHdElNRQfkBQgJAzE5dzzdAAAAJXRFWHRkYXRlOmNyZWF0ZQAyMDIwLTA1LTA4VDA5OjAzOjQ5KzAwOjAwPHWOxQAAACV0RVh0ZGF0ZTptb2RpZnkAMjAyMC0wNS0wOFQwOTowMzo0OSswMDowME0oNnkAADnzSURBVHhe7dp/kJ1lfcf9awlZENhgMEmRpIOAggngRoEERzeKklhGinVjp00ADaAGalVqpTCYQN3gSDJqQWsT7LgEyyaOhDAiI7pSlITRhIAk6Ab8gT8mBGRB6SZAsglxn3PSa/o8z8z99319Z+7Xa+aa5tN/es19zp49b7odf/zjH8ceeeSRBJQ1ceLEdOaZZ+bVTE8//XQaGhrKq4x3vetdady4cXnV78knn0y/+c1v8qpfZ2dnesc73pEXpTz00ENpZGQkr2Z65zvfmcaPH59X8xw4cCDdf//9eTVTV1dXOvvss/Mq4+GHH04vvPBCXkApZ5xxRjrmmGNSGhwcHGttx3EKn56enrGm6+/vr3w2dZ5WMOTblLFkyZLKe9V1Jk2alG9CSbNmzap8fZp0hoeH89NopvZnUdVzadLp7u7OT6Oc9u/mqrs5jlPvaTdr2yGtAQAAAKGJVwAAAMITrwAAAIQnXgEAAAhPvAIAABCeeAUAACA88QoAAEB44hUAAIDwxCsAAADhiVcAAADCE68AAACEJ14BAAAIT7wCAAAQnngFAAAgPPEKAABAeOIVAACA8MQrAAAA4YlXAAAAwhOvAAAAhCdeAQAACE+8AgAAEJ54BQAAIDzxCgAAQHjiFQAAgPDEKwAAAOGJVwAAAMITrwAAAIQnXgEAAAhPvAIAABCeeAUAACA88QoAAEB4HYODg2Pz5s3Ls4y77747nXTSSXlBGVdeeWX6wQ9+kFf9enp60oYNG/JqpltvvTVdeumleZVxyimnpEMOKfff9RYsWJDmz5+fV/0OPfTQdPLJJ+dVxr/8y7+ke+65J6/6velNb0rf/OY38ypj9uzZ6aGHHsqrfu9973vTihUr8iqj/bM4bty4vOq3atWq9OUvfzmv+h1xxBHpG9/4Rl5lLFmyJN1111151a+7uztt3bo1rzLmzJmTNm7cmFf95s6dm2666aa8oIwnn3wyXXDBBXmV0WrWgz8P7X+MtXbRMzQ0NAal9fb2Vr4/6zqteM03aa7+/v7KZ9Ok09fXl59Gc7UCvvLZ1HVmzZqVb1JO+w5Vd6vrtF+Dpmv/LFY9m7pOV1dXvkk5ixYtqrxbXacVr/km5bR/N1fdra7T/m4CpbVbrer9WedpN2ubPxsGAAAgPPEKAABAeOIVAACA8MQrAAAA4YlXAAAAwhOvAAAAhCdeAQAACE+8AgAAEJ54BQAAIDzxCgAAQHjiFQAAgPDEKwAAAOGJVwAAAMITrwAAAIQnXgEAAAhPvAIAABCeeAUAACA88QoAAEB44hUAAIDwxCsAAADhiVcAAADCE68AAACEJ14BAAAIT7wCAAAQnngFAAAgPPEKAABAeOIVAACA8MQrAAAA4YlXAAAAwhOvAAAAhNcxODg4Nm/evDzLGBoaSjNmzMirftu3b08bNmzIixKOOuqodNFFF+VVxvz589P69evzql9PT0/j34c/+clP0m233ZZXGf39/Wn//v151a+vry8tXbo0r2ZauHBhWrt2bV71mzVrVtq8eXNeZSxfvjz99re/zat+EydOTMcff3xezfTss8+mZ555Jq/6jRs3Lp1++ul5lfGNb3zj4OdyKd3d3Wnr1q15lTFnzpy0cePGvOrX29ub7rzzzrzKuP3229OLL76YFyW034elW+nUU0/Nq4xWs6a5c+ce/MdYaxc9rXgdK2nlypWV93LqO1OnTs2vRjmtXxCVd6vrtOI134SSurq6Kl+fuk4rXvNNmmvBggWVz6au04rXfJPmGhgYqHw2TTpLlizJT6OMkZGRyns16bTiNT+Nctq/m6vuVtdpfzcprf0drepuTn2n3SoltVut6l51nnaztvmzYQAAAMITrwAAAIQnXgEAAAhPvAIAABCeeAUAACA88QoAAEB44hUAAIDwxCsAAADhiVcAAADCE68AAACEJ14BAAAIT7wCAAAQnngFAAAgPPEKAABAeOIVAACA8MQrAAAA4YlXAAAAwhOvAAAAhCdeAQAACE+8AgAAEJ54BQAAIDzxCgAAQHjiFQAAgPDEKwAAAOGJVwAAAMITrwAAAIQnXgEAAAhPvAIAABCeeAUAACA88QoAAEB44hUAAIDwxCvwf2bNmpUOO+ywYuejH/1ovkk5zz//fNq7d2+xc+211+abUMqWLVsq359NOvfee2/l+7POM2nSpPyKNNOECRMqn0uTTvtnEeD/S7wC/2ffvn1Fz/79+/NNyuns7Kz8Ml/XGTduXL4JpYyNjVW+P5t0Dhw4UPn+rPOQKp9Lk8748ePzkwD4X+IVAACA8MQrAAAA4YlXAAAAwhOvAAAAhCdeAQAACE+8AgAAEJ54BQAAIDzxCgAAQHjiFQAAgPDEKwAAAOGJVwAAAMITrwAAAIQnXgEAAAhPvAIAABCeeAUAACA88QoAAEB44hUAAIDwxCsAAADhiVcAAADCE68AAACEJ14BAAAIT7wCAAAQnngFAAAgPPEKAABAeOIVAACA8MQrAAAA4YlXAAAAwhOvAAAAhCdeAQAACE+8AgAAEF7H4ODg2Lx58/IsY2hoKM2YMSOv+q1atSpdccUVeVHC1KlT01NPPZVXGfPnz0/r16/Pq349PT1pw4YNeZVx2223pWeffTav+p1++unpvPPOy6uZWp/J6b777surfkcddVS67rrr8ipj4cKFae3atXk10z/+4z+mv/zLv8yrfqOjo2n37t15lfGa17wmdXR05FW/PXv2pJdeeimv+h1++OGpr68vL0qZM2dO2rhxY1716+3tTXfeeWdeZUybNi3t3LkzL0pYuXJluvzyy/Oq3/bt29Opp56aVxnt70dz5849+I+x1i56WvE6VlLrDVF5L6e+04rX/GqU0/oFUXm3uk4rXvNNaLIlS5ZUvj/qOpMmTco3KWfBggWVd2vS2bRpU34aZQwMDFTeq84zPDycb1NGKxwr71XX6erqyjehpPbv5qrXp67T/m5SWvs7WtXdnPpOu1VKarda1b3qPO1mbfNnwwAAAIQnXgEAAAhPvAIAABCeeAUAACA88QoAAEB44hUAAIDwxCsAAADhiVcAAADCE68AAACEJ14BAAAIT7wCAAAQnngFAAAgPPEKAABAeOIVAACA8MQrAAAA4YlXAAAAwhOvAAAAhCdeAQAACE+8AgAAEJ54BQAAIDzxCgAAQHjiFQAAgPDEKwAAAOGJVwAAAMITrwAAAIQnXgEAAAhPvAIAABCeeAUAACA88QoAAEB44hUAAIDwOgYHB8fmzZuXZxlDQ0NpxowZedXv9ttvT9dcc01elPDa1742bdmyJa8y5s+fn9avX59X/Xp6etKGDRvyKmN4eDjt27cvr2aaOnVq6ujoyKt+X/jCF9JNN92UV/0mTpyY7r333rzKuP7669P3v//9vOrX/hl47rnn8ipj06ZNafbs2XnVb82aNenCCy/Mq4xt27alY445Jq/63XzzzQd/Hkvp6upKu3btyotS5syZkzZu3JhX/Xp7e9Odd96ZVxlnnXVWeuaZZ/KihBtvvDFddNFFedVv+/bt6dRTT82rjFazprlz5x78x1hrFz2teB2D0lq/ICrfn3WdVrzmm5TT3d1debcmnZGRkfw0mml4eLjyudR5BgYG8m3KaIVj5b3qPO07lNR+Daru5dR3WvGaXw1Kav9urnp96jrt7yZQWrvVqt6fdZ52s7b5s2EAAADCE68AAACEJ14BAAAIT7wCAAAQnngFAAAgPPEKAABAeOIVAACA8MQrAAAA4YlXAAAAwhOvAAAAhCdeAQAACE+8AgAAEJ54BQAAIDzxCgAAQHjiFQAAgPDEKwAAAOGJVwAAAMITrwAAAIQnXgEAAAhPvAIAABCeeAUAACA88QoAAEB44hUAAIDwxCsAAADhiVcAAADCE68AAACEJ14BAAAIT7wCAAAQnngFAAAgPPEKAABAeOIVAACA8DoGBwfH5s2bl2cZc+fOTV1dXXlBGZs2bUpPP/10XvXr6elJGzZsyKuMmTNnpm3btuVVv3POOSd97GMfy6uMO+64I+3fvz+v+i1YsCB94AMfyKt+zz33XJoyZUpeZQwMDKSFCxfmVb/Nmzens88+O68y2p9Hs2fPzqt+a9asSRdeeGFeZfT396cJEybkVb9169alb37zm3nVr/29aNeuXXmV8dWvfjXdf//9edXvhBNOSF/4whfyKmPOnDlp48aNedXvuOOOK/55BLt3704/+MEP8iqj1awHm7H9j7HWdhyn8GnF61hp3d3dlXer6yxatCjfpJzWF8bKu9V1+vr68k3KGB4errxXnacVr/k2ZbTCsfJedZ72HUpqvwZV96rztN+LJbV/FqvuVddpfxaV1v5MrrpbXaf9O6m09u/mqrs5jlPvaTdrmz8bBgAAIDzxCgAAQHjiFQAAgPDEKwAAAOGJVwAAAMITrwAAAIQnXgEAAAhPvAIAABCeeAUAACA88QoAAEB44hUAAIDwxCsAAADhiVcAAADCE68AAACEJ14BAAAIT7wCAAAQnngFAAAgPPEKAABAeOIVAACA8MQrAAAA4YlXAAAAwhOvAAAAhCdeAQAACE+8AgAAEJ54BQAAIDzxCgAAQHjiFQAAgPDEKwAAAOGJVwAAAMITrwAAAITXsWXLlrFPfepTeQKldHd3p6985St5lTFz5sy0bdu2vOp33nnnpWuuuSavMm644Ya0d+/evOr34Q9/OH3wgx/Mq37PPfdcmjJlSl5lLF26NJ177rl51e/xxx9Pl19+eV5lrFq1Kk2fPj2v+j322GPpW9/6Vl5lXHvttemII47Iq34/+tGP0n333ZdX/Q4//PC0ZMmSvMq48cYb07333ptX/dq/F7du3ZpXGR//+MeL/l4E/teXvvSldOaZZ6aOsZb8vwMarnS8RjAyMpImTJiQV/NEiFfKW7BgQVqzZk1eZUyePDk9//zzedWvHY7Lli3Lq367du1KRx99dF7NFCFegVj82TAAAADhiVcAAADCE68AAACEJ14BAAAIT7wCAAAQnngFAAAgPPEKAABAeOIVAACA8MQrAAAA4YlXAAAAwhOvAAAAhCdeAQAACE+8AgAAEJ54BQAAIDzxCgAAQHjiFQAAgPDEKwAAAOGJVwAAAMITrwAAAIQnXgEAAAhPvAIAABCeeAUAACA88QoAAEB44hUAAIDwxCsAAADhiVcAAADCE68AAACEJ14BAAAIT7wCAAAQnngFAAAgPPEKAABAeB1jLfnfxcyfPz89+eSTeTXTli1b0vjx4/OihE9/+tPpvvvuy6t+Z5xxRvr617+eVxm/+MUv0p49e/Kq3913352uv/76vMo4/fTT0yGHlPvveh/72MfSRz7ykbzqd+DAgfSzn/0srzKuvfbadO+99+bVTP/1X/+VTjvttLzqt2nTprRq1aq8yvj5z39+8P1YypIlS9KyZcvyqt+f//zn9Nhjj+VVRvvzuP25XEp3d3faunVrXmVcdtll6ZFHHsmrmQYHB9OUKVPyqt9tt92W/u3f/i2v+nV2dqaHHnooL4prx2tp06dPbwd0o8/evXvz06CU3t7eytemrtPT05Nv0lz9/f2Vz6ZJp6+vLz+N5lqwYEHls2nSacVjfhplDAwMVN6rSacVr/lpNNeiRYsqn01dpxWv+SbltH83V92tSWfHjh35aZSxfPnyynvVdVrxmm9CBP5sGAAAgPDEKwAAAOGJVwAAAMITrwAAAIQnXgEAAAhPvAIAABCeeAUAACA88QoAAEB44hUAAIDwxCsAAADhiVcAAADCE68AAACEJ14BAAAIT7wCAAAQnngFAAAgPPEKAABAeOIVAACA8MQrAAAA4YlXAAAAwhOvAAAAhCdeAQAACE+8AgAAEJ54BQAAIDzxCgAAQHjiFQAAgPDEKwAAAOGJVwAAAMITrwAAAIQnXgEAAAhPvAIAABBex1hL/ncxM2bMSI8//nhezbR379502GGH5VW/hx9+OP3sZz/Lq5na78Hnnnsur/qdcsop6ZprrsmrjLvvvjv98Y9/zKt+Dz74YOrv78+rmfr6+tLSpUvzqt/o6Ghas2ZNXmU88cQTaXh4OK/6Pf/88+mee+7Jq4xNmzal2bNn51W/zZs3p1WrVuVVxtq1aw++H0tZsmRJWrZsWV7NdMkll6TVq1fnVb/u7u60devWvMqYM2dO2rhxY17NtGPHjjRt2rS86rdixYp09dVX51W/zs7Oop9FbT/5yU8O/m5ssve85z3puOOOS6kdr6VNnz69HdCNPq14zU+jjKuuuqryXk0669aty0+juVpfFCqfjVPfacVrfjXKaEVj5b3qPAMDA/k2ZbTCsfJedZ72HZpu0qRJlc+mrtOK13yT5lq0aFHls6nrtH8nldbT01N5tyadVrzmp1HG8uXLK+9V12nFa75JOYsXL668W5PO4ODgwWfhz4YBAAAIT7wCAAAQnngFAAAgPPEKAABAeOIVAACA8MQrAAAA4YlXAAAAwhOvAAAAhCdeAQAACE+8AgAAEJ54BQAAIDzxCgAAQHjiFQAAgPDEKwAAAOGJVwAAAMITrwAAAIQnXgEAAAhPvAIAABCeeAUAACA88QoAAEB44hUAAIDwxCsAAADhiVcAAADCE68AAACEJ14BAAAIT7wCAAAQnngFAAAgPPEKAABAeOIVAACA8MQrAAAA4YlXAAAAwusYa8n/Luall15KBw4cyKuZTjrppDQ6OppX/T7zmc+kK664Iq9m+uhHP5q++93v5lW/t73tbenee+/Nq4yZM2embdu25UUJfX19aenSpXnVr/0rYffu3XmVccQRR6RDDz00r/q1fx+1fy+VdOSRR6Zx48blVb877rgjXXbZZXmV8dhjj6Vjjjkmr/oddthhB0+TXXLJJWn16tV51a+7uztt3bo1rzJefvnl9Morr+RVv7vvvjtdfPHFeZWxY8eONG3atLzqt2/fvrR379686tf+v3/iiSfmVcaNN96YLrroorzq94tf/CLNmjUrrzIGBwfT3LlzD35RIYDOzs72f0QodpYvX55v0ly9vb2Vz6au09PTk29STuuLQuXdnPpOK17zqwHlDAwMVL4/6zzDw8P5NpSyaNGiytemrtP+ndR069atq3w2dZ5WvObbNFMrnCufS51n5cqV+TZlDA0NVd6rztOK14N38WfDAAAAhCdeAQAACE+8AgAAEJ54BQAAIDzxCgAAQHjiFQAAgPDEKwAAAOGJVwAAAMITrwAAAIQnXgEAAAhPvAIAABCeeAUAACA88QoAAEB44hUAAIDwxCsAAADhiVcAAADCE68AAACEJ14BAAAIT7wCAAAQnngFAAAgPPEKAABAeOIVAACA8MQrAAAA4YlXAAAAwhOvAAAAhCdeAQAACE+8AgAAEJ54BQAAIDzxCgAAQHjiFQAAgPA6fv3rX4+tXr06zzI+8YlPpMmTJ+fVTJ///OfTK6+8klf9zj333PTWt741r2Zat25devzxx/Oq39jYWNq/f39eZfznf/5nevbZZ/Oq35vf/Ob0/ve/P68yPve5z6XR0dG86tfX15eWLl2aF031ta99Le3YsSOv+o0bN+7gKemf//mf0xFHHJFX87Q/h2644Ya8yvjOd76Ttm3bllf9/uIv/iJ95CMfyauZnnjiiYPfT0r65Cc/mbq6uvJqno6OjjR+/Pi8ynjve9+b3vKWt+RVv+effz6tXLkyrzIuuuiidMIJJ6SOwcHBsXnz5uX/dRlDQ0NpxowZeUEzbdiwIb3jHe/Iq5kWLVqUbr311rzKmDBhQtq9e3de9ROvtM2ePTs99NBDedVvwYIFac2aNXlRwq5du9LRRx+dF1BKZ2dn0f+ozf+fPxsGAAAgPPEKAABAeOIVAACA8MQrAAAA4YlXAAAAwhOvAAAAhCdeAQAACE+8AgAAEJ54BQAAIDzxCgAAQHjiFQAAgPDEKwAAAOGJVwAAAMITrwAAAIQnXgEAAAhPvAIAABCeeAUAACA88QoAAEB44hUAAIDwxCsAAADhiVcAAADCE68AAACEJ14BAAAIT7wCAAAQnngFAAAgPPEKAABAeOIVAACA8MQrAAAA4YlXAAAAwhOvAAAAhNcxODg4Nm/evDzLePDBB9PJJ5+cFzTTI488ki6++OK8ynjhhRfSgQMH8qrfggUL0s0335xXGSeeeGJ68cUX86pfX19fWrp0aV401V/91V8d/Ewo5fzzz08rVqzIq4xJkyaljo6OvJqn/Tl0wgkn5FXG7t270+joaF401THHHJMOOaTc/79rz5496aWXXsqrfp2dncV/DtqfB+3nUMqhhx6aJk6cmFdh7Xht/Q/HcQqfnp6esdK6u7sr7+bUd1rxml8NKGdgYKDy/VnnGR4ezrehlEWLFlW+Nk6zzo4dO/I7oozly5dX3quu04rXfJNyFi9eXHm3us706dPzTcrzZ8MAAACEJ14BAAAIT7wCAAAQnngFAAAgPPEKAABAeOIVAACA8MQrAAAA4YlXAAAAwhOvAAAAhCdeAQAACE+8AgAAEJ54BQAAIDzxCgAAQHjiFQAAgPDEKwAAAOGJVwAAAMITrwAAAIQnXgEAAAhPvAIAABCeeAUAACA88QoAAEB44hUAAIDwxCsAAADhiVcAAADCE68AAACEJ14BAAAIT7wCAAAQnngFAAAgPPEKAABAeOIVAACA8MQrAAAA4XUMDg6OzZs3L89meve7350uvfTSvMr40Ic+lF555ZW8KOHKK69MZ511Vl71+9Of/pR+/OMf51XGnDlz0oQJE/Kq34YNG9Itt9ySVzP19fWlpUuX5kUJTz75ZPHXYNmyZemkk07Kq35r1qxJF154YV5lDA8Pp8mTJ+dVv7vuuivdcccdeTXTzJkz07Rp0/JqpvbP4hNPPJFX/drfS9rfT0p6//vfn171qlflVb8VK1akq6++Oq/6dXZ2ptHR0bzK2LJlS/rVr36VV/1efPHF9KMf/SivMq699tp02mmnpdSO19Zu9Fm8ePFYaa0fjMq7OfWddevW5VejjAceeKDyXnWeRx99NN+mjP7+/sp7Nem04jU/DUrZtGlT5WtT52nfoaSBgYHKe9V5WvGab1NG+2ex6l5NOu3P5Kbr6empfDZ1nd7e3nyT5lq+fHnls6nrtL+jN93Q0FDls6nztJu1zZ8NAwAAEJ54BQAAIDzxCgAAQHjiFQAAgPDEKwAAAOGJVwAAAMITrwAAAIQnXgEAAAhPvAIAABCeeAUAACA88QoAAEB44hUAAIDwxCsAAADhiVcAAADCE68AAACEJ14BAAAIT7wCAAAQnngFAAAgPPEKAABAeOIVAACA8MQrAAAA4YlXAAAAwhOvAAAAhCdeAQAACE+8AgAAEJ54BQAAIDzxCgAAQHjiFQAAgPDEKwAAAOGJVwAAAMLr2Lx589jHP/7xPJupt7c3XX311XmV0dPTk/bt25cXJVx22WWpu7s7r/o9+eST6eabb86rjNtvvz294Q1vyKt+99xzT1q2bFlezbR48eJ06aWX5tVM7Z+F559/Pq/6/f73v09f/OIX8yqjv78/nXrqqXnVb3BwMC1dujSvMj7/+c+nI488Mq/6tV+Dr33ta3k105IlS9L555+fV/3ar/9pp52WVxmXX355evTRR/Oq38yZM4v/Tnjzm9+cOjs786rfihUrin5PHz9+fNq4cWNeZZxwwglpypQpedVv+/btRX8ntbV/L82dOzd1jLXk/x002vz589P69evzql/7P2Bs2LAhL2iuhQsXprVr1+ZVv1mzZqXNmzfnRSmTJ08u+h8xKK/9H5S3bt2aVzPdeeed6QMf+EBeZezYsSNNmzYtr/qVjtcIVq5cefA/pJQSKV792TAAAADhiVcAAADCE68AAACEJ14BAAAIT7wCAAAQnngFAAAgPPEKAABAeOIVAACA8MQrAAAA4YlXAAAAwhOvAAAAhCdeAQAACE+8AgAAEJ54BQAAIDzxCgAAQHjiFQAAgPDEKwAAAOGJVwAAAMITrwAAAIQnXgEAAAhPvAIAABCeeAUAACA88QoAAEB44hUAAIDwxCsAAADhiVcAAADCE68AAACEJ14BAAAIT7wCAAAQnngFAAAgPPEKAABAeB1jLfnfFNTT05P27duXFyVcdtllqbu7O6/6TZgwIU2fPj2vMi6++OL0y1/+Mq9m+uEPf5iOOOKIvOr3ta99LX3961/Pq34TJ05M3/ve9/IqY+HChWnt2rV51e/II49Mp556al5l9Pf3F79DaT/96U/T/v3786pf+zVo/zxSTvuz+LTTTsurmWbOnJkuvfTSvMq47rrr0v/8z//kVb9nnnkm7dixI6/6jR8/Pm3cuDGvMk444YQ0ZcqUvOq3Z8+e9Nhjj+VVRvs7cvu7sngN4rDDDhOvha1bty7Nnz8/r2Zq/5Lctm1bXs00MjJy8MOxlKVLl6Ybbrghr/pNmjQpPffcc3mVUTpeI9i0aVOaPXt2XpSwbNmyg1/aoaTe3t5055135lXGtGnT0s6dO/Nqns7OzjQ6OpoXpfmzYQAAAMITrwAAAIQnXgEAAAhPvAIAABCeeAUAACA88QoAAEB44hUAAIDwxCsAAADhiVcAAADCE68AAACEJ14BAAAIT7wCAAAQnngFAAAgPPEKAABAeOIVAACA8MQrAAAA4YlXAAAAwhOvAAAAhCdeAQAACE+8AgAAEJ54BQAAIDzxCgAAQHjiFQAAgPDEKwAAAOGJVwAAAMITrwAAAIQnXgEAAAhPvAIAABCeeAUAACA88QoAAEB4Hc8888zY/fffn2czveENb0hnnXVWXmV86EMfSvv378+LEs4888x07LHH5lW/KVOmpHPPPTevMq699tr0u9/9Lq/6/eY3v0mbN2/Oq4yRkZE0YcKEvOq3dOnSdMMNN+RVv0mTJqXnnnsurzIWLlyY1q5dm1cz9fX1pZNOOikvSrjrrrvSunXr8qrfoYcemv72b/82rzLan8ftz+VSXv3qV6fzzjsvrzLuu+++op+J7e+nV155ZV5l/Pd//3fas2dPXs0zfvz4dNttt+VVxpYtW9KvfvWrvJrpXe961/9+Tx8cHBxr7UafxYsXj0Fvb2/l+6Ou09PTk2/SXP39/ZXPps7Titd8mzKWLFlSea+6Tite803KWbBgQeXdHKdJp6urK/9ElLNo0aLKu9V1uru7803Kaf9urrpbk86OHTvy06CUdqtUvTZNOu1mbfNnwwAAAIQnXgEAAAhPvAIAABCeeAUAACA88QoAAEB44hUAAIDwxCsAAADhiVcAAADCE68AAACEJ14BAAAIT7wCAAAQnngFAAAgPPEKAABAeOIVAACA8MQrAAAA4YlXAAAAwhOvAAAAhCdeAQAACE+8AgAAEJ54BQAAIDzxCgAAQHjiFQAAgPDEKwAAAOGJVwAAAMITrwAAAIQnXgEAAAhPvAIAABCeeAUAACA88QoAAEB44hUAAIDwxCsAAADhdQwODo7NmzcvzzIefPDBdPLJJ+dVv29961vpX//1X/MqY+fOnamzszOv+vX19aWvfOUredXvuOOOS9u2bcurjF27dqXR0dG86vfII4+kiy++OK8yfvjDH6bTTjstr/q1n3/7dShp1qxZ6cUXX8yrfi+//PLBU0pHR0d6zWtek1cZu3fvLvqz+Ja3vCV973vfy6uZ1q9fny6//PK8ynj88ceLvhe/9KUvpRtvvDGv+nV1dRX/PGz/LO7duzev+j3xxBOpt7c3rzJGRkbS/v3786rf+eefn/r7+/Mqo/1zeMgh5f7/Xf/+7/+ePvvZz+ZVv8MOOyw99dRTeZXR/l6yZ8+evOr3y1/+Mr397W/Pq4xWs6a5c+ce/MdYaxc9Q0NDYyWtXLmy8l51ntYvh3ybMq666qrKe9V1pk6dmm/SXA888EDls6nzPProo/k2zdX6wlj5bJzmnFmzZuV3Q3MNDAxUPps6z/DwcL5NGX19fZX3quu0P4uarv07qerZNOm04j0/jeZavnx55bOp63R2duabNFe71aqeTZ2n3axt/mwYAACA8MQrAAAA4YlXAAAAwhOvAAAAhCdeAQAACE+8AgAAEJ54BQAAIDzxCgAAQHjiFQAAgPDEKwAAAOGJVwAAAMITrwAAAIQnXgEAAAhPvAIAABCeeAUAACA88QoAAEB44hUAAIDwxCsAAADhiVcAAADCE68AAACEJ14BAAAIT7wCAAAQnngFAAAgPPEKAABAeOIVAACA8MQrAAAA4YlXAAAAwhOvAAAAhCdeAQAACE+8AgAAEF7Hr3/967HVq1fnWcYnPvGJNHny5Lzqt2rVqnTFFVfkVcb111+fxo0bl1f9BgcH04MPPphX/SZMmJA+/elP59VMY2Njaf/+/XmVMX78+NTR0ZFXM7Vfg/ZrUcoDDzyQNm7cmBclTJs2LX30ox/Nq4zLLrssHXfccXnVb82aNenCCy/Mq4zh4eGi3w3aP4v33XdfXvVrfxa3P5NLuuCCC1J3d3de9fvDH/6QvvrVr+bVTKeeemr6+7//+7zKuPnmm9OuXbvyql/7+2n7e2op7e/n7e/pJb33ve9Nb3nLW/Kq3/bt2w++F0tqvwfmzp178Atz461cubL9TdVxip6enp78jiyn9SWl8m5NOiMjI/lplLFkyZLKeznNOps2bcrviDIGBgYq71XnacVrvk0ztT+Lqp5Lnae/vz/fhiabOnVq5fvDqe+0W6WkoaGhynvVeVrxevAu/mwYAACA8MQrAAAA4YlXAAAAwhOvAAAAhCdeAQAACE+8AgAAEJ54BQAAIDzxCgAAQHjiFQAAgPDEKwAAAOGJVwAAAMITrwAAAIQnXgEAAAhPvAIAABCeeAUAACA88QoAAEB44hUAAIDwxCsAAADhiVcAAADCE68AAACEJ14BAAAIT7wCAAAQnngFAAAgPPEKAABAeOIVAACA8MQrAAAA4YlXAAAAwhOvAAAAhCdeAQAACE+8AgAAEF7HK6+8MvbSSy/l2Uz9/f3pn/7pn/Iqo6urK/+rmcbGxtKLL76YVxmvetWr0qGHHppX/c4+++y0bt26vMp4z3vek4aGhvKq3/79+9PevXvzKuOpp54q+vP4uc99Lq1YsSKvZir9s3jgwIH08ssv51XG/fffn84444y86nfHHXekD3/4w3mVMTw8nCZPnpxX/fbt21f082j37t1p2rRpeZXxH//xH+nCCy/MixLGjx9/8DOxpOnTp6edO3fmVb/2z+Lo6GheZZT+nn7jjTemiy66KK/6/epXv0rnnHNOXmV8+9vf/t87DA4OjrW2U/i0fkG2+q25duzYUflc6jytcMy3KeOBBx6ovFed59FHH823KaO/v7/yXk6zzsDAQH5HlLFp06bKezn1nla85lekjL6+vsp7OU6dp7e3N78jm2v58uWVz6au09nZmW9SzuLFiyvvVteZPn16vkl5/mwYAACA8MQrAAAA4YlXAAAAwhOvAAAAhCdeAQAACE+8AgAAEJ54BQAAIDzxCgAAQHjiFQAAgPDEKwAAAOGJVwAAAMITrwAAAIQnXgEAAAhPvAIAABCeeAUAACA88QoAAEB44hUAAIDwxCsAAADhiVcAAADCE68AAACEJ14BAAAIT7wCAAAQnngFAAAgPPEKAABAeOIVAACA8MQrAAAA4YlXAAAAwhOvAAAAhCdeAQAACE+8AgAAEJ54BQAAILyOnTt3jn3/+9/Ps5l+9KMfpW984xt5lbF379502GGH5VW/O+64I333u9/Nq34vv/xy+ta3vpVXGeecc046/vjj86rfs88+m+699968yrjgggvSMccck1f9jj322HTyySfnVcY//MM/HPx5LOX9739/+uu//uu86rd79+70yU9+Mq8y5syZk0488cS86jdhwoQ0c+bMvJpp8+bN6ZZbbsmrjOHh4TR58uS86rdt27b005/+NK/6tT+H2p9HNFv7e0n7+0mT/fznP08PP/xwXvXr7OxMo6OjeZVx+eWXF/1Mnj59etq+fXtehY0xtnLlyrH2oyh5Wr+k8m3KuOqqqyrv5Th1nkWLFuV3ZDldXV2Vd6vr9PX15ZuU0QqGyns16cyaNSs/jeYaGBiofDZ1nvZ7sclGRkYqn4vjOPWeVrzmn8pyFi9eXHm3uk4rXvNNyvNnwwAAAIQnXgEAAAhPvAIAABCeeAUAACA88QoAAEB44hUAAIDwxCsAAADhiVcAAADCE68AAACEJ14BAAAIT7wCAAAQnngFAAAgPPEKAABAeOIVAACA8MQrAAAA4YlXAAAAwhOvAAAAhCdeAQAACE+8AgAAEJ54BQAAIDzxCgAAQHjiFQAAgPDEKwAAAOGJVwAAAMITrwAAAIQnXgEAAAhPvAIAABCeeAUAACA88QoAAEB44hUAAIDwOsZa8r8ba926demGG27Iq4wtW7ak8ePH51W/m266Ka1evTovmuoXv/hF2rt3b171u+CCC9JnP/vZvMq44oor0p49e/Kq38c+9rH0kY98JK/6vfDCC+mcc87Jq5lOOumktHTp0rya6d57703XXnttXmXcf//9aeLEiXnV79hjjz14SnnppZfS2972trzK2LFjR/rTn/6UV/0OP/zwdMopp+RFKdu3b0/79+/Pq3k6OzvT6OhoXmVcfvnl6ZZbbsmrfieeeGK688478yrj9a9/fTrqqKPEK/D/mjlzZtq2bVtezTQyMpImTJiQF020efPmdPbZZ+dFUy1ZsiQtW7Ysr2a65JJLiv6H7e7u7rR169a8KGXatGlp586deTWPeI1hcHAwzZ07158NAwAAEJ94BQAAIDzxCgAAQHjiFQAAgPDEKwAAAOGJVwAAAMITrwAAAIQnXgEAAAhPvAIAABCeeAUAACA88QoAAEB44hUAAIDwxCsAAADhiVcAAADCE68AAACEJ14BAAAIT7wCAAAQnngFAAAgPPEKAABAeOIVAACA8MQrAAAA4YlXAAAAwhOvAAAAhCdeAQAACE+8AgAAEJ54BQAAIDzxCgAAQHjiFQAAgPDEKwAAAOGJVwAAAMITrwAAAITXsWXLlrFPfepTeQKldHd3p6985St5lfHTn/40vfjii3k10w033JD27t2bF020e/futHXr1rya6dxzz01Lly7Nq5mOP/74g6fJLrnkkrR69eq86tf+vVj6Z/HjH/942rZtW171e8c73pGWLVuWVxnTpk1LO3fuzKt5Ojo60tvf/va8ynjf+96XzjrrrLzq9/vf/z598IMfzKuMwcHBNHfu3IP/GGttx3EKn56enjHK6+rqqnx9HKdJZ8GCBfkngiZbtGhR5fujrtOK13yTctq/m6vuVtfp7e3NNyln6tSplXdz6jsrV67Mr0YZQ0NDlfeq87Sbtc2fDQMAABCeeAUAACA88QoAAEB44hUAAIDwxCsAAADhiVcAAADCE68AAACEJ14BAAAIT7wCAAAQnngFAAAgPPEKAABAeOIVAACA8MQrAAAA4YlXAAAAwhOvAAAAhCdeAQAACE+8AgAAEJ54BQAAIDzxCgAAQHjiFQAAgPDEKwAAAOGJVwAAAMITrwAAAIQnXgEAAAhPvAIAABCeeAUAACA88QoAAEB44hUAAIDwxCsAAADhiVcAAADC6xgcHBybN29enmXMnTs3dXV15QVlbNq0KT399NN51a+npydt2LAhr2b6/e9/nx5++OG8yrj44ovTnj178qrfjBkz0hvf+Ma8mmnLli1px44dedVv4sSJ6ZxzzsmrjB/+8IfphRdeyKt+CxYsSGvWrMmrjHvuuSeNjo7mVb/p06cf/Hks5ZVXXknf/va38yrjq1/96sH3Yind3d1p69ateZWxdOnStH379rzq99a3vjV9+tOfzquMadOmpZ07d+bVPIccckj6m7/5m7zKmDVrVnr961+fV/127dp18DO5pOuvvz696U1vSqkdr61d9AwNDY1Bab29vZXvz7pOK17zTZqrv7+/8tk06fT19eWn0VytcKp8NnWd1peEfJNy2neoultdp/0alDZp0qTKu9V1lixZkm9SxsjISOW9mnRa8ZqfBiVNnTq18vVpyuns7MxPopzFixdX3q2uM3369HyT8vzZMAAAAOGJVwAAAMITrwAAAIQnXgEAAAhPvAIAABCeeAUAACA88QoAAEB44hUAAIDwxCsAAADhiVcAAADCE68AAACEJ14BAAAIT7wCAAAQnngFAAAgPPEKAABAeOIVAACA8MQrAAAA4YlXAAAAwhOvAAAAhCdeAQAACE+8AgAAEJ54BQAAIDzxCgAAQHjiFQAAgPDEKwAAAOGJVwAAAMITrwAAAIQnXgEAAAhPvAIAABCeeAUAACA88QoAAEB4HYODg2Pz5s3Ls4yhoaE0Y8aMvOp3++23p2uuuSYvSnjta1+btmzZklcZ8+fPT+vXr8+rfj09PWnDhg15NdOtt96aLr300ryaacKECamrqyuv+r3mNa9J27Zty6uMhQsXprVr1+ZVv87OzjR58uS8yujv7y/6e/GII45IxxxzTF5ltF+D559/Pq/6LVmyJC1btiyv+u3atSsdffTReTXT+PHj05QpU/KilD/84Q/pwIEDedXviiuuSNdee21e9evo6EhTp07Nq4zLL7883XLLLXnVb/r06Wn79u15FdaO19b/KHpa8TpW0sqVKyvv5dR3Wh8K+dUop7e3t/JudZ1WvOabNFfrC3vls3HqO5MmTcqvRjkLFiyovFuTzqZNm/LTaK72e7Hq2dR1WvGab1LGyMhI5b0cp2nnqquuyj8VzbV48eLKZ1PXacVrvkl5/mwYAACA8MQrAAAA4YlXAAAAwhOvAAAAhCdeAQAACE+8AgAAEJ54BQAAIDzxCgAAQHjiFQAAgPDEKwAAAOGJVwAAAMITrwAAAIQnXgEAAAhPvAIAABCeeAUAACA88QoAAEB44hUAAIDwxCsAAADhiVcAAADCE68AAACEJ14BAAAIT7wCAAAQnngFAAAgPPEKAABAeOIVAACA8MQrAAAA4YlXAAAAwhOvAAAAhCdeAQAACE+8AgAAEF7H4ODg2Lx58/IsY2hoKM2YMSOv+q1atSpdccUVeVHC1KlT01NPPZVXGfPnz0/r16/Pq349PT1pw4YNeTXTrbfemi699NK8yvjkJz+ZOjs782qeo446Kl133XV5lbFw4cK0du3avJpp06ZNafbs2Xk10+TJk9Pzzz+fV/2WLFmSli1bllf9du3alY4++ui8yjjvvPPSaaedllf9hoeH02233ZZXGQsWLEjTpk3Lq36//OUv07e//e28mumqq65KK1asyKt+Bw4cSF/84hfzKuOuu+46+HuhlOnTp6ft27fnVVg7Xlv/o+hpxetYSStXrqy8l1PfacVrfjXK6e3trbxbXacVr/kmzdXf31/5bOo8IyMj+TaU0vqyWPnaNOm0vqTkp9FckyZNqnw2dZ1WvOablNH+LKq6V52n/Zlc0qOPPlp5rzrPAw88kG9Txrp16yrv1aTTitf8NMrYu3dv5b2adFrxmp9Gef5sGAAAgPDEKwAAAOGJVwAAAMITrwAAAIQnXgEAAAhPvAIAABCeeAUAACA88QoAAEB44hUAAIDwxCsAAADhiVcAAADCE68AAACEJ14BAAAIT7wCAAAQnngFAAAgPPEKAABAeOIVAACA8MQrAAAA4YlXAAAAwhOvAAAAhCdeAQAACE+8AgAAEJ54BQAAIDzxCgAAQHjiFQAAgPDEKwAAAOGJVwAAAMITrwAAAIQnXgEAAAhPvAIAABCeeAX+z/79+9Po6GixMzY2ljo7O4uejo6O/DSaq+q1qfP8+c9/zjdprtI/i6+88kq+SXMdOHCg8tnUdfbt21f5GVXnaX8mV92trtP+OQDKK/1Z0D7tOxw0ODjY/lfRMzQ01LpPOStXrqy8l1PfmTp1an41yunt7a28W12np6cn36Sc7u7uyrvVdRYtWpRvQinDw8OVr43TrLNgwYL8jihn0qRJlXdryunq6spPopz2Z3LV3Zp0Hnjggfw0yli3bl3lvZp0rrrqqvw0yti7d2/lvZx6T7tZ2/x/XgEAAAhPvAIAABCeeAUAACA88QoAAEB44hUAAIDwxCsAAADhiVcAAADCE68AAACEJ14BAAAIT7wCAAAQnngFAAAgPPEKAABAeOIVAACA8MQrAAAA4YlXAAAAwhOvAAAAhCdeAQAACE+8AgAAEJ54BQAAIDzxCgAAQHjiFQAAgPDEKwAAAOGJVwAAAMITrwAAAIQnXgEAAAhPvAIAABCeeAUAACA88QoAAEB44hUAAIDwxCsAAADhiVcAAADC6xgcHBybN29enmUMDQ2lGTNm5FW/7du3pw0bNuRFCUcddVS66KKL8ipj/vz5af369XnVr6enp/j7cObMmWnbtm151e+UU05J73znO/Mq46abbkqHH354Xs3z3HPPpSlTpuRVxqWXXprOOuusvOr3u9/9Li1fvjyvMq6++ur0ute9Lq/6veENb0jvfve78yrjtttuS3v27Mmrft/97nfTd77znbzq19XVlXbt2pVXGZdccklavXp1XvWbNm1a+sxnPpNXGe973/vSa1/72rzq99vf/jZ9//vfz6uZhoeH09NPP51X/Q455JD0pje9KS9KOf/88w9+JohXyMRr+XiNYGRkJE2YMCGv5okQrwMDA2nhwoV51W/z5s3p7LPPzquMTZs2pdmzZ+dFCcuWLUvXXXddXvUTryl1d3enrVu35kVTrVix4uB/0Culs7MzjY6O5kVp/mwYAACA8MQrAAAA4YlXAAAAwhOvAAAAhCdeAQAACE+8AgAAEJ54BQAAIDzxCgAAQHjiFQAAgPDEKwAAAOGJVwAAAMITrwAAAIQnXgEAAAhPvAIAABCeeAUAACA88QoAAEB44hUAAIDwxCsAAADhiVcAAADCE68AAACEJ14BAAAIT7wCAAAQnngFAAAgPPEKAABAeOIVAACA8MQrAAAA4YlXAAAAwhOvAAAAhCdeAQAACE+8AgAAEF7H4ODg2Lx58/Is4+67704nnXRSXlDGlVdemX7wgx/kVb+enp60YcOGvMqYP39+evzxx/Oq38jISHr66afzKuOhhx5KRx55ZF7N88ILL6S3v/3teZUxMDCQFi5cmFf9fvazn6W/+7u/y6uMG2+8Mb3+9a/Pq5lOOeWUNG7cuLzqt2rVqvTlL385r/odddRRBz+PSrrkkkvS6tWr86rfG9/4xnTnnXfmVcbrXve6dMQRR+RVv927d6cdO3bk1Uz9/f3pi1/8Yl716+zsTKOjo3k10759+9Kvf/3rvMo4/vjj//f7WTteW9txnMKnFa9jTdf6BVX5bJxmnVa85ndEc82aNavy2TTpDA8P56dBKYsWLap8bZp0Hnjggfw0yli3bl3lvZz6Tite86vRXENDQ5XPps7TbtY2fzYMAABAeOIVAACA8MQrAAAA4YlXAAAAwhOvAAAAhCdeAQAACE+8AgAAEJ54BQAAIDzxCgAAQHjiFQAAgPDEKwAAAOGJVwAAAMITrwAAAIQnXgEAAAhPvAIAABCeeAUAACA88QoAAEB44hUAAIDwxCsAAADhiVcAAADCE68AAACEJ14BAAAIT7wCAAAQnngFAAAgPPEKAABAeOIVAACA8MQrAAAA4YlXAAAAwhOvAAAAhCdeAQAACE+8AgAAEF7HH//4x7FHHnkkT6CUiRMnpjPPPDOvZnr66afT0NBQXjTV6aefno499ti8mumhhx5KIyMjeTXTO9/5zjR+/Pi8KGH79u1p586deTXTWWedlV796lfnVb/h4eG0bdu2vCjhkEMOSe9+97vzaqaXXnop/fjHP86rjDPOOCMdc8wx6f8BWeiSmU9o2j4AAAAASUVORK5CYII=;" parent="1" vertex="1">
          <mxGeometry x="-75.05000000000004" y="-1025.82" width="110.11" height="110" as="geometry" />
        </mxCell>
        <mxCell id="dHE7tIidJEhlcoBUh_R6-55" value="&lt;font face=&quot;Verdana&quot;&gt;My Vaccine Code&lt;/font&gt;" style="text;html=1;strokeColor=none;fillColor=none;align=center;verticalAlign=middle;whiteSpace=wrap;rounded=0;fontStyle=1" parent="1" vertex="1">
          <mxGeometry x="-101.34" y="-915.82" width="162" height="20" as="geometry" />
        </mxCell>
        <mxCell id="dHE7tIidJEhlcoBUh_R6-77" value="Pertussis (Whooping Cough) " style="rounded=1;fillColor=#F0F2F5;strokeColor=#D8DCE3;fontColor=#000000;align=left;verticalAlign=middle;fontStyle=0;fontSize=12;labelPosition=right;verticalLabelPosition=middle;spacingLeft=10;html=1;shadow=0;dashed=0" parent="1" vertex="1">
          <mxGeometry x="-131.67333333333332" y="-1232.6061271676301" width="17.599999999999998" height="12.485549132947975" as="geometry" />
        </mxCell>
        <mxCell id="dHE7tIidJEhlcoBUh_R6-78" value="Tetanus" style="html=1;shadow=0;dashed=0;shape=mxgraph.atlassian.checkbox_2;fillColor=#0057D8;strokeColor=none;fontColor=#000000;align=left;verticalAlign=middle;fontStyle=0;fontSize=12;labelPosition=right;verticalLabelPosition=middle;spacingLeft=10" parent="1" vertex="1">
          <mxGeometry x="-131.67333333333332" y="-1206.5945664739884" width="17.599999999999998" height="12.485549132947975" as="geometry" />
        </mxCell>
        <mxCell id="dHE7tIidJEhlcoBUh_R6-79" value="COVID-19 (SARS-CoV-2)" style="html=1;shadow=0;dashed=0;shape=mxgraph.atlassian.checkbox_2;fillColor=#0057D8;strokeColor=none;fontColor=#000000;align=left;verticalAlign=middle;fontStyle=0;fontSize=12;labelPosition=right;verticalLabelPosition=middle;spacingLeft=10" parent="1" vertex="1">
          <mxGeometry x="-131.67333333333332" y="-1157.0930057803466" width="17.599999999999998" height="12.485549132947975" as="geometry" />
        </mxCell>
        <mxCell id="dHE7tIidJEhlcoBUh_R6-80" value="Varicella (Chickenpox)" style="rounded=1;fillColor=#F0F2F5;strokeColor=#D8DCE3;fontColor=#000000;align=left;verticalAlign=middle;fontStyle=0;fontSize=12;labelPosition=right;verticalLabelPosition=middle;spacingLeft=10;html=1;shadow=0;dashed=0" parent="1" vertex="1">
          <mxGeometry x="-131.67333333333332" y="-1182.0614450867051" width="17.599999999999998" height="12.485549132947975" as="geometry" />
        </mxCell>
        <mxCell id="dHE7tIidJEhlcoBUh_R6-81" value="Generate" style="rounded=1;fillColor=#0057D8;strokeColor=none;fontColor=#ffffff;align=center;verticalAlign=middle;fontStyle=0;fontSize=14;html=1;shadow=0;dashed=0" parent="1" vertex="1">
          <mxGeometry x="-95.34" y="-1092.7599999999998" width="150" height="33.87" as="geometry" />
        </mxCell>
        <mxCell id="dHE7tIidJEhlcoBUh_R6-84" value="Polio" style="rounded=1;fillColor=#F0F2F5;strokeColor=#D8DCE3;fontColor=#000000;align=left;verticalAlign=middle;fontStyle=0;fontSize=12;labelPosition=right;verticalLabelPosition=middle;spacingLeft=10;html=1;shadow=0;dashed=0" parent="1" vertex="1">
          <mxGeometry x="-131.67333333333335" y="-1258.33612716763" width="17.599999999999998" height="12.485549132947975" as="geometry" />
        </mxCell>
        <mxCell id="wNZ1jNhqM1yubl_F3X3Q-204" style="edgeStyle=orthogonalEdgeStyle;rounded=0;orthogonalLoop=1;jettySize=auto;html=1;entryX=1;entryY=0.5;entryDx=0;entryDy=0;fillColor=#3333FF;" parent="1" source="dHE7tIidJEhlcoBUh_R6-85" target="wNZ1jNhqM1yubl_F3X3Q-165" edge="1">
          <mxGeometry relative="1" as="geometry">
            <Array as="points">
              <mxPoint x="180" y="-1284" />
              <mxPoint x="180" y="-556" />
            </Array>
          </mxGeometry>
        </mxCell>
        <mxCell id="dHE7tIidJEhlcoBUh_R6-85" value="" style="shape=image;html=1;verticalAlign=top;verticalLabelPosition=bottom;labelBackgroundColor=#ffffff;imageAspect=0;aspect=fixed;image=https://cdn2.iconfinder.com/data/icons/bitsies/128/Add-128.png" parent="1" vertex="1">
          <mxGeometry x="81.66000000000003" y="-1291" width="14.18" height="14.18" as="geometry" />
        </mxCell>
        <mxCell id="dHE7tIidJEhlcoBUh_R6-174" value="" style="verticalLabelPosition=bottom;verticalAlign=top;html=1;shadow=0;dashed=0;strokeWidth=1;shape=mxgraph.ios.iArrowIcon;fillColor=#8BbEff;fillColor2=#135Ec8;strokeColor=#ffffff;" parent="1" vertex="1">
          <mxGeometry x="70" y="-1258.33" width="15" height="15" as="geometry" />
        </mxCell>
        <mxCell id="dHE7tIidJEhlcoBUh_R6-175" value="" style="verticalLabelPosition=bottom;verticalAlign=top;html=1;shadow=0;dashed=0;strokeWidth=1;shape=mxgraph.ios.iArrowIcon;fillColor=#8BbEff;fillColor2=#135Ec8;strokeColor=#ffffff;" parent="1" vertex="1">
          <mxGeometry x="70" y="-1233.86" width="15" height="15" as="geometry" />
        </mxCell>
        <mxCell id="dHE7tIidJEhlcoBUh_R6-177" value="" style="verticalLabelPosition=bottom;verticalAlign=top;html=1;shadow=0;dashed=0;strokeWidth=1;shape=mxgraph.ios.iArrowIcon;fillColor=#8BbEff;fillColor2=#135Ec8;strokeColor=#ffffff;" parent="1" vertex="1">
          <mxGeometry x="70" y="-1207.85" width="15" height="15" as="geometry" />
        </mxCell>
        <mxCell id="dHE7tIidJEhlcoBUh_R6-178" value="" style="verticalLabelPosition=bottom;verticalAlign=top;html=1;shadow=0;dashed=0;strokeWidth=1;shape=mxgraph.ios.iArrowIcon;fillColor=#8BbEff;fillColor2=#135Ec8;strokeColor=#ffffff;" parent="1" vertex="1">
          <mxGeometry x="70" y="-1183.32" width="15" height="15" as="geometry" />
        </mxCell>
        <mxCell id="dHE7tIidJEhlcoBUh_R6-182" value="&lt;div align=&quot;left&quot;&gt;&lt;font style=&quot;font-size: 36px&quot;&gt;Final Notes:&lt;/font&gt;&lt;/div&gt;&lt;div&gt;&lt;ul&gt;&lt;li&gt;&lt;font size=&quot;3&quot;&gt;The system would be connected to provincial health network suchthat each province can be customized and autofilled based on ohip/health card number.&lt;/font&gt;&lt;/li&gt;&lt;/ul&gt;&lt;ul&gt;&lt;li&gt;&lt;font size=&quot;3&quot;&gt;Health officials would send confirmation code to the user to enter into the app (which is used to confirm authenticity of vaccinations.)&lt;/font&gt;&lt;/li&gt;&lt;/ul&gt;&lt;ul&gt;&lt;li&gt;&lt;font size=&quot;3&quot;&gt;The system would be linked with provinces that keep track of vaccinations and tests to autofill them in your profile when account is created.&lt;/font&gt;&lt;/li&gt;&lt;/ul&gt;&lt;div&gt;&lt;div&gt;&lt;ul&gt;&lt;li&gt;&lt;font size=&quot;3&quot;&gt;As My Health Passport Canada is very privacy focused, the health card number will be hashed and unhashed to uniquely identify a user.&lt;/font&gt;&lt;/li&gt;&lt;/ul&gt;&lt;/div&gt;&lt;/div&gt;&lt;/div&gt;" style="text;html=1;strokeColor=none;fillColor=none;align=left;verticalAlign=middle;whiteSpace=wrap;rounded=0;" parent="1" vertex="1">
          <mxGeometry x="1108" y="-1970" width="420" height="330" as="geometry" />
        </mxCell>
        <mxCell id="wNZ1jNhqM1yubl_F3X3Q-205" style="edgeStyle=orthogonalEdgeStyle;rounded=0;orthogonalLoop=1;jettySize=auto;html=1;entryX=1;entryY=0.5;entryDx=0;entryDy=0;fillColor=#3333FF;" parent="1" source="wNZ1jNhqM1yubl_F3X3Q-1" target="wNZ1jNhqM1yubl_F3X3Q-171" edge="1">
          <mxGeometry relative="1" as="geometry">
            <Array as="points">
              <mxPoint x="78" y="-1135.82" />
              <mxPoint x="-189" y="-1135.82" />
              <mxPoint x="-189" y="-555.82" />
            </Array>
          </mxGeometry>
        </mxCell>
        <mxCell id="wNZ1jNhqM1yubl_F3X3Q-1" value="" style="verticalLabelPosition=bottom;verticalAlign=top;html=1;shadow=0;dashed=0;strokeWidth=1;shape=mxgraph.ios.iArrowIcon;fillColor=#8BbEff;fillColor2=#135Ec8;strokeColor=#ffffff;" parent="1" vertex="1">
          <mxGeometry x="70" y="-1157.09" width="15" height="15" as="geometry" />
        </mxCell>
        <mxCell id="wNZ1jNhqM1yubl_F3X3Q-6" value="" style="endArrow=none;html=1;exitX=-0.001;exitY=0.423;exitDx=0;exitDy=0;exitPerimeter=0;" parent="1" source="dHE7tIidJEhlcoBUh_R6-19" edge="1">
          <mxGeometry width="50" height="50" relative="1" as="geometry">
            <mxPoint x="131" y="-1145.82" as="sourcePoint" />
            <mxPoint x="102" y="-1125.82" as="targetPoint" />
          </mxGeometry>
        </mxCell>
        <mxCell id="wNZ1jNhqM1yubl_F3X3Q-7" value="" style="html=1;verticalLabelPosition=bottom;labelBackgroundColor=#ffffff;verticalAlign=top;shadow=0;dashed=0;strokeWidth=2;shape=mxgraph.ios7.misc.scroll_(vertical);fillColor=#a0a0a0;" parent="1" vertex="1">
          <mxGeometry x="94.67000000000002" y="-1240.35" width="6" height="80" as="geometry" />
        </mxCell>
        <mxCell id="wNZ1jNhqM1yubl_F3X3Q-8" value="" style="rounded=1;whiteSpace=wrap;html=1;" parent="1" vertex="1">
          <mxGeometry x="641" y="-1315.82" width="280" height="480" as="geometry" />
        </mxCell>
        <mxCell id="wNZ1jNhqM1yubl_F3X3Q-9" value="" style="ellipse;whiteSpace=wrap;html=1;" parent="1" vertex="1">
          <mxGeometry x="762.9473684210527" y="-882.8757377049179" width="36.10526315789473" height="39.18688524590165" as="geometry" />
        </mxCell>
        <mxCell id="wNZ1jNhqM1yubl_F3X3Q-10" value="" style="rounded=0;whiteSpace=wrap;html=1;" parent="1" vertex="1">
          <mxGeometry x="659.6642105263159" y="-1296.9977049180327" width="242.66421052631577" height="406.09573770491806" as="geometry" />
        </mxCell>
        <mxCell id="wNZ1jNhqM1yubl_F3X3Q-11" value="Tests" style="rounded=0;whiteSpace=wrap;html=1;" parent="1" vertex="1">
          <mxGeometry x="660.6600000000001" y="-1296" width="241.34" height="24" as="geometry" />
        </mxCell>
        <mxCell id="wNZ1jNhqM1yubl_F3X3Q-13" value="" style="shape=image;verticalLabelPosition=bottom;labelBackgroundColor=#ffffff;verticalAlign=top;aspect=fixed;imageAspect=0;image=data:image/png,iVBORw0KGgoAAAANSUhEUgAAA68AAAOuCAYAAADoxCFMAAAABGdBTUEAALGPC/xhBQAAACBjSFJNAAB6JgAAgIQAAPoAAACA6AAAdTAAAOpgAAA6mAAAF3CculE8AAAACXBIWXMAAA7EAAAOxAGVKw4bAAAAAmJLR0QA/4ePzL8AAAAHdElNRQfkBQgJAzE5dzzdAAAAJXRFWHRkYXRlOmNyZWF0ZQAyMDIwLTA1LTA4VDA5OjAzOjQ5KzAwOjAwPHWOxQAAACV0RVh0ZGF0ZTptb2RpZnkAMjAyMC0wNS0wOFQwOTowMzo0OSswMDowME0oNnkAADnzSURBVHhe7dp/kJ1lfcf9awlZENhgMEmRpIOAggngRoEERzeKklhGinVjp00ADaAGalVqpTCYQN3gSDJqQWsT7LgEyyaOhDAiI7pSlITRhIAk6Ab8gT8mBGRB6SZAsglxn3PSa/o8z8z99319Z+7Xa+aa5tN/es19zp49b7odf/zjH8ceeeSRBJQ1ceLEdOaZZ+bVTE8//XQaGhrKq4x3vetdady4cXnV78knn0y/+c1v8qpfZ2dnesc73pEXpTz00ENpZGQkr2Z65zvfmcaPH59X8xw4cCDdf//9eTVTV1dXOvvss/Mq4+GHH04vvPBCXkApZ5xxRjrmmGNSGhwcHGttx3EKn56enrGm6+/vr3w2dZ5WMOTblLFkyZLKe9V1Jk2alG9CSbNmzap8fZp0hoeH89NopvZnUdVzadLp7u7OT6Oc9u/mqrs5jlPvaTdr2yGtAQAAAKGJVwAAAMITrwAAAIQnXgEAAAhPvAIAABCeeAUAACA88QoAAEB44hUAAIDwxCsAAADhiVcAAADCE68AAACEJ14BAAAIT7wCAAAQnngFAAAgPPEKAABAeOIVAACA8MQrAAAA4YlXAAAAwhOvAAAAhCdeAQAACE+8AgAAEJ54BQAAIDzxCgAAQHjiFQAAgPDEKwAAAOGJVwAAAMITrwAAAIQnXgEAAAhPvAIAABCeeAUAACA88QoAAEB4HYODg2Pz5s3Ls4y77747nXTSSXlBGVdeeWX6wQ9+kFf9enp60oYNG/JqpltvvTVdeumleZVxyimnpEMOKfff9RYsWJDmz5+fV/0OPfTQdPLJJ+dVxr/8y7+ke+65J6/6velNb0rf/OY38ypj9uzZ6aGHHsqrfu9973vTihUr8iqj/bM4bty4vOq3atWq9OUvfzmv+h1xxBHpG9/4Rl5lLFmyJN1111151a+7uztt3bo1rzLmzJmTNm7cmFf95s6dm2666aa8oIwnn3wyXXDBBXmV0WrWgz8P7X+MtXbRMzQ0NAal9fb2Vr4/6zqteM03aa7+/v7KZ9Ok09fXl59Gc7UCvvLZ1HVmzZqVb1JO+w5Vd6vrtF+Dpmv/LFY9m7pOV1dXvkk5ixYtqrxbXacVr/km5bR/N1fdra7T/m4CpbVbrer9WedpN2ubPxsGAAAgPPEKAABAeOIVAACA8MQrAAAA4YlXAAAAwhOvAAAAhCdeAQAACE+8AgAAEJ54BQAAIDzxCgAAQHjiFQAAgPDEKwAAAOGJVwAAAMITrwAAAIQnXgEAAAhPvAIAABCeeAUAACA88QoAAEB44hUAAIDwxCsAAADhiVcAAADCE68AAACEJ14BAAAIT7wCAAAQnngFAAAgPPEKAABAeOIVAACA8MQrAAAA4YlXAAAAwhOvAAAAhNcxODg4Nm/evDzLGBoaSjNmzMirftu3b08bNmzIixKOOuqodNFFF+VVxvz589P69evzql9PT0/j34c/+clP0m233ZZXGf39/Wn//v151a+vry8tXbo0r2ZauHBhWrt2bV71mzVrVtq8eXNeZSxfvjz99re/zat+EydOTMcff3xezfTss8+mZ555Jq/6jRs3Lp1++ul5lfGNb3zj4OdyKd3d3Wnr1q15lTFnzpy0cePGvOrX29ub7rzzzrzKuP3229OLL76YFyW034elW+nUU0/Nq4xWs6a5c+ce/MdYaxc9rXgdK2nlypWV93LqO1OnTs2vRjmtXxCVd6vrtOI134SSurq6Kl+fuk4rXvNNmmvBggWVz6au04rXfJPmGhgYqHw2TTpLlizJT6OMkZGRyns16bTiNT+Nctq/m6vuVtdpfzcprf0drepuTn2n3SoltVut6l51nnaztvmzYQAAAMITrwAAAIQnXgEAAAhPvAIAABCeeAUAACA88QoAAEB44hUAAIDwxCsAAADhiVcAAADCE68AAACEJ14BAAAIT7wCAAAQnngFAAAgPPEKAABAeOIVAACA8MQrAAAA4YlXAAAAwhOvAAAAhCdeAQAACE+8AgAAEJ54BQAAIDzxCgAAQHjiFQAAgPDEKwAAAOGJVwAAAMITrwAAAIQnXgEAAAhPvAIAABCeeAUAACA88QoAAEB44hUAAIDwxCvwf2bNmpUOO+ywYuejH/1ovkk5zz//fNq7d2+xc+211+abUMqWLVsq359NOvfee2/l+7POM2nSpPyKNNOECRMqn0uTTvtnEeD/S7wC/2ffvn1Fz/79+/NNyuns7Kz8Ml/XGTduXL4JpYyNjVW+P5t0Dhw4UPn+rPOQKp9Lk8748ePzkwD4X+IVAACA8MQrAAAA4YlXAAAAwhOvAAAAhCdeAQAACE+8AgAAEJ54BQAAIDzxCgAAQHjiFQAAgPDEKwAAAOGJVwAAAMITrwAAAIQnXgEAAAhPvAIAABCeeAUAACA88QoAAEB44hUAAIDwxCsAAADhiVcAAADCE68AAACEJ14BAAAIT7wCAAAQnngFAAAgPPEKAABAeOIVAACA8MQrAAAA4YlXAAAAwhOvAAAAhCdeAQAACE+8AgAAEF7H4ODg2Lx58/IsY2hoKM2YMSOv+q1atSpdccUVeVHC1KlT01NPPZVXGfPnz0/r16/Pq349PT1pw4YNeZVx2223pWeffTav+p1++unpvPPOy6uZWp/J6b777surfkcddVS67rrr8ipj4cKFae3atXk10z/+4z+mv/zLv8yrfqOjo2n37t15lfGa17wmdXR05FW/PXv2pJdeeimv+h1++OGpr68vL0qZM2dO2rhxY1716+3tTXfeeWdeZUybNi3t3LkzL0pYuXJluvzyy/Oq3/bt29Opp56aVxnt70dz5849+I+x1i56WvE6VlLrDVF5L6e+04rX/GqU0/oFUXm3uk4rXvNNaLIlS5ZUvj/qOpMmTco3KWfBggWVd2vS2bRpU34aZQwMDFTeq84zPDycb1NGKxwr71XX6erqyjehpPbv5qrXp67T/m5SWvs7WtXdnPpOu1VKarda1b3qPO1mbfNnwwAAAIQnXgEAAAhPvAIAABCeeAUAACA88QoAAEB44hUAAIDwxCsAAADhiVcAAADCE68AAACEJ14BAAAIT7wCAAAQnngFAAAgPPEKAABAeOIVAACA8MQrAAAA4YlXAAAAwhOvAAAAhCdeAQAACE+8AgAAEJ54BQAAIDzxCgAAQHjiFQAAgPDEKwAAAOGJVwAAAMITrwAAAIQnXgEAAAhPvAIAABCeeAUAACA88QoAAEB44hUAAIDwOgYHB8fmzZuXZxlDQ0NpxowZedXv9ttvT9dcc01elPDa1742bdmyJa8y5s+fn9avX59X/Xp6etKGDRvyKmN4eDjt27cvr2aaOnVq6ujoyKt+X/jCF9JNN92UV/0mTpyY7r333rzKuP7669P3v//9vOrX/hl47rnn8ipj06ZNafbs2XnVb82aNenCCy/Mq4xt27alY445Jq/63XzzzQd/Hkvp6upKu3btyotS5syZkzZu3JhX/Xp7e9Odd96ZVxlnnXVWeuaZZ/KihBtvvDFddNFFedVv+/bt6dRTT82rjFazprlz5x78x1hrFz2teB2D0lq/ICrfn3WdVrzmm5TT3d1debcmnZGRkfw0mml4eLjyudR5BgYG8m3KaIVj5b3qPO07lNR+Daru5dR3WvGaXw1Kav9urnp96jrt7yZQWrvVqt6fdZ52s7b5s2EAAADCE68AAACEJ14BAAAIT7wCAAAQnngFAAAgPPEKAABAeOIVAACA8MQrAAAA4YlXAAAAwhOvAAAAhCdeAQAACE+8AgAAEJ54BQAAIDzxCgAAQHjiFQAAgPDEKwAAAOGJVwAAAMITrwAAAIQnXgEAAAhPvAIAABCeeAUAACA88QoAAEB44hUAAIDwxCsAAADhiVcAAADCE68AAACEJ14BAAAIT7wCAAAQnngFAAAgPPEKAABAeOIVAACA8DoGBwfH5s2bl2cZc+fOTV1dXXlBGZs2bUpPP/10XvXr6elJGzZsyKuMmTNnpm3btuVVv3POOSd97GMfy6uMO+64I+3fvz+v+i1YsCB94AMfyKt+zz33XJoyZUpeZQwMDKSFCxfmVb/Nmzens88+O68y2p9Hs2fPzqt+a9asSRdeeGFeZfT396cJEybkVb9169alb37zm3nVr/29aNeuXXmV8dWvfjXdf//9edXvhBNOSF/4whfyKmPOnDlp48aNedXvuOOOK/55BLt3704/+MEP8iqj1awHm7H9j7HWdhyn8GnF61hp3d3dlXer6yxatCjfpJzWF8bKu9V1+vr68k3KGB4errxXnacVr/k2ZbTCsfJedZ72HUpqvwZV96rztN+LJbV/FqvuVddpfxaV1v5MrrpbXaf9O6m09u/mqrs5jlPvaTdrmz8bBgAAIDzxCgAAQHjiFQAAgPDEKwAAAOGJVwAAAMITrwAAAIQnXgEAAAhPvAIAABCeeAUAACA88QoAAEB44hUAAIDwxCsAAADhiVcAAADCE68AAACEJ14BAAAIT7wCAAAQnngFAAAgPPEKAABAeOIVAACA8MQrAAAA4YlXAAAAwhOvAAAAhCdeAQAACE+8AgAAEJ54BQAAIDzxCgAAQHjiFQAAgPDEKwAAAOGJVwAAAMITrwAAAITXsWXLlrFPfepTeQKldHd3p6985St5lTFz5sy0bdu2vOp33nnnpWuuuSavMm644Ya0d+/evOr34Q9/OH3wgx/Mq37PPfdcmjJlSl5lLF26NJ177rl51e/xxx9Pl19+eV5lrFq1Kk2fPj2v+j322GPpW9/6Vl5lXHvttemII47Iq34/+tGP0n333ZdX/Q4//PC0ZMmSvMq48cYb07333ptX/dq/F7du3ZpXGR//+MeL/l4E/teXvvSldOaZZ6aOsZb8vwMarnS8RjAyMpImTJiQV/NEiFfKW7BgQVqzZk1eZUyePDk9//zzedWvHY7Lli3Lq367du1KRx99dF7NFCFegVj82TAAAADhiVcAAADCE68AAACEJ14BAAAIT7wCAAAQnngFAAAgPPEKAABAeOIVAACA8MQrAAAA4YlXAAAAwhOvAAAAhCdeAQAACE+8AgAAEJ54BQAAIDzxCgAAQHjiFQAAgPDEKwAAAOGJVwAAAMITrwAAAIQnXgEAAAhPvAIAABCeeAUAACA88QoAAEB44hUAAIDwxCsAAADhiVcAAADCE68AAACEJ14BAAAIT7wCAAAQnngFAAAgPPEKAABAeB1jLfnfxcyfPz89+eSTeTXTli1b0vjx4/OihE9/+tPpvvvuy6t+Z5xxRvr617+eVxm/+MUv0p49e/Kq3913352uv/76vMo4/fTT0yGHlPvveh/72MfSRz7ykbzqd+DAgfSzn/0srzKuvfbadO+99+bVTP/1X/+VTjvttLzqt2nTprRq1aq8yvj5z39+8P1YypIlS9KyZcvyqt+f//zn9Nhjj+VVRvvzuP25XEp3d3faunVrXmVcdtll6ZFHHsmrmQYHB9OUKVPyqt9tt92W/u3f/i2v+nV2dqaHHnooL4prx2tp06dPbwd0o8/evXvz06CU3t7eytemrtPT05Nv0lz9/f2Vz6ZJp6+vLz+N5lqwYEHls2nSacVjfhplDAwMVN6rSacVr/lpNNeiRYsqn01dpxWv+SbltH83V92tSWfHjh35aZSxfPnyynvVdVrxmm9CBP5sGAAAgPDEKwAAAOGJVwAAAMITrwAAAIQnXgEAAAhPvAIAABCeeAUAACA88QoAAEB44hUAAIDwxCsAAADhiVcAAADCE68AAACEJ14BAAAIT7wCAAAQnngFAAAgPPEKAABAeOIVAACA8MQrAAAA4YlXAAAAwhOvAAAAhCdeAQAACE+8AgAAEJ54BQAAIDzxCgAAQHjiFQAAgPDEKwAAAOGJVwAAAMITrwAAAIQnXgEAAAhPvAIAABBex1hL/ncxM2bMSI8//nhezbR379502GGH5VW/hx9+OP3sZz/Lq5na78Hnnnsur/qdcsop6ZprrsmrjLvvvjv98Y9/zKt+Dz74YOrv78+rmfr6+tLSpUvzqt/o6Ghas2ZNXmU88cQTaXh4OK/6Pf/88+mee+7Jq4xNmzal2bNn51W/zZs3p1WrVuVVxtq1aw++H0tZsmRJWrZsWV7NdMkll6TVq1fnVb/u7u60devWvMqYM2dO2rhxY17NtGPHjjRt2rS86rdixYp09dVX51W/zs7Oop9FbT/5yU8O/m5ssve85z3puOOOS6kdr6VNnz69HdCNPq14zU+jjKuuuqryXk0669aty0+juVpfFCqfjVPfacVrfjXKaEVj5b3qPAMDA/k2ZbTCsfJedZ72HZpu0qRJlc+mrtOK13yT5lq0aFHls6nrtH8nldbT01N5tyadVrzmp1HG8uXLK+9V12nFa75JOYsXL668W5PO4ODgwWfhz4YBAAAIT7wCAAAQnngFAAAgPPEKAABAeOIVAACA8MQrAAAA4YlXAAAAwhOvAAAAhCdeAQAACE+8AgAAEJ54BQAAIDzxCgAAQHjiFQAAgPDEKwAAAOGJVwAAAMITrwAAAIQnXgEAAAhPvAIAABCeeAUAACA88QoAAEB44hUAAIDwxCsAAADhiVcAAADCE68AAACEJ14BAAAIT7wCAAAQnngFAAAgPPEKAABAeOIVAACA8MQrAAAA4YlXAAAAwusYa8n/Luall15KBw4cyKuZTjrppDQ6OppX/T7zmc+kK664Iq9m+uhHP5q++93v5lW/t73tbenee+/Nq4yZM2embdu25UUJfX19aenSpXnVr/0rYffu3XmVccQRR6RDDz00r/q1fx+1fy+VdOSRR6Zx48blVb877rgjXXbZZXmV8dhjj6Vjjjkmr/oddthhB0+TXXLJJWn16tV51a+7uztt3bo1rzJefvnl9Morr+RVv7vvvjtdfPHFeZWxY8eONG3atLzqt2/fvrR379686tf+v3/iiSfmVcaNN96YLrroorzq94tf/CLNmjUrrzIGBwfT3LlzD35RIYDOzs72f0QodpYvX55v0ly9vb2Vz6au09PTk29STuuLQuXdnPpOK17zqwHlDAwMVL4/6zzDw8P5NpSyaNGiytemrtP+ndR069atq3w2dZ5WvObbNFMrnCufS51n5cqV+TZlDA0NVd6rztOK14N38WfDAAAAhCdeAQAACE+8AgAAEJ54BQAAIDzxCgAAQHjiFQAAgPDEKwAAAOGJVwAAAMITrwAAAIQnXgEAAAhPvAIAABCeeAUAACA88QoAAEB44hUAAIDwxCsAAADhiVcAAADCE68AAACEJ14BAAAIT7wCAAAQnngFAAAgPPEKAABAeOIVAACA8MQrAAAA4YlXAAAAwhOvAAAAhCdeAQAACE+8AgAAEJ54BQAAIDzxCgAAQHjiFQAAgPA6fv3rX4+tXr06zzI+8YlPpMmTJ+fVTJ///OfTK6+8klf9zj333PTWt741r2Zat25devzxx/Oq39jYWNq/f39eZfznf/5nevbZZ/Oq35vf/Ob0/ve/P68yPve5z6XR0dG86tfX15eWLl2aF031ta99Le3YsSOv+o0bN+7gKemf//mf0xFHHJFX87Q/h2644Ya8yvjOd76Ttm3bllf9/uIv/iJ95CMfyauZnnjiiYPfT0r65Cc/mbq6uvJqno6OjjR+/Pi8ynjve9+b3vKWt+RVv+effz6tXLkyrzIuuuiidMIJJ6SOwcHBsXnz5uX/dRlDQ0NpxowZeUEzbdiwIb3jHe/Iq5kWLVqUbr311rzKmDBhQtq9e3de9ROvtM2ePTs99NBDedVvwYIFac2aNXlRwq5du9LRRx+dF1BKZ2dn0f+ozf+fPxsGAAAgPPEKAABAeOIVAACA8MQrAAAA4YlXAAAAwhOvAAAAhCdeAQAACE+8AgAAEJ54BQAAIDzxCgAAQHjiFQAAgPDEKwAAAOGJVwAAAMITrwAAAIQnXgEAAAhPvAIAABCeeAUAACA88QoAAEB44hUAAIDwxCsAAADhiVcAAADCE68AAACEJ14BAAAIT7wCAAAQnngFAAAgPPEKAABAeOIVAACA8MQrAAAA4YlXAAAAwhOvAAAAhNcxODg4Nm/evDzLePDBB9PJJ5+cFzTTI488ki6++OK8ynjhhRfSgQMH8qrfggUL0s0335xXGSeeeGJ68cUX86pfX19fWrp0aV401V/91V8d/Ewo5fzzz08rVqzIq4xJkyaljo6OvJqn/Tl0wgkn5FXG7t270+joaF401THHHJMOOaTc/79rz5496aWXXsqrfp2dncV/DtqfB+3nUMqhhx6aJk6cmFdh7Xht/Q/HcQqfnp6esdK6u7sr7+bUd1rxml8NKGdgYKDy/VnnGR4ezrehlEWLFlW+Nk6zzo4dO/I7oozly5dX3quu04rXfJNyFi9eXHm3us706dPzTcrzZ8MAAACEJ14BAAAIT7wCAAAQnngFAAAgPPEKAABAeOIVAACA8MQrAAAA4YlXAAAAwhOvAAAAhCdeAQAACE+8AgAAEJ54BQAAIDzxCgAAQHjiFQAAgPDEKwAAAOGJVwAAAMITrwAAAIQnXgEAAAhPvAIAABCeeAUAACA88QoAAEB44hUAAIDwxCsAAADhiVcAAADCE68AAACEJ14BAAAIT7wCAAAQnngFAAAgPPEKAABAeOIVAACA8MQrAAAA4XUMDg6OzZs3L89meve7350uvfTSvMr40Ic+lF555ZW8KOHKK69MZ511Vl71+9Of/pR+/OMf51XGnDlz0oQJE/Kq34YNG9Itt9ySVzP19fWlpUuX5kUJTz75ZPHXYNmyZemkk07Kq35r1qxJF154YV5lDA8Pp8mTJ+dVv7vuuivdcccdeTXTzJkz07Rp0/JqpvbP4hNPPJFX/drfS9rfT0p6//vfn171qlflVb8VK1akq6++Oq/6dXZ2ptHR0bzK2LJlS/rVr36VV/1efPHF9KMf/SivMq699tp02mmnpdSO19Zu9Fm8ePFYaa0fjMq7OfWddevW5VejjAceeKDyXnWeRx99NN+mjP7+/sp7Nem04jU/DUrZtGlT5WtT52nfoaSBgYHKe9V5WvGab1NG+2ex6l5NOu3P5Kbr6empfDZ1nd7e3nyT5lq+fHnls6nrtL+jN93Q0FDls6nztJu1zZ8NAwAAEJ54BQAAIDzxCgAAQHjiFQAAgPDEKwAAAOGJVwAAAMITrwAAAIQnXgEAAAhPvAIAABCeeAUAACA88QoAAEB44hUAAIDwxCsAAADhiVcAAADCE68AAACEJ14BAAAIT7wCAAAQnngFAAAgPPEKAABAeOIVAACA8MQrAAAA4YlXAAAAwhOvAAAAhCdeAQAACE+8AgAAEJ54BQAAIDzxCgAAQHjiFQAAgPDEKwAAAOGJVwAAAMLr2Lx589jHP/7xPJupt7c3XX311XmV0dPTk/bt25cXJVx22WWpu7s7r/o9+eST6eabb86rjNtvvz294Q1vyKt+99xzT1q2bFlezbR48eJ06aWX5tVM7Z+F559/Pq/6/f73v09f/OIX8yqjv78/nXrqqXnVb3BwMC1dujSvMj7/+c+nI488Mq/6tV+Dr33ta3k105IlS9L555+fV/3ar/9pp52WVxmXX355evTRR/Oq38yZM4v/Tnjzm9+cOjs786rfihUrin5PHz9+fNq4cWNeZZxwwglpypQpedVv+/btRX8ntbV/L82dOzd1jLXk/x002vz589P69evzql/7P2Bs2LAhL2iuhQsXprVr1+ZVv1mzZqXNmzfnRSmTJ08u+h8xKK/9H5S3bt2aVzPdeeed6QMf+EBeZezYsSNNmzYtr/qVjtcIVq5cefA/pJQSKV792TAAAADhiVcAAADCE68AAACEJ14BAAAIT7wCAAAQnngFAAAgPPEKAABAeOIVAACA8MQrAAAA4YlXAAAAwhOvAAAAhCdeAQAACE+8AgAAEJ54BQAAIDzxCgAAQHjiFQAAgPDEKwAAAOGJVwAAAMITrwAAAIQnXgEAAAhPvAIAABCeeAUAACA88QoAAEB44hUAAIDwxCsAAADhiVcAAADCE68AAACEJ14BAAAIT7wCAAAQnngFAAAgPPEKAABAeB1jLfnfFNTT05P27duXFyVcdtllqbu7O6/6TZgwIU2fPj2vMi6++OL0y1/+Mq9m+uEPf5iOOOKIvOr3ta99LX3961/Pq34TJ05M3/ve9/IqY+HChWnt2rV51e/II49Mp556al5l9Pf3F79DaT/96U/T/v3786pf+zVo/zxSTvuz+LTTTsurmWbOnJkuvfTSvMq47rrr0v/8z//kVb9nnnkm7dixI6/6jR8/Pm3cuDGvMk444YQ0ZcqUvOq3Z8+e9Nhjj+VVRvs7cvu7sngN4rDDDhOvha1bty7Nnz8/r2Zq/5Lctm1bXs00MjJy8MOxlKVLl6Ybbrghr/pNmjQpPffcc3mVUTpeI9i0aVOaPXt2XpSwbNmyg1/aoaTe3t5055135lXGtGnT0s6dO/Nqns7OzjQ6OpoXpfmzYQAAAMITrwAAAIQnXgEAAAhPvAIAABCeeAUAACA88QoAAEB44hUAAIDwxCsAAADhiVcAAADCE68AAACEJ14BAAAIT7wCAAAQnngFAAAgPPEKAABAeOIVAACA8MQrAAAA4YlXAAAAwhOvAAAAhCdeAQAACE+8AgAAEJ54BQAAIDzxCgAAQHjiFQAAgPDEKwAAAOGJVwAAAMITrwAAAIQnXgEAAAhPvAIAABCeeAUAACA88QoAAEB4Hc8888zY/fffn2czveENb0hnnXVWXmV86EMfSvv378+LEs4888x07LHH5lW/KVOmpHPPPTevMq699tr0u9/9Lq/6/eY3v0mbN2/Oq4yRkZE0YcKEvOq3dOnSdMMNN+RVv0mTJqXnnnsurzIWLlyY1q5dm1cz9fX1pZNOOikvSrjrrrvSunXr8qrfoYcemv72b/82rzLan8ftz+VSXv3qV6fzzjsvrzLuu+++op+J7e+nV155ZV5l/Pd//3fas2dPXs0zfvz4dNttt+VVxpYtW9KvfvWrvJrpXe961/9+Tx8cHBxr7UafxYsXj0Fvb2/l+6Ou09PTk2/SXP39/ZXPps7Titd8mzKWLFlSea+6Tite803KWbBgQeXdHKdJp6urK/9ElLNo0aLKu9V1uru7803Kaf9urrpbk86OHTvy06CUdqtUvTZNOu1mbfNnwwAAAIQnXgEAAAhPvAIAABCeeAUAACA88QoAAEB44hUAAIDwxCsAAADhiVcAAADCE68AAACEJ14BAAAIT7wCAAAQnngFAAAgPPEKAABAeOIVAACA8MQrAAAA4YlXAAAAwhOvAAAAhCdeAQAACE+8AgAAEJ54BQAAIDzxCgAAQHjiFQAAgPDEKwAAAOGJVwAAAMITrwAAAIQnXgEAAAhPvAIAABCeeAUAACA88QoAAEB44hUAAIDwxCsAAADhdQwODo7NmzcvzzIefPDBdPLJJ+dVv29961vpX//1X/MqY+fOnamzszOv+vX19aWvfOUredXvuOOOS9u2bcurjF27dqXR0dG86vfII4+kiy++OK8yfvjDH6bTTjstr/q1n3/7dShp1qxZ6cUXX8yrfi+//PLBU0pHR0d6zWtek1cZu3fvLvqz+Ja3vCV973vfy6uZ1q9fny6//PK8ynj88ceLvhe/9KUvpRtvvDGv+nV1dRX/PGz/LO7duzev+j3xxBOpt7c3rzJGRkbS/v3786rf+eefn/r7+/Mqo/1zeMgh5f7/Xf/+7/+ePvvZz+ZVv8MOOyw99dRTeZXR/l6yZ8+evOr3y1/+Mr397W/Pq4xWs6a5c+ce/MdYaxc9Q0NDYyWtXLmy8l51ntYvh3ybMq666qrKe9V1pk6dmm/SXA888EDls6nzPProo/k2zdX6wlj5bJzmnFmzZuV3Q3MNDAxUPps6z/DwcL5NGX19fZX3quu0P4uarv07qerZNOm04j0/jeZavnx55bOp63R2duabNFe71aqeTZ2n3axt/mwYAACA8MQrAAAA4YlXAAAAwhOvAAAAhCdeAQAACE+8AgAAEJ54BQAAIDzxCgAAQHjiFQAAgPDEKwAAAOGJVwAAAMITrwAAAIQnXgEAAAhPvAIAABCeeAUAACA88QoAAEB44hUAAIDwxCsAAADhiVcAAADCE68AAACEJ14BAAAIT7wCAAAQnngFAAAgPPEKAABAeOIVAACA8MQrAAAA4YlXAAAAwhOvAAAAhCdeAQAACE+8AgAAEF7Hr3/967HVq1fnWcYnPvGJNHny5Lzqt2rVqnTFFVfkVcb111+fxo0bl1f9BgcH04MPPphX/SZMmJA+/elP59VMY2Njaf/+/XmVMX78+NTR0ZFXM7Vfg/ZrUcoDDzyQNm7cmBclTJs2LX30ox/Nq4zLLrssHXfccXnVb82aNenCCy/Mq4zh4eGi3w3aP4v33XdfXvVrfxa3P5NLuuCCC1J3d3de9fvDH/6QvvrVr+bVTKeeemr6+7//+7zKuPnmm9OuXbvyql/7+2n7e2op7e/n7e/pJb33ve9Nb3nLW/Kq3/bt2w++F0tqvwfmzp178Atz461cubL9TdVxip6enp78jiyn9SWl8m5NOiMjI/lplLFkyZLKeznNOps2bcrviDIGBgYq71XnacVrvk0ztT+Lqp5Lnae/vz/fhiabOnVq5fvDqe+0W6WkoaGhynvVeVrxevAu/mwYAACA8MQrAAAA4YlXAAAAwhOvAAAAhCdeAQAACE+8AgAAEJ54BQAAIDzxCgAAQHjiFQAAgPDEKwAAAOGJVwAAAMITrwAAAIQnXgEAAAhPvAIAABCeeAUAACA88QoAAEB44hUAAIDwxCsAAADhiVcAAADCE68AAACEJ14BAAAIT7wCAAAQnngFAAAgPPEKAABAeOIVAACA8MQrAAAA4YlXAAAAwhOvAAAAhCdeAQAACE+8AgAAEF7HK6+8MvbSSy/l2Uz9/f3pn/7pn/Iqo6urK/+rmcbGxtKLL76YVxmvetWr0qGHHppX/c4+++y0bt26vMp4z3vek4aGhvKq3/79+9PevXvzKuOpp54q+vP4uc99Lq1YsSKvZir9s3jgwIH08ssv51XG/fffn84444y86nfHHXekD3/4w3mVMTw8nCZPnpxX/fbt21f082j37t1p2rRpeZXxH//xH+nCCy/MixLGjx9/8DOxpOnTp6edO3fmVb/2z+Lo6GheZZT+nn7jjTemiy66KK/6/epXv0rnnHNOXmV8+9vf/t87DA4OjrW2U/i0fkG2+q25duzYUflc6jytcMy3KeOBBx6ovFed59FHH823KaO/v7/yXk6zzsDAQH5HlLFp06bKezn1nla85lekjL6+vsp7OU6dp7e3N78jm2v58uWVz6au09nZmW9SzuLFiyvvVteZPn16vkl5/mwYAACA8MQrAAAA4YlXAAAAwhOvAAAAhCdeAQAACE+8AgAAEJ54BQAAIDzxCgAAQHjiFQAAgPDEKwAAAOGJVwAAAMITrwAAAIQnXgEAAAhPvAIAABCeeAUAACA88QoAAEB44hUAAIDwxCsAAADhiVcAAADCE68AAACEJ14BAAAIT7wCAAAQnngFAAAgPPEKAABAeOIVAACA8MQrAAAA4YlXAAAAwhOvAAAAhCdeAQAACE+8AgAAEJ54BQAAILyOnTt3jn3/+9/Ps5l+9KMfpW984xt5lbF379502GGH5VW/O+64I333u9/Nq34vv/xy+ta3vpVXGeecc046/vjj86rfs88+m+699968yrjgggvSMccck1f9jj322HTyySfnVcY//MM/HPx5LOX9739/+uu//uu86rd79+70yU9+Mq8y5syZk0488cS86jdhwoQ0c+bMvJpp8+bN6ZZbbsmrjOHh4TR58uS86rdt27b005/+NK/6tT+H2p9HNFv7e0n7+0mT/fznP08PP/xwXvXr7OxMo6OjeZVx+eWXF/1Mnj59etq+fXtehY0xtnLlyrH2oyh5Wr+k8m3KuOqqqyrv5Th1nkWLFuV3ZDldXV2Vd6vr9PX15ZuU0QqGyns16cyaNSs/jeYaGBiofDZ1nvZ7sclGRkYqn4vjOPWeVrzmn8pyFi9eXHm3uk4rXvNNyvNnwwAAAIQnXgEAAAhPvAIAABCeeAUAACA88QoAAEB44hUAAIDwxCsAAADhiVcAAADCE68AAACEJ14BAAAIT7wCAAAQnngFAAAgPPEKAABAeOIVAACA8MQrAAAA4YlXAAAAwhOvAAAAhCdeAQAACE+8AgAAEJ54BQAAIDzxCgAAQHjiFQAAgPDEKwAAAOGJVwAAAMITrwAAAIQnXgEAAAhPvAIAABCeeAUAACA88QoAAEB44hUAAIDwOsZa8r8ba926demGG27Iq4wtW7ak8ePH51W/m266Ka1evTovmuoXv/hF2rt3b171u+CCC9JnP/vZvMq44oor0p49e/Kq38c+9rH0kY98JK/6vfDCC+mcc87Jq5lOOumktHTp0rya6d57703XXnttXmXcf//9aeLEiXnV79hjjz14SnnppZfS2972trzK2LFjR/rTn/6UV/0OP/zwdMopp+RFKdu3b0/79+/Pq3k6OzvT6OhoXmVcfvnl6ZZbbsmrfieeeGK688478yrj9a9/fTrqqKPEK/D/mjlzZtq2bVtezTQyMpImTJiQF020efPmdPbZZ+dFUy1ZsiQtW7Ysr2a65JJLiv6H7e7u7rR169a8KGXatGlp586deTWPeI1hcHAwzZ07158NAwAAEJ94BQAAIDzxCgAAQHjiFQAAgPDEKwAAAOGJVwAAAMITrwAAAIQnXgEAAAhPvAIAABCeeAUAACA88QoAAEB44hUAAIDwxCsAAADhiVcAAADCE68AAACEJ14BAAAIT7wCAAAQnngFAAAgPPEKAABAeOIVAACA8MQrAAAA4YlXAAAAwhOvAAAAhCdeAQAACE+8AgAAEJ54BQAAIDzxCgAAQHjiFQAAgPDEKwAAAOGJVwAAAMITrwAAAITXsWXLlrFPfepTeQKldHd3p6985St5lfHTn/40vfjii3k10w033JD27t2bF020e/futHXr1rya6dxzz01Lly7Nq5mOP/74g6fJLrnkkrR69eq86tf+vVj6Z/HjH/942rZtW171e8c73pGWLVuWVxnTpk1LO3fuzKt5Ojo60tvf/va8ynjf+96XzjrrrLzq9/vf/z598IMfzKuMwcHBNHfu3IP/GGttx3EKn56enjHK6+rqqnx9HKdJZ8GCBfkngiZbtGhR5fujrtOK13yTctq/m6vuVtfp7e3NNyln6tSplXdz6jsrV67Mr0YZQ0NDlfeq87Sbtc2fDQMAABCeeAUAACA88QoAAEB44hUAAIDwxCsAAADhiVcAAADCE68AAACEJ14BAAAIT7wCAAAQnngFAAAgPPEKAABAeOIVAACA8MQrAAAA4YlXAAAAwhOvAAAAhCdeAQAACE+8AgAAEJ54BQAAIDzxCgAAQHjiFQAAgPDEKwAAAOGJVwAAAMITrwAAAIQnXgEAAAhPvAIAABCeeAUAACA88QoAAEB44hUAAIDwxCsAAADhiVcAAADC6xgcHBybN29enmXMnTs3dXV15QVlbNq0KT399NN51a+npydt2LAhr2b6/e9/nx5++OG8yrj44ovTnj178qrfjBkz0hvf+Ma8mmnLli1px44dedVv4sSJ6ZxzzsmrjB/+8IfphRdeyKt+CxYsSGvWrMmrjHvuuSeNjo7mVb/p06cf/Hks5ZVXXknf/va38yrjq1/96sH3Yind3d1p69ateZWxdOnStH379rzq99a3vjV9+tOfzquMadOmpZ07d+bVPIccckj6m7/5m7zKmDVrVnr961+fV/127dp18DO5pOuvvz696U1vSqkdr61d9AwNDY1Bab29vZXvz7pOK17zTZqrv7+/8tk06fT19eWn0VytcKp8NnWd1peEfJNy2neoultdp/0alDZp0qTKu9V1lixZkm9SxsjISOW9mnRa8ZqfBiVNnTq18vVpyuns7MxPopzFixdX3q2uM3369HyT8vzZMAAAAOGJVwAAAMITrwAAAIQnXgEAAAhPvAIAABCeeAUAACA88QoAAEB44hUAAIDwxCsAAADhiVcAAADCE68AAACEJ14BAAAIT7wCAAAQnngFAAAgPPEKAABAeOIVAACA8MQrAAAA4YlXAAAAwhOvAAAAhCdeAQAACE+8AgAAEJ54BQAAIDzxCgAAQHjiFQAAgPDEKwAAAOGJVwAAAMITrwAAAIQnXgEAAAhPvAIAABCeeAUAACA88QoAAEB4HYODg2Pz5s3Ls4yhoaE0Y8aMvOp3++23p2uuuSYvSnjta1+btmzZklcZ8+fPT+vXr8+rfj09PWnDhg15NdOtt96aLr300ryaacKECamrqyuv+r3mNa9J27Zty6uMhQsXprVr1+ZVv87OzjR58uS8yujv7y/6e/GII45IxxxzTF5ltF+D559/Pq/6LVmyJC1btiyv+u3atSsdffTReTXT+PHj05QpU/KilD/84Q/pwIEDedXviiuuSNdee21e9evo6EhTp07Nq4zLL7883XLLLXnVb/r06Wn79u15FdaO19b/KHpa8TpW0sqVKyvv5dR3Wh8K+dUop7e3t/JudZ1WvOabNFfrC3vls3HqO5MmTcqvRjkLFiyovFuTzqZNm/LTaK72e7Hq2dR1WvGab1LGyMhI5b0cp2nnqquuyj8VzbV48eLKZ1PXacVrvkl5/mwYAACA8MQrAAAA4YlXAAAAwhOvAAAAhCdeAQAACE+8AgAAEJ54BQAAIDzxCgAAQHjiFQAAgPDEKwAAAOGJVwAAAMITrwAAAIQnXgEAAAhPvAIAABCeeAUAACA88QoAAEB44hUAAIDwxCsAAADhiVcAAADCE68AAACEJ14BAAAIT7wCAAAQnngFAAAgPPEKAABAeOIVAACA8MQrAAAA4YlXAAAAwhOvAAAAhCdeAQAACE+8AgAAEF7H4ODg2Lx58/IsY2hoKM2YMSOv+q1atSpdccUVeVHC1KlT01NPPZVXGfPnz0/r16/Pq349PT1pw4YNeTXTrbfemi699NK8yvjkJz+ZOjs782qeo446Kl133XV5lbFw4cK0du3avJpp06ZNafbs2Xk10+TJk9Pzzz+fV/2WLFmSli1bllf9du3alY4++ui8yjjvvPPSaaedllf9hoeH02233ZZXGQsWLEjTpk3Lq36//OUv07e//e28mumqq65KK1asyKt+Bw4cSF/84hfzKuOuu+46+HuhlOnTp6ft27fnVVg7Xlv/o+hpxetYSStXrqy8l1PfacVrfjXK6e3trbxbXacVr/kmzdXf31/5bOo8IyMj+TaU0vqyWPnaNOm0vqTkp9FckyZNqnw2dZ1WvOablNH+LKq6V52n/Zlc0qOPPlp5rzrPAw88kG9Txrp16yrv1aTTitf8NMrYu3dv5b2adFrxmp9Gef5sGAAAgPDEKwAAAOGJVwAAAMITrwAAAIQnXgEAAAhPvAIAABCeeAUAACA88QoAAEB44hUAAIDwxCsAAADhiVcAAADCE68AAACEJ14BAAAIT7wCAAAQnngFAAAgPPEKAABAeOIVAACA8MQrAAAA4YlXAAAAwhOvAAAAhCdeAQAACE+8AgAAEJ54BQAAIDzxCgAAQHjiFQAAgPDEKwAAAOGJVwAAAMITrwAAAIQnXgEAAAhPvAIAABCeeAX+z/79+9Po6GixMzY2ljo7O4uejo6O/DSaq+q1qfP8+c9/zjdprtI/i6+88kq+SXMdOHCg8tnUdfbt21f5GVXnaX8mV92trtP+OQDKK/1Z0D7tOxw0ODjY/lfRMzQ01LpPOStXrqy8l1PfmTp1an41yunt7a28W12np6cn36Sc7u7uyrvVdRYtWpRvQinDw8OVr43TrLNgwYL8jihn0qRJlXdryunq6spPopz2Z3LV3Zp0Hnjggfw0yli3bl3lvZp0rrrqqvw0yti7d2/lvZx6T7tZ2/x/XgEAAAhPvAIAABCeeAUAACA88QoAAEB44hUAAIDwxCsAAADhiVcAAADCE68AAACEJ14BAAAIT7wCAAAQnngFAAAgPPEKAABAeOIVAACA8MQrAAAA4YlXAAAAwhOvAAAAhCdeAQAACE+8AgAAEJ54BQAAIDzxCgAAQHjiFQAAgPDEKwAAAOGJVwAAAMITrwAAAIQnXgEAAAhPvAIAABCeeAUAACA88QoAAEB44hUAAIDwxCsAAADhiVcAAADC6xgcHBybN29enmUMDQ2lGTNm5FW/7du3pw0bNuRFCUcddVS66KKL8ipj/vz5af369XnVr6enp/j7cObMmWnbtm151e+UU05J73znO/Mq46abbkqHH354Xs3z3HPPpSlTpuRVxqWXXprOOuusvOr3u9/9Li1fvjyvMq6++ur0ute9Lq/6veENb0jvfve78yrjtttuS3v27Mmrft/97nfTd77znbzq19XVlXbt2pVXGZdccklavXp1XvWbNm1a+sxnPpNXGe973/vSa1/72rzq99vf/jZ9//vfz6uZhoeH09NPP51X/Q455JD0pje9KS9KOf/88w9+JohXyMRr+XiNYGRkJE2YMCGv5okQrwMDA2nhwoV51W/z5s3p7LPPzquMTZs2pdmzZ+dFCcuWLUvXXXddXvUTryl1d3enrVu35kVTrVix4uB/0Culs7MzjY6O5kVp/mwYAACA8MQrAAAA4YlXAAAAwhOvAAAAhCdeAQAACE+8AgAAEJ54BQAAIDzxCgAAQHjiFQAAgPDEKwAAAOGJVwAAAMITrwAAAIQnXgEAAAhPvAIAABCeeAUAACA88QoAAEB44hUAAIDwxCsAAADhiVcAAADCE68AAACEJ14BAAAIT7wCAAAQnngFAAAgPPEKAABAeOIVAACA8MQrAAAA4YlXAAAAwhOvAAAAhCdeAQAACE+8AgAAEF7H4ODg2Lx58/Is4+67704nnXRSXlDGlVdemX7wgx/kVb+enp60YcOGvMqYP39+evzxx/Oq38jISHr66afzKuOhhx5KRx55ZF7N88ILL6S3v/3teZUxMDCQFi5cmFf9fvazn6W/+7u/y6uMG2+8Mb3+9a/Pq5lOOeWUNG7cuLzqt2rVqvTlL385r/odddRRBz+PSrrkkkvS6tWr86rfG9/4xnTnnXfmVcbrXve6dMQRR+RVv927d6cdO3bk1Uz9/f3pi1/8Yl716+zsTKOjo3k10759+9Kvf/3rvMo4/vjj//f7WTteW9txnMKnFa9jTdf6BVX5bJxmnVa85ndEc82aNavy2TTpDA8P56dBKYsWLap8bZp0Hnjggfw0yli3bl3lvZz6Tite86vRXENDQ5XPps7TbtY2fzYMAABAeOIVAACA8MQrAAAA4YlXAAAAwhOvAAAAhCdeAQAACE+8AgAAEJ54BQAAIDzxCgAAQHjiFQAAgPDEKwAAAOGJVwAAAMITrwAAAIQnXgEAAAhPvAIAABCeeAUAACA88QoAAEB44hUAAIDwxCsAAADhiVcAAADCE68AAACEJ14BAAAIT7wCAAAQnngFAAAgPPEKAABAeOIVAACA8MQrAAAA4YlXAAAAwhOvAAAAhCdeAQAACE+8AgAAEF7HH//4x7FHHnkkT6CUiRMnpjPPPDOvZnr66afT0NBQXjTV6aefno499ti8mumhhx5KIyMjeTXTO9/5zjR+/Pi8KGH79u1p586deTXTWWedlV796lfnVb/h4eG0bdu2vCjhkEMOSe9+97vzaqaXXnop/fjHP86rjDPOOCMdc8wx6f8BWeiSmU9o2j4AAAAASUVORK5CYII=;" parent="1" vertex="1">
          <mxGeometry x="726.29" y="-1025.82" width="110.11" height="110" as="geometry" />
        </mxCell>
        <mxCell id="wNZ1jNhqM1yubl_F3X3Q-14" value="&lt;font face=&quot;Verdana&quot;&gt;My Tests Code&lt;/font&gt;" style="text;html=1;strokeColor=none;fillColor=none;align=center;verticalAlign=middle;whiteSpace=wrap;rounded=0;fontStyle=1" parent="1" vertex="1">
          <mxGeometry x="700" y="-915.82" width="162" height="20" as="geometry" />
        </mxCell>
        <mxCell id="wNZ1jNhqM1yubl_F3X3Q-15" value="Hepatitis" style="rounded=1;fillColor=#F0F2F5;strokeColor=#D8DCE3;fontColor=#000000;align=left;verticalAlign=middle;fontStyle=0;fontSize=12;labelPosition=right;verticalLabelPosition=middle;spacingLeft=10;html=1;shadow=0;dashed=0" parent="1" vertex="1">
          <mxGeometry x="669.6666666666667" y="-1232.6061271676301" width="17.599999999999998" height="12.485549132947975" as="geometry" />
        </mxCell>
        <mxCell id="wNZ1jNhqM1yubl_F3X3Q-17" value="Tuberculosis (TB)" style="html=1;shadow=0;dashed=0;shape=mxgraph.atlassian.checkbox_2;fillColor=#0057D8;strokeColor=none;fontColor=#000000;align=left;verticalAlign=middle;fontStyle=0;fontSize=12;labelPosition=right;verticalLabelPosition=middle;spacingLeft=10" parent="1" vertex="1">
          <mxGeometry x="669.6666666666667" y="-1258.3330057803466" width="17.599999999999998" height="12.485549132947975" as="geometry" />
        </mxCell>
        <mxCell id="wNZ1jNhqM1yubl_F3X3Q-19" value="Generate" style="rounded=1;fillColor=#0057D8;strokeColor=none;fontColor=#ffffff;align=center;verticalAlign=middle;fontStyle=0;fontSize=14;html=1;shadow=0;dashed=0" parent="1" vertex="1">
          <mxGeometry x="706" y="-1092.7599999999998" width="150" height="33.87" as="geometry" />
        </mxCell>
        <mxCell id="wNZ1jNhqM1yubl_F3X3Q-202" style="edgeStyle=orthogonalEdgeStyle;rounded=0;orthogonalLoop=1;jettySize=auto;html=1;entryX=0;entryY=0.5;entryDx=0;entryDy=0;fillColor=#3333FF;" parent="1" source="wNZ1jNhqM1yubl_F3X3Q-21" edge="1">
          <mxGeometry relative="1" as="geometry">
            <mxPoint x="1041" y="-555.82" as="targetPoint" />
            <Array as="points">
              <mxPoint x="1001" y="-1283.82" />
              <mxPoint x="1001" y="-555.82" />
            </Array>
          </mxGeometry>
        </mxCell>
        <mxCell id="wNZ1jNhqM1yubl_F3X3Q-21" value="" style="shape=image;html=1;verticalAlign=top;verticalLabelPosition=bottom;labelBackgroundColor=#ffffff;imageAspect=0;aspect=fixed;image=https://cdn2.iconfinder.com/data/icons/bitsies/128/Add-128.png" parent="1" vertex="1">
          <mxGeometry x="883" y="-1291" width="14.18" height="14.18" as="geometry" />
        </mxCell>
        <mxCell id="wNZ1jNhqM1yubl_F3X3Q-22" value="" style="verticalLabelPosition=bottom;verticalAlign=top;html=1;shadow=0;dashed=0;strokeWidth=1;shape=mxgraph.ios.iArrowIcon;fillColor=#8BbEff;fillColor2=#135Ec8;strokeColor=#ffffff;" parent="1" vertex="1">
          <mxGeometry x="871.3400000000001" y="-1258.33" width="15" height="15" as="geometry" />
        </mxCell>
        <mxCell id="wNZ1jNhqM1yubl_F3X3Q-23" value="" style="verticalLabelPosition=bottom;verticalAlign=top;html=1;shadow=0;dashed=0;strokeWidth=1;shape=mxgraph.ios.iArrowIcon;fillColor=#8BbEff;fillColor2=#135Ec8;strokeColor=#ffffff;" parent="1" vertex="1">
          <mxGeometry x="871.3400000000001" y="-1232.61" width="15" height="15" as="geometry" />
        </mxCell>
        <mxCell id="wNZ1jNhqM1yubl_F3X3Q-24" value="" style="verticalLabelPosition=bottom;verticalAlign=top;html=1;shadow=0;dashed=0;strokeWidth=1;shape=mxgraph.ios.iArrowIcon;fillColor=#8BbEff;fillColor2=#135Ec8;strokeColor=#ffffff;" parent="1" vertex="1">
          <mxGeometry x="871.3400000000001" y="-1205.34" width="15" height="15" as="geometry" />
        </mxCell>
        <mxCell id="wNZ1jNhqM1yubl_F3X3Q-25" value="" style="verticalLabelPosition=bottom;verticalAlign=top;html=1;shadow=0;dashed=0;strokeWidth=1;shape=mxgraph.ios.iArrowIcon;fillColor=#8BbEff;fillColor2=#135Ec8;strokeColor=#ffffff;" parent="1" vertex="1">
          <mxGeometry x="871.3400000000001" y="-1178.3" width="15" height="15" as="geometry" />
        </mxCell>
        <mxCell id="wNZ1jNhqM1yubl_F3X3Q-201" style="edgeStyle=orthogonalEdgeStyle;rounded=0;orthogonalLoop=1;jettySize=auto;html=1;fillColor=#3333FF;entryX=1;entryY=0.5;entryDx=0;entryDy=0;" parent="1" source="wNZ1jNhqM1yubl_F3X3Q-26" target="wNZ1jNhqM1yubl_F3X3Q-63" edge="1">
          <mxGeometry relative="1" as="geometry">
            <mxPoint x="971" y="-1144.8" as="targetPoint" />
            <Array as="points">
              <mxPoint x="961" y="-1144.82" />
              <mxPoint x="961" y="-555.82" />
            </Array>
          </mxGeometry>
        </mxCell>
        <mxCell id="wNZ1jNhqM1yubl_F3X3Q-26" value="" style="verticalLabelPosition=bottom;verticalAlign=top;html=1;shadow=0;dashed=0;strokeWidth=1;shape=mxgraph.ios.iArrowIcon;fillColor=#8BbEff;fillColor2=#135Ec8;strokeColor=#ffffff;" parent="1" vertex="1">
          <mxGeometry x="871.3400000000001" y="-1152.3" width="15" height="15" as="geometry" />
        </mxCell>
        <mxCell id="wNZ1jNhqM1yubl_F3X3Q-27" value="" style="endArrow=none;html=1;exitX=-0.001;exitY=0.423;exitDx=0;exitDy=0;exitPerimeter=0;" parent="1" source="wNZ1jNhqM1yubl_F3X3Q-10" edge="1">
          <mxGeometry width="50" height="50" relative="1" as="geometry">
            <mxPoint x="932.3400000000001" y="-1145.82" as="sourcePoint" />
            <mxPoint x="903.3400000000001" y="-1125.82" as="targetPoint" />
          </mxGeometry>
        </mxCell>
        <mxCell id="wNZ1jNhqM1yubl_F3X3Q-28" value="" style="html=1;verticalLabelPosition=bottom;labelBackgroundColor=#ffffff;verticalAlign=top;shadow=0;dashed=0;strokeWidth=2;shape=mxgraph.ios7.misc.scroll_(vertical);fillColor=#a0a0a0;" parent="1" vertex="1">
          <mxGeometry x="896.01" y="-1240.35" width="6" height="80" as="geometry" />
        </mxCell>
        <mxCell id="wNZ1jNhqM1yubl_F3X3Q-29" value="Pap Smear" style="rounded=1;fillColor=#F0F2F5;strokeColor=#D8DCE3;fontColor=#000000;align=left;verticalAlign=middle;fontStyle=0;fontSize=12;labelPosition=right;verticalLabelPosition=middle;spacingLeft=10;html=1;shadow=0;dashed=0" parent="1" vertex="1">
          <mxGeometry x="669.6666666666667" y="-1178.3014450867051" width="17.599999999999998" height="12.485549132947975" as="geometry" />
        </mxCell>
        <mxCell id="wNZ1jNhqM1yubl_F3X3Q-30" value="COVID-19 (SARS-CoV-2)" style="html=1;shadow=0;dashed=0;shape=mxgraph.atlassian.checkbox_2;fillColor=#0057D8;strokeColor=none;fontColor=#000000;align=left;verticalAlign=middle;fontStyle=0;fontSize=12;labelPosition=right;verticalLabelPosition=middle;spacingLeft=10" parent="1" vertex="1">
          <mxGeometry x="669.6666666666667" y="-1152.3030057803467" width="17.599999999999998" height="12.485549132947975" as="geometry" />
        </mxCell>
        <mxCell id="wNZ1jNhqM1yubl_F3X3Q-33" value="HIV" style="rounded=1;fillColor=#F0F2F5;strokeColor=#D8DCE3;fontColor=#000000;align=left;verticalAlign=middle;fontStyle=0;fontSize=12;labelPosition=right;verticalLabelPosition=middle;spacingLeft=10;html=1;shadow=0;dashed=0" parent="1" vertex="1">
          <mxGeometry x="669.6666666666667" y="-1205.3361271676301" width="17.599999999999998" height="12.485549132947975" as="geometry" />
        </mxCell>
        <mxCell id="wNZ1jNhqM1yubl_F3X3Q-38" value="" style="shape=flexArrow;endArrow=classic;html=1;fillColor=#3333FF;" parent="1" edge="1">
          <mxGeometry width="50" height="50" relative="1" as="geometry">
            <mxPoint x="381" y="-1392.82" as="sourcePoint" />
            <mxPoint x="381" y="-1322.82" as="targetPoint" />
          </mxGeometry>
        </mxCell>
        <mxCell id="wNZ1jNhqM1yubl_F3X3Q-63" value="" style="rounded=1;whiteSpace=wrap;html=1;" parent="1" vertex="1">
          <mxGeometry x="641" y="-795.82" width="280" height="480" as="geometry" />
        </mxCell>
        <mxCell id="wNZ1jNhqM1yubl_F3X3Q-64" value="" style="ellipse;whiteSpace=wrap;html=1;" parent="1" vertex="1">
          <mxGeometry x="762.9473684210527" y="-362.87573770491787" width="36.10526315789473" height="39.18688524590165" as="geometry" />
        </mxCell>
        <mxCell id="wNZ1jNhqM1yubl_F3X3Q-65" value="" style="rounded=0;whiteSpace=wrap;html=1;" parent="1" vertex="1">
          <mxGeometry x="659.6642105263159" y="-776.9977049180328" width="242.66421052631577" height="406.09573770491806" as="geometry" />
        </mxCell>
        <mxCell id="wNZ1jNhqM1yubl_F3X3Q-66" value="Test Details" style="rounded=0;whiteSpace=wrap;html=1;" parent="1" vertex="1">
          <mxGeometry x="660.6600000000001" y="-776.0000000000001" width="241.34" height="24" as="geometry" />
        </mxCell>
        <mxCell id="wNZ1jNhqM1yubl_F3X3Q-127" value="COVID-19 (SARS-CoV-2)" style="text;html=1;strokeColor=none;fillColor=none;align=center;verticalAlign=middle;whiteSpace=wrap;rounded=0;" parent="1" vertex="1">
          <mxGeometry x="702.6700000000001" y="-738.82" width="150" height="20" as="geometry" />
        </mxCell>
        <mxCell id="wNZ1jNhqM1yubl_F3X3Q-129" value="" style="shape=table;html=1;whiteSpace=wrap;startSize=0;container=1;collapsible=0;childLayout=tableLayout;" parent="1" vertex="1">
          <mxGeometry x="674" y="-711.82" width="220" height="250" as="geometry" />
        </mxCell>
        <mxCell id="wNZ1jNhqM1yubl_F3X3Q-130" value="" style="shape=partialRectangle;html=1;whiteSpace=wrap;collapsible=0;dropTarget=0;pointerEvents=0;fillColor=none;top=0;left=0;bottom=0;right=0;points=[[0,0.5],[1,0.5]];portConstraint=eastwest;" parent="wNZ1jNhqM1yubl_F3X3Q-129" vertex="1">
          <mxGeometry width="220" height="50" as="geometry" />
        </mxCell>
        <mxCell id="wNZ1jNhqM1yubl_F3X3Q-131" value="&lt;b&gt;Date&lt;/b&gt;" style="shape=partialRectangle;html=1;whiteSpace=wrap;connectable=0;overflow=hidden;fillColor=none;top=0;left=0;bottom=0;right=0;" parent="wNZ1jNhqM1yubl_F3X3Q-130" vertex="1">
          <mxGeometry width="110" height="50" as="geometry" />
        </mxCell>
        <mxCell id="wNZ1jNhqM1yubl_F3X3Q-132" value="&lt;b&gt;Result&lt;/b&gt;" style="shape=partialRectangle;html=1;whiteSpace=wrap;connectable=0;overflow=hidden;fillColor=none;top=0;left=0;bottom=0;right=0;" parent="wNZ1jNhqM1yubl_F3X3Q-130" vertex="1">
          <mxGeometry x="110" width="110" height="50" as="geometry" />
        </mxCell>
        <mxCell id="wNZ1jNhqM1yubl_F3X3Q-133" value="" style="shape=partialRectangle;html=1;whiteSpace=wrap;collapsible=0;dropTarget=0;pointerEvents=0;fillColor=none;top=0;left=0;bottom=0;right=0;points=[[0,0.5],[1,0.5]];portConstraint=eastwest;" parent="wNZ1jNhqM1yubl_F3X3Q-129" vertex="1">
          <mxGeometry y="50" width="220" height="50" as="geometry" />
        </mxCell>
        <mxCell id="wNZ1jNhqM1yubl_F3X3Q-134" value="January 28 2021" style="shape=partialRectangle;html=1;whiteSpace=wrap;connectable=0;overflow=hidden;fillColor=none;top=0;left=0;bottom=0;right=0;" parent="wNZ1jNhqM1yubl_F3X3Q-133" vertex="1">
          <mxGeometry width="110" height="50" as="geometry" />
        </mxCell>
        <mxCell id="wNZ1jNhqM1yubl_F3X3Q-135" value="Negative" style="shape=partialRectangle;html=1;whiteSpace=wrap;connectable=0;overflow=hidden;fillColor=none;top=0;left=0;bottom=0;right=0;" parent="wNZ1jNhqM1yubl_F3X3Q-133" vertex="1">
          <mxGeometry x="110" width="110" height="50" as="geometry" />
        </mxCell>
        <mxCell id="wNZ1jNhqM1yubl_F3X3Q-136" value="" style="shape=partialRectangle;html=1;whiteSpace=wrap;collapsible=0;dropTarget=0;pointerEvents=0;fillColor=none;top=0;left=0;bottom=0;right=0;points=[[0,0.5],[1,0.5]];portConstraint=eastwest;" parent="wNZ1jNhqM1yubl_F3X3Q-129" vertex="1">
          <mxGeometry y="100" width="220" height="50" as="geometry" />
        </mxCell>
        <mxCell id="wNZ1jNhqM1yubl_F3X3Q-137" value="" style="shape=partialRectangle;html=1;whiteSpace=wrap;connectable=0;overflow=hidden;fillColor=none;top=0;left=0;bottom=0;right=0;" parent="wNZ1jNhqM1yubl_F3X3Q-136" vertex="1">
          <mxGeometry width="110" height="50" as="geometry" />
        </mxCell>
        <mxCell id="wNZ1jNhqM1yubl_F3X3Q-138" value="" style="shape=partialRectangle;html=1;whiteSpace=wrap;connectable=0;overflow=hidden;fillColor=none;top=0;left=0;bottom=0;right=0;" parent="wNZ1jNhqM1yubl_F3X3Q-136" vertex="1">
          <mxGeometry x="110" width="110" height="50" as="geometry" />
        </mxCell>
        <mxCell id="wNZ1jNhqM1yubl_F3X3Q-142" value="" style="shape=partialRectangle;html=1;whiteSpace=wrap;collapsible=0;dropTarget=0;pointerEvents=0;fillColor=none;top=0;left=0;bottom=0;right=0;points=[[0,0.5],[1,0.5]];portConstraint=eastwest;" parent="wNZ1jNhqM1yubl_F3X3Q-129" vertex="1">
          <mxGeometry y="150" width="220" height="50" as="geometry" />
        </mxCell>
        <mxCell id="wNZ1jNhqM1yubl_F3X3Q-143" value="" style="shape=partialRectangle;html=1;whiteSpace=wrap;connectable=0;overflow=hidden;fillColor=none;top=0;left=0;bottom=0;right=0;" parent="wNZ1jNhqM1yubl_F3X3Q-142" vertex="1">
          <mxGeometry width="110" height="50" as="geometry" />
        </mxCell>
        <mxCell id="wNZ1jNhqM1yubl_F3X3Q-144" value="" style="shape=partialRectangle;html=1;whiteSpace=wrap;connectable=0;overflow=hidden;fillColor=none;top=0;left=0;bottom=0;right=0;" parent="wNZ1jNhqM1yubl_F3X3Q-142" vertex="1">
          <mxGeometry x="110" width="110" height="50" as="geometry" />
        </mxCell>
        <mxCell id="wNZ1jNhqM1yubl_F3X3Q-145" value="" style="shape=partialRectangle;html=1;whiteSpace=wrap;collapsible=0;dropTarget=0;pointerEvents=0;fillColor=none;top=0;left=0;bottom=0;right=0;points=[[0,0.5],[1,0.5]];portConstraint=eastwest;" parent="wNZ1jNhqM1yubl_F3X3Q-129" vertex="1">
          <mxGeometry y="200" width="220" height="50" as="geometry" />
        </mxCell>
        <mxCell id="wNZ1jNhqM1yubl_F3X3Q-146" value="" style="shape=partialRectangle;html=1;whiteSpace=wrap;connectable=0;overflow=hidden;fillColor=none;top=0;left=0;bottom=0;right=0;" parent="wNZ1jNhqM1yubl_F3X3Q-145" vertex="1">
          <mxGeometry width="110" height="50" as="geometry" />
        </mxCell>
        <mxCell id="wNZ1jNhqM1yubl_F3X3Q-147" value="" style="shape=partialRectangle;html=1;whiteSpace=wrap;connectable=0;overflow=hidden;fillColor=none;top=0;left=0;bottom=0;right=0;" parent="wNZ1jNhqM1yubl_F3X3Q-145" vertex="1">
          <mxGeometry x="110" width="110" height="50" as="geometry" />
        </mxCell>
        <mxCell id="wNZ1jNhqM1yubl_F3X3Q-149" value="January 19 2021" style="shape=partialRectangle;html=1;whiteSpace=wrap;connectable=0;overflow=hidden;fillColor=none;top=0;left=0;bottom=0;right=0;" parent="1" vertex="1">
          <mxGeometry x="674" y="-611.82" width="110" height="50" as="geometry" />
        </mxCell>
        <mxCell id="wNZ1jNhqM1yubl_F3X3Q-150" value="Negative" style="shape=partialRectangle;html=1;whiteSpace=wrap;connectable=0;overflow=hidden;fillColor=none;top=0;left=0;bottom=0;right=0;" parent="1" vertex="1">
          <mxGeometry x="784" y="-611.82" width="110" height="50" as="geometry" />
        </mxCell>
        <mxCell id="wNZ1jNhqM1yubl_F3X3Q-151" value="December 21 2020" style="shape=partialRectangle;html=1;whiteSpace=wrap;connectable=0;overflow=hidden;fillColor=none;top=0;left=0;bottom=0;right=0;" parent="1" vertex="1">
          <mxGeometry x="674" y="-561.82" width="110" height="50" as="geometry" />
        </mxCell>
        <mxCell id="wNZ1jNhqM1yubl_F3X3Q-152" value="Negative" style="shape=partialRectangle;html=1;whiteSpace=wrap;connectable=0;overflow=hidden;fillColor=none;top=0;left=0;bottom=0;right=0;" parent="1" vertex="1">
          <mxGeometry x="784" y="-561.82" width="110" height="50" as="geometry" />
        </mxCell>
        <mxCell id="wNZ1jNhqM1yubl_F3X3Q-153" value="November 07 2020" style="shape=partialRectangle;html=1;whiteSpace=wrap;connectable=0;overflow=hidden;fillColor=none;top=0;left=0;bottom=0;right=0;" parent="1" vertex="1">
          <mxGeometry x="674" y="-511.82000000000005" width="110" height="50" as="geometry" />
        </mxCell>
        <mxCell id="wNZ1jNhqM1yubl_F3X3Q-154" value="Negative" style="shape=partialRectangle;html=1;whiteSpace=wrap;connectable=0;overflow=hidden;fillColor=none;top=0;left=0;bottom=0;right=0;" parent="1" vertex="1">
          <mxGeometry x="784" y="-511.82000000000005" width="110" height="50" as="geometry" />
        </mxCell>
        <mxCell id="wNZ1jNhqM1yubl_F3X3Q-155" value="Share Most Recent Only" style="html=1;shadow=0;dashed=0;shape=mxgraph.atlassian.checkbox_2;fillColor=#0057D8;strokeColor=none;fontColor=#000000;align=left;verticalAlign=middle;fontStyle=0;fontSize=12;labelPosition=right;verticalLabelPosition=middle;spacingLeft=10" parent="1" vertex="1">
          <mxGeometry x="685.0666666666668" y="-430.03300578034674" width="17.599999999999998" height="12.485549132947975" as="geometry" />
        </mxCell>
        <mxCell id="wNZ1jNhqM1yubl_F3X3Q-160" value="Share All" style="rounded=1;fillColor=#F0F2F5;strokeColor=#D8DCE3;fontColor=#000000;align=left;verticalAlign=middle;fontStyle=0;fontSize=12;labelPosition=right;verticalLabelPosition=middle;spacingLeft=10;html=1;shadow=0;dashed=0" parent="1" vertex="1">
          <mxGeometry x="685.0666666666668" y="-408.3014450867054" width="17.599999999999998" height="12.485549132947975" as="geometry" />
        </mxCell>
        <mxCell id="wNZ1jNhqM1yubl_F3X3Q-165" value="" style="rounded=1;whiteSpace=wrap;html=1;" parent="1" vertex="1">
          <mxGeometry x="-160" y="-795.82" width="280" height="480" as="geometry" />
        </mxCell>
        <mxCell id="wNZ1jNhqM1yubl_F3X3Q-166" value="" style="ellipse;whiteSpace=wrap;html=1;" parent="1" vertex="1">
          <mxGeometry x="-38.052631578947285" y="-362.87573770491787" width="36.10526315789473" height="39.18688524590165" as="geometry" />
        </mxCell>
        <mxCell id="wNZ1jNhqM1yubl_F3X3Q-167" value="" style="rounded=0;whiteSpace=wrap;html=1;" parent="1" vertex="1">
          <mxGeometry x="-141.33578947368414" y="-776.9977049180328" width="242.66421052631577" height="406.09573770491806" as="geometry" />
        </mxCell>
        <mxCell id="wNZ1jNhqM1yubl_F3X3Q-168" value="Add Vaccine Information" style="rounded=0;whiteSpace=wrap;html=1;" parent="1" vertex="1">
          <mxGeometry x="-140.33999999999992" y="-776.0000000000001" width="241.34" height="24" as="geometry" />
        </mxCell>
        <mxCell id="wNZ1jNhqM1yubl_F3X3Q-170" value="Add" style="rounded=1;fillColor=#0057D8;strokeColor=none;fontColor=#ffffff;align=center;verticalAlign=middle;fontStyle=0;fontSize=14;html=1;shadow=0;dashed=0" parent="1" vertex="1">
          <mxGeometry x="-93" y="-415.81999999999977" width="150" height="33.87" as="geometry" />
        </mxCell>
        <mxCell id="wNZ1jNhqM1yubl_F3X3Q-171" value="" style="rounded=1;whiteSpace=wrap;html=1;" parent="1" vertex="1">
          <mxGeometry x="-560" y="-795.82" width="280" height="480" as="geometry" />
        </mxCell>
        <mxCell id="wNZ1jNhqM1yubl_F3X3Q-172" value="" style="ellipse;whiteSpace=wrap;html=1;" parent="1" vertex="1">
          <mxGeometry x="-438.0526315789473" y="-362.87573770491787" width="36.10526315789473" height="39.18688524590165" as="geometry" />
        </mxCell>
        <mxCell id="wNZ1jNhqM1yubl_F3X3Q-173" value="" style="rounded=0;whiteSpace=wrap;html=1;" parent="1" vertex="1">
          <mxGeometry x="-541.3357894736841" y="-776.9977049180328" width="242.66421052631577" height="406.09573770491806" as="geometry" />
        </mxCell>
        <mxCell id="wNZ1jNhqM1yubl_F3X3Q-174" value="Vaccine Details" style="rounded=0;whiteSpace=wrap;html=1;" parent="1" vertex="1">
          <mxGeometry x="-540.3399999999999" y="-776.0000000000001" width="241.34" height="24" as="geometry" />
        </mxCell>
        <mxCell id="wNZ1jNhqM1yubl_F3X3Q-176" value="COVID-19 (SARS-CoV-2)" style="text;html=1;strokeColor=none;fillColor=none;align=center;verticalAlign=middle;whiteSpace=wrap;rounded=0;" parent="1" vertex="1">
          <mxGeometry x="-498.3299999999999" y="-738.82" width="150" height="20" as="geometry" />
        </mxCell>
        <mxCell id="wNZ1jNhqM1yubl_F3X3Q-177" value="" style="shape=table;html=1;whiteSpace=wrap;startSize=0;container=1;collapsible=0;childLayout=tableLayout;" parent="1" vertex="1">
          <mxGeometry x="-527" y="-711.82" width="220" height="150" as="geometry" />
        </mxCell>
        <mxCell id="wNZ1jNhqM1yubl_F3X3Q-178" value="" style="shape=partialRectangle;html=1;whiteSpace=wrap;collapsible=0;dropTarget=0;pointerEvents=0;fillColor=none;top=0;left=0;bottom=0;right=0;points=[[0,0.5],[1,0.5]];portConstraint=eastwest;" parent="wNZ1jNhqM1yubl_F3X3Q-177" vertex="1">
          <mxGeometry width="220" height="50" as="geometry" />
        </mxCell>
        <mxCell id="wNZ1jNhqM1yubl_F3X3Q-179" value="&lt;b&gt;Date&lt;/b&gt;" style="shape=partialRectangle;html=1;whiteSpace=wrap;connectable=0;overflow=hidden;fillColor=none;top=0;left=0;bottom=0;right=0;" parent="wNZ1jNhqM1yubl_F3X3Q-178" vertex="1">
          <mxGeometry width="110" height="50" as="geometry" />
        </mxCell>
        <mxCell id="wNZ1jNhqM1yubl_F3X3Q-180" value="&lt;b&gt;Result&lt;/b&gt;" style="shape=partialRectangle;html=1;whiteSpace=wrap;connectable=0;overflow=hidden;fillColor=none;top=0;left=0;bottom=0;right=0;" parent="wNZ1jNhqM1yubl_F3X3Q-178" vertex="1">
          <mxGeometry x="110" width="110" height="50" as="geometry" />
        </mxCell>
        <mxCell id="wNZ1jNhqM1yubl_F3X3Q-181" value="" style="shape=partialRectangle;html=1;whiteSpace=wrap;collapsible=0;dropTarget=0;pointerEvents=0;fillColor=none;top=0;left=0;bottom=0;right=0;points=[[0,0.5],[1,0.5]];portConstraint=eastwest;" parent="wNZ1jNhqM1yubl_F3X3Q-177" vertex="1">
          <mxGeometry y="50" width="220" height="50" as="geometry" />
        </mxCell>
        <mxCell id="wNZ1jNhqM1yubl_F3X3Q-182" value="February 14 2021" style="shape=partialRectangle;html=1;whiteSpace=wrap;connectable=0;overflow=hidden;fillColor=none;top=0;left=0;bottom=0;right=0;" parent="wNZ1jNhqM1yubl_F3X3Q-181" vertex="1">
          <mxGeometry width="110" height="50" as="geometry" />
        </mxCell>
        <mxCell id="wNZ1jNhqM1yubl_F3X3Q-183" value="First Dose" style="shape=partialRectangle;html=1;whiteSpace=wrap;connectable=0;overflow=hidden;fillColor=none;top=0;left=0;bottom=0;right=0;" parent="wNZ1jNhqM1yubl_F3X3Q-181" vertex="1">
          <mxGeometry x="110" width="110" height="50" as="geometry" />
        </mxCell>
        <mxCell id="wNZ1jNhqM1yubl_F3X3Q-184" value="" style="shape=partialRectangle;html=1;whiteSpace=wrap;collapsible=0;dropTarget=0;pointerEvents=0;fillColor=none;top=0;left=0;bottom=0;right=0;points=[[0,0.5],[1,0.5]];portConstraint=eastwest;" parent="wNZ1jNhqM1yubl_F3X3Q-177" vertex="1">
          <mxGeometry y="100" width="220" height="50" as="geometry" />
        </mxCell>
        <mxCell id="wNZ1jNhqM1yubl_F3X3Q-185" value="" style="shape=partialRectangle;html=1;whiteSpace=wrap;connectable=0;overflow=hidden;fillColor=none;top=0;left=0;bottom=0;right=0;" parent="wNZ1jNhqM1yubl_F3X3Q-184" vertex="1">
          <mxGeometry width="110" height="50" as="geometry" />
        </mxCell>
        <mxCell id="wNZ1jNhqM1yubl_F3X3Q-186" value="" style="shape=partialRectangle;html=1;whiteSpace=wrap;connectable=0;overflow=hidden;fillColor=none;top=0;left=0;bottom=0;right=0;" parent="wNZ1jNhqM1yubl_F3X3Q-184" vertex="1">
          <mxGeometry x="110" width="110" height="50" as="geometry" />
        </mxCell>
        <mxCell id="wNZ1jNhqM1yubl_F3X3Q-206" value="February 28 2021" style="shape=partialRectangle;html=1;whiteSpace=wrap;connectable=0;overflow=hidden;fillColor=none;top=0;left=0;bottom=0;right=0;" parent="1" vertex="1">
          <mxGeometry x="-527" y="-611.82" width="110" height="50" as="geometry" />
        </mxCell>
        <mxCell id="wNZ1jNhqM1yubl_F3X3Q-207" value="Second Dose" style="shape=partialRectangle;html=1;whiteSpace=wrap;connectable=0;overflow=hidden;fillColor=none;top=0;left=0;bottom=0;right=0;" parent="1" vertex="1">
          <mxGeometry x="-417" y="-611.82" width="110" height="50" as="geometry" />
        </mxCell>
        <mxCell id="wNZ1jNhqM1yubl_F3X3Q-208" value="" style="shape=image;html=1;verticalAlign=top;verticalLabelPosition=bottom;labelBackgroundColor=#ffffff;imageAspect=0;aspect=fixed;image=https://cdn4.iconfinder.com/data/icons/web-ui-color/128/Checkmark-128.png" parent="1" vertex="1">
          <mxGeometry x="-456.67" y="-523.82" width="74" height="74" as="geometry" />
        </mxCell>
        <mxCell id="wNZ1jNhqM1yubl_F3X3Q-209" value="&lt;b&gt;All Vaccinations Complete&lt;/b&gt;" style="text;html=1;strokeColor=none;fillColor=none;align=center;verticalAlign=middle;whiteSpace=wrap;rounded=0;" parent="1" vertex="1">
          <mxGeometry x="-497" y="-425.82" width="160" height="20" as="geometry" />
        </mxCell>
        <mxCell id="wNZ1jNhqM1yubl_F3X3Q-210" value="" style="dashed=0;align=center;fontSize=12;shape=rect;fillColor=#ffffff;strokeColor=#cccccc;shadow=1;" parent="1" vertex="1">
          <mxGeometry x="-129" y="-735.82" width="220" height="205" as="geometry" />
        </mxCell>
        <mxCell id="wNZ1jNhqM1yubl_F3X3Q-211" value="Vaccination" style="shape=rect;fontColor=#000000;verticalAlign=middle;spacingLeft=13;fontSize=14;strokeColor=#cccccc;align=left;resizeWidth=1;" parent="wNZ1jNhqM1yubl_F3X3Q-210" vertex="1">
          <mxGeometry width="220" height="40" relative="1" as="geometry" />
        </mxCell>
        <mxCell id="wNZ1jNhqM1yubl_F3X3Q-212" value="" style="dashed=0;html=1;shape=mxgraph.gmdl.triangle;fillColor=#cccccc;strokeColor=none;" parent="wNZ1jNhqM1yubl_F3X3Q-211" vertex="1">
          <mxGeometry x="1" y="0.5" width="10" height="5" relative="1" as="geometry">
            <mxPoint x="-25" y="-2.5" as="offset" />
          </mxGeometry>
        </mxCell>
        <mxCell id="wNZ1jNhqM1yubl_F3X3Q-213" value="COVID-19 (SARS-CoV-2)" style="shape=rect;align=left;fontColor=#000000;verticalAlign=middle;spacingLeft=13;fontSize=14;fillColor=#eeeeee;strokeColor=none;resizeWidth=1;" parent="wNZ1jNhqM1yubl_F3X3Q-210" vertex="1">
          <mxGeometry width="220" height="30" relative="1" as="geometry">
            <mxPoint y="50" as="offset" />
          </mxGeometry>
        </mxCell>
        <mxCell id="wNZ1jNhqM1yubl_F3X3Q-214" value="Tetanus" style="text;fontColor=#000000;verticalAlign=middle;spacingLeft=13;fontSize=14;resizeWidth=1;" parent="wNZ1jNhqM1yubl_F3X3Q-210" vertex="1">
          <mxGeometry width="220" height="30" relative="1" as="geometry">
            <mxPoint y="80" as="offset" />
          </mxGeometry>
        </mxCell>
        <mxCell id="wNZ1jNhqM1yubl_F3X3Q-215" value="Pertussis (Whooping Cough)" style="text;fontColor=#000000;verticalAlign=middle;spacingLeft=13;fontSize=14;resizeWidth=1;" parent="wNZ1jNhqM1yubl_F3X3Q-210" vertex="1">
          <mxGeometry width="220" height="30" relative="1" as="geometry">
            <mxPoint y="110" as="offset" />
          </mxGeometry>
        </mxCell>
        <mxCell id="wNZ1jNhqM1yubl_F3X3Q-216" value="Polio" style="text;fontColor=#000000;verticalAlign=middle;spacingLeft=13;fontSize=14;resizeWidth=1;" parent="wNZ1jNhqM1yubl_F3X3Q-210" vertex="1">
          <mxGeometry width="220" height="30" relative="1" as="geometry">
            <mxPoint y="145" as="offset" />
          </mxGeometry>
        </mxCell>
        <mxCell id="wNZ1jNhqM1yubl_F3X3Q-217" value="Varicella (Chickenpox)" style="text;fontColor=#000000;verticalAlign=middle;spacingLeft=13;fontSize=14;resizeWidth=1;" parent="wNZ1jNhqM1yubl_F3X3Q-210" vertex="1">
          <mxGeometry width="220" height="30" relative="1" as="geometry">
            <mxPoint y="175" as="offset" />
          </mxGeometry>
        </mxCell>
        <mxCell id="wNZ1jNhqM1yubl_F3X3Q-218" value="&lt;div align=&quot;center&quot;&gt;Verification Code&lt;/div&gt;" style="strokeWidth=1;shadow=0;dashed=0;align=center;html=1;shape=mxgraph.mockup.text.textBox;fontColor=#666666;align=left;fontSize=17;spacingLeft=4;spacingTop=-3;strokeColor=#666666;mainText=" parent="1" vertex="1">
          <mxGeometry x="-108" y="-479.82000000000005" width="180" height="30" as="geometry" />
        </mxCell>
        <mxCell id="wNZ1jNhqM1yubl_F3X3Q-219" value="" style="rounded=1;whiteSpace=wrap;html=1;" parent="1" vertex="1">
          <mxGeometry x="1041" y="-795.82" width="280" height="480" as="geometry" />
        </mxCell>
        <mxCell id="wNZ1jNhqM1yubl_F3X3Q-220" value="" style="ellipse;whiteSpace=wrap;html=1;" parent="1" vertex="1">
          <mxGeometry x="1162.9473684210527" y="-362.87573770491787" width="36.10526315789473" height="39.18688524590165" as="geometry" />
        </mxCell>
        <mxCell id="wNZ1jNhqM1yubl_F3X3Q-221" value="" style="rounded=0;whiteSpace=wrap;html=1;" parent="1" vertex="1">
          <mxGeometry x="1059.6642105263159" y="-776.9977049180328" width="242.66421052631577" height="406.09573770491806" as="geometry" />
        </mxCell>
        <mxCell id="wNZ1jNhqM1yubl_F3X3Q-222" value="Add Test Information" style="rounded=0;whiteSpace=wrap;html=1;" parent="1" vertex="1">
          <mxGeometry x="1060.66" y="-776.0000000000001" width="241.34" height="24" as="geometry" />
        </mxCell>
        <mxCell id="wNZ1jNhqM1yubl_F3X3Q-224" value="Add" style="rounded=1;fillColor=#0057D8;strokeColor=none;fontColor=#ffffff;align=center;verticalAlign=middle;fontStyle=0;fontSize=14;html=1;shadow=0;dashed=0" parent="1" vertex="1">
          <mxGeometry x="1108" y="-415.81999999999977" width="150" height="33.87" as="geometry" />
        </mxCell>
        <mxCell id="wNZ1jNhqM1yubl_F3X3Q-225" value="" style="dashed=0;align=center;fontSize=12;shape=rect;fillColor=#ffffff;strokeColor=#cccccc;shadow=1;" parent="1" vertex="1">
          <mxGeometry x="1072" y="-735.82" width="220" height="205" as="geometry" />
        </mxCell>
        <mxCell id="wNZ1jNhqM1yubl_F3X3Q-226" value="Tests" style="shape=rect;fontColor=#000000;verticalAlign=middle;spacingLeft=13;fontSize=14;strokeColor=#cccccc;align=left;resizeWidth=1;" parent="wNZ1jNhqM1yubl_F3X3Q-225" vertex="1">
          <mxGeometry width="220" height="40" relative="1" as="geometry" />
        </mxCell>
        <mxCell id="wNZ1jNhqM1yubl_F3X3Q-227" value="" style="dashed=0;html=1;shape=mxgraph.gmdl.triangle;fillColor=#cccccc;strokeColor=none;" parent="wNZ1jNhqM1yubl_F3X3Q-226" vertex="1">
          <mxGeometry x="1" y="0.5" width="10" height="5" relative="1" as="geometry">
            <mxPoint x="-25" y="-2.5" as="offset" />
          </mxGeometry>
        </mxCell>
        <mxCell id="wNZ1jNhqM1yubl_F3X3Q-228" value="COVID-19 (SARS-CoV-2)" style="shape=rect;align=left;fontColor=#000000;verticalAlign=middle;spacingLeft=13;fontSize=14;fillColor=#eeeeee;strokeColor=none;resizeWidth=1;" parent="wNZ1jNhqM1yubl_F3X3Q-225" vertex="1">
          <mxGeometry width="220" height="30" relative="1" as="geometry">
            <mxPoint y="50" as="offset" />
          </mxGeometry>
        </mxCell>
        <mxCell id="wNZ1jNhqM1yubl_F3X3Q-229" value="Hepatitis" style="text;fontColor=#000000;verticalAlign=middle;spacingLeft=13;fontSize=14;resizeWidth=1;" parent="wNZ1jNhqM1yubl_F3X3Q-225" vertex="1">
          <mxGeometry width="220" height="30" relative="1" as="geometry">
            <mxPoint y="80" as="offset" />
          </mxGeometry>
        </mxCell>
        <mxCell id="wNZ1jNhqM1yubl_F3X3Q-230" value="HIV" style="text;fontColor=#000000;verticalAlign=middle;spacingLeft=13;fontSize=14;resizeWidth=1;" parent="wNZ1jNhqM1yubl_F3X3Q-225" vertex="1">
          <mxGeometry width="220" height="30" relative="1" as="geometry">
            <mxPoint y="110" as="offset" />
          </mxGeometry>
        </mxCell>
        <mxCell id="wNZ1jNhqM1yubl_F3X3Q-231" value="Pap Smear" style="text;fontColor=#000000;verticalAlign=middle;spacingLeft=13;fontSize=14;resizeWidth=1;" parent="wNZ1jNhqM1yubl_F3X3Q-225" vertex="1">
          <mxGeometry width="220" height="30" relative="1" as="geometry">
            <mxPoint y="145" as="offset" />
          </mxGeometry>
        </mxCell>
        <mxCell id="wNZ1jNhqM1yubl_F3X3Q-232" value="Tuberculosis (TB)" style="text;fontColor=#000000;verticalAlign=middle;spacingLeft=13;fontSize=14;resizeWidth=1;" parent="wNZ1jNhqM1yubl_F3X3Q-225" vertex="1">
          <mxGeometry width="220" height="30" relative="1" as="geometry">
            <mxPoint y="175" as="offset" />
          </mxGeometry>
        </mxCell>
        <mxCell id="wNZ1jNhqM1yubl_F3X3Q-233" value="&lt;div align=&quot;center&quot;&gt;Verification Code&lt;/div&gt;" style="strokeWidth=1;shadow=0;dashed=0;align=center;html=1;shape=mxgraph.mockup.text.textBox;fontColor=#666666;align=left;fontSize=17;spacingLeft=4;spacingTop=-3;strokeColor=#666666;mainText=" parent="1" vertex="1">
          <mxGeometry x="1093" y="-479.82000000000005" width="180" height="30" as="geometry" />
        </mxCell>
        <mxCell id="e7U4q7C3OgtxsN5pp7k--3" style="edgeStyle=orthogonalEdgeStyle;rounded=0;orthogonalLoop=1;jettySize=auto;html=1;exitX=0.5;exitY=1;exitDx=0;exitDy=0;" edge="1" parent="1">
          <mxGeometry relative="1" as="geometry">
            <mxPoint x="-20" y="-110" as="sourcePoint" />
            <mxPoint x="-20" y="-110" as="targetPoint" />
          </mxGeometry>
        </mxCell>
        <mxCell id="e7U4q7C3OgtxsN5pp7k--9" style="edgeStyle=orthogonalEdgeStyle;rounded=0;orthogonalLoop=1;jettySize=auto;html=1;entryX=0.5;entryY=0;entryDx=0;entryDy=0;" edge="1" parent="1" source="e7U4q7C3OgtxsN5pp7k--8" target="e7U4q7C3OgtxsN5pp7k--4">
          <mxGeometry relative="1" as="geometry" />
        </mxCell>
        <mxCell id="e7U4q7C3OgtxsN5pp7k--8" value="&lt;div&gt;&lt;font style=&quot;font-size: 18px&quot;&gt;&lt;b&gt;Login functionality shelved due to time constraint&lt;/b&gt;&lt;/font&gt;&lt;/div&gt;" style="text;html=1;strokeColor=none;fillColor=none;align=center;verticalAlign=middle;whiteSpace=wrap;rounded=0;" vertex="1" parent="1">
          <mxGeometry x="-239.84" y="-1970" width="439" height="20" as="geometry" />
        </mxCell>
        <mxCell id="e7U4q7C3OgtxsN5pp7k--60" style="edgeStyle=orthogonalEdgeStyle;rounded=0;orthogonalLoop=1;jettySize=auto;html=1;" edge="1" parent="1" source="e7U4q7C3OgtxsN5pp7k--16" target="e7U4q7C3OgtxsN5pp7k--15">
          <mxGeometry relative="1" as="geometry" />
        </mxCell>
        <mxCell id="e7U4q7C3OgtxsN5pp7k--16" value="&lt;div&gt;&lt;font style=&quot;font-size: 18px&quot;&gt;&lt;b&gt;Addition functionality shelved due to time constraint&lt;/b&gt;&lt;/font&gt;&lt;/div&gt;" style="text;html=1;strokeColor=none;fillColor=none;align=center;verticalAlign=middle;whiteSpace=wrap;rounded=0;" vertex="1" parent="1">
          <mxGeometry x="951.33" y="-250" width="460" height="20" as="geometry" />
        </mxCell>
        <mxCell id="e7U4q7C3OgtxsN5pp7k--51" style="edgeStyle=orthogonalEdgeStyle;rounded=0;orthogonalLoop=1;jettySize=auto;html=1;entryX=0.5;entryY=0;entryDx=0;entryDy=0;" edge="1" parent="1" source="e7U4q7C3OgtxsN5pp7k--24" target="e7U4q7C3OgtxsN5pp7k--28">
          <mxGeometry relative="1" as="geometry">
            <Array as="points">
              <mxPoint x="11" y="-1336" />
              <mxPoint x="-420" y="-1336" />
            </Array>
          </mxGeometry>
        </mxCell>
        <mxCell id="e7U4q7C3OgtxsN5pp7k--24" value="" style="html=1;verticalLabelPosition=bottom;labelBackgroundColor=#ffffff;verticalAlign=top;shadow=0;dashed=0;strokeWidth=2;shape=mxgraph.ios7.misc.info;strokeColor=#0080f0;fillColor=none;" vertex="1" parent="1">
          <mxGeometry x="5" y="-1289.41" width="12" height="12" as="geometry" />
        </mxCell>
        <mxCell id="e7U4q7C3OgtxsN5pp7k--28" value="" style="rounded=1;whiteSpace=wrap;html=1;" vertex="1" parent="1">
          <mxGeometry x="-560" y="-1315.82" width="280" height="480" as="geometry" />
        </mxCell>
        <mxCell id="e7U4q7C3OgtxsN5pp7k--29" value="" style="ellipse;whiteSpace=wrap;html=1;" vertex="1" parent="1">
          <mxGeometry x="-438.0526315789474" y="-882.8757377049179" width="36.10526315789473" height="39.18688524590165" as="geometry" />
        </mxCell>
        <mxCell id="e7U4q7C3OgtxsN5pp7k--30" value="" style="rounded=0;whiteSpace=wrap;html=1;" vertex="1" parent="1">
          <mxGeometry x="-541.3357894736843" y="-1296.9977049180327" width="242.66421052631577" height="406.09573770491806" as="geometry" />
        </mxCell>
        <mxCell id="e7U4q7C3OgtxsN5pp7k--31" value="Vaccine Info" style="rounded=0;whiteSpace=wrap;html=1;" vertex="1" parent="1">
          <mxGeometry x="-540.34" y="-1296" width="241.34" height="24" as="geometry" />
        </mxCell>
        <mxCell id="e7U4q7C3OgtxsN5pp7k--48" value="" style="html=1;verticalLabelPosition=bottom;labelBackgroundColor=#ffffff;verticalAlign=top;shadow=0;dashed=0;strokeWidth=2;shape=mxgraph.ios7.misc.scroll_(vertical);fillColor=#a0a0a0;" vertex="1" parent="1">
          <mxGeometry x="-304.99" y="-1240.35" width="6" height="80" as="geometry" />
        </mxCell>
        <mxCell id="e7U4q7C3OgtxsN5pp7k--23" value="&lt;blockquote class=&quot;page-generator__lorem&quot; id=&quot;output&quot;&gt;Lorem ipsum dolor &lt;br&gt;sit amet, consectetur adipiscing elit, sed do eiusmod tempor incididunt &lt;br&gt;ut labore et dolore magna aliqua. Ut enim ad minim veniam, quis nostrud &lt;br&gt;exercitation ullamco laboris nisi ut aliquip ex ea commodo consequat. &lt;br&gt;Duis aute irure dolor in reprehenderit in voluptate velit esse cillum &lt;br&gt;dolore eu fugiat nulla pariatur. Excepteur sint occaecat cupidatat non &lt;br&gt;proident, sunt in culpa qui officia deserunt mollit anim id est laborum.&lt;br&gt;Lorem ipsum dolor &lt;br&gt;sit amet, consectetur adipiscing elit, sed do eiusmod tempor incididunt &lt;br&gt;ut labore et dolore magna aliqua. Ut enim ad minim veniam, quis nostrud &lt;br&gt;exercitation ullamco laboris nisi ut aliquip ex ea commodo consequat. &lt;br&gt;Duis aute irure dolor in reprehenderit in voluptate velit esse cillum &lt;br&gt;dolore eu&lt;/blockquote&gt;" style="text;whiteSpace=wrap;html=1;" vertex="1" parent="1">
          <mxGeometry x="-566" y="-1250.82" width="290" height="349.82" as="geometry" />
        </mxCell>
        <mxCell id="e7U4q7C3OgtxsN5pp7k--50" value="&lt;font style=&quot;font-size: 14px&quot;&gt;&lt;b&gt;General Vaccine Information&lt;br&gt;&lt;/b&gt;&lt;/font&gt;" style="text;html=1;strokeColor=none;fillColor=none;align=center;verticalAlign=middle;whiteSpace=wrap;rounded=0;" vertex="1" parent="1">
          <mxGeometry x="-529.67" y="-1262.09" width="220" height="20" as="geometry" />
        </mxCell>
        <mxCell id="e7U4q7C3OgtxsN5pp7k--53" value="" style="rounded=1;whiteSpace=wrap;html=1;" vertex="1" parent="1">
          <mxGeometry x="1043" y="-1327.5599999999997" width="280" height="480" as="geometry" />
        </mxCell>
        <mxCell id="e7U4q7C3OgtxsN5pp7k--54" value="" style="ellipse;whiteSpace=wrap;html=1;" vertex="1" parent="1">
          <mxGeometry x="1163.8673684210526" y="-886.7457377049179" width="36.10526315789473" height="39.18688524590165" as="geometry" />
        </mxCell>
        <mxCell id="e7U4q7C3OgtxsN5pp7k--55" value="" style="rounded=0;whiteSpace=wrap;html=1;" vertex="1" parent="1">
          <mxGeometry x="1060.584210526316" y="-1300.8677049180326" width="242.66421052631577" height="406.09573770491806" as="geometry" />
        </mxCell>
        <mxCell id="e7U4q7C3OgtxsN5pp7k--56" value="Test Info" style="rounded=0;whiteSpace=wrap;html=1;" vertex="1" parent="1">
          <mxGeometry x="1061.58" y="-1299.87" width="241.34" height="24" as="geometry" />
        </mxCell>
        <mxCell id="e7U4q7C3OgtxsN5pp7k--57" value="" style="html=1;verticalLabelPosition=bottom;labelBackgroundColor=#ffffff;verticalAlign=top;shadow=0;dashed=0;strokeWidth=2;shape=mxgraph.ios7.misc.scroll_(vertical);fillColor=#a0a0a0;" vertex="1" parent="1">
          <mxGeometry x="1296.93" y="-1244.2199999999998" width="6" height="80" as="geometry" />
        </mxCell>
        <mxCell id="e7U4q7C3OgtxsN5pp7k--58" value="&lt;blockquote class=&quot;page-generator__lorem&quot; id=&quot;output&quot;&gt;Lorem ipsum dolor &lt;br&gt;sit amet, consectetur adipiscing elit, sed do eiusmod tempor incididunt &lt;br&gt;ut labore et dolore magna aliqua. Ut enim ad minim veniam, quis nostrud &lt;br&gt;exercitation ullamco laboris nisi ut aliquip ex ea commodo consequat. &lt;br&gt;Duis aute irure dolor in reprehenderit in voluptate velit esse cillum &lt;br&gt;dolore eu fugiat nulla pariatur. Excepteur sint occaecat cupidatat non &lt;br&gt;proident, sunt in culpa qui officia deserunt mollit anim id est laborum.&lt;br&gt;Lorem ipsum dolor &lt;br&gt;sit amet, consectetur adipiscing elit, sed do eiusmod tempor incididunt &lt;br&gt;ut labore et dolore magna aliqua. Ut enim ad minim veniam, quis nostrud &lt;br&gt;exercitation ullamco laboris nisi ut aliquip ex ea commodo consequat. &lt;br&gt;Duis aute irure dolor in reprehenderit in voluptate velit esse cillum &lt;br&gt;dolore eu&lt;/blockquote&gt;" style="text;whiteSpace=wrap;html=1;" vertex="1" parent="1">
          <mxGeometry x="1035.92" y="-1254.6899999999998" width="290" height="349.82" as="geometry" />
        </mxCell>
        <mxCell id="e7U4q7C3OgtxsN5pp7k--59" value="&lt;font style=&quot;font-size: 14px&quot;&gt;&lt;b&gt;General Test Information&lt;br&gt;&lt;/b&gt;&lt;/font&gt;" style="text;html=1;strokeColor=none;fillColor=none;align=center;verticalAlign=middle;whiteSpace=wrap;rounded=0;" vertex="1" parent="1">
          <mxGeometry x="1072.25" y="-1265.9599999999998" width="220" height="20" as="geometry" />
        </mxCell>
        <mxCell id="e7U4q7C3OgtxsN5pp7k--62" style="edgeStyle=orthogonalEdgeStyle;rounded=0;orthogonalLoop=1;jettySize=auto;html=1;entryX=0.5;entryY=0;entryDx=0;entryDy=0;" edge="1" parent="1" source="e7U4q7C3OgtxsN5pp7k--61" target="e7U4q7C3OgtxsN5pp7k--53">
          <mxGeometry relative="1" as="geometry">
            <Array as="points">
              <mxPoint x="1240" y="-1400" />
              <mxPoint x="1220" y="-1400" />
              <mxPoint x="1220" y="-1328" />
            </Array>
          </mxGeometry>
        </mxCell>
        <mxCell id="e7U4q7C3OgtxsN5pp7k--61" value="&lt;div&gt;&lt;font style=&quot;font-size: 18px&quot;&gt;&lt;b&gt;Documentation shelved due to time constraint&lt;/b&gt;&lt;/font&gt;&lt;/div&gt;" style="text;html=1;strokeColor=none;fillColor=none;align=center;verticalAlign=middle;whiteSpace=wrap;rounded=0;" vertex="1" parent="1">
          <mxGeometry x="960" y="-1462.88" width="460" height="20" as="geometry" />
        </mxCell>
        <mxCell id="e7U4q7C3OgtxsN5pp7k--65" style="edgeStyle=orthogonalEdgeStyle;rounded=0;orthogonalLoop=1;jettySize=auto;html=1;entryX=0.5;entryY=0;entryDx=0;entryDy=0;" edge="1" parent="1" source="e7U4q7C3OgtxsN5pp7k--64" target="e7U4q7C3OgtxsN5pp7k--63">
          <mxGeometry relative="1" as="geometry">
            <Array as="points">
              <mxPoint x="805" y="-1360" />
              <mxPoint x="1181" y="-1360" />
            </Array>
          </mxGeometry>
        </mxCell>
        <mxCell id="e7U4q7C3OgtxsN5pp7k--64" value="" style="html=1;verticalLabelPosition=bottom;labelBackgroundColor=#ffffff;verticalAlign=top;shadow=0;dashed=0;strokeWidth=2;shape=mxgraph.ios7.misc.info;strokeColor=#0080f0;fillColor=none;" vertex="1" parent="1">
          <mxGeometry x="799.05" y="-1291" width="12" height="12" as="geometry" />
        </mxCell>
      </root>
    </mxGraphModel>
  </diagram>
</mxfile>
